  0
SECTION
  2
HEADER
  9
$ACADVER
  1
AC1009
  9
$FILLMODE
 70
 0
  9
$SPLFRAME
 70
 1
  9
$EXTMIN
 10
0
 20
0
 30
0.0
  9
$EXTMAX
 10
1058.33
 20
1058.33
 30
0.0
  0
ENDSEC
  0
SECTION
  2
TABLES
  0
TABLE
  2
LAYER
 70
1
  0
LAYER
  2
0
 70
     0
 62
     7
  6
CONTINUOUS
  0
ENDTAB
  0
ENDSEC
  0
SECTION
  2
ENTITIES
  0
LINE
  8
0
 62
     0
 10
0.0950846
 20
119.496
 30
0.0
 11
338.233
 21
119.496
 31
0.0
  0
LINE
  8
0
 62
     0
 10
338.233
 20
119.496
 30
0.0
 11
338.233
 21
0.434082
 31
0.0
  0
LINE
  8
0
 62
     0
 10
338.233
 20
0.434082
 30
0.0
 11
0.0950846
 21
0.434082
 31
0.0
  0
LINE
  8
0
 62
     0
 10
0.0950846
 20
0.434082
 30
0.0
 11
0.0950846
 21
119.496
 31
0.0
  0
LINE
  8
0
 62
     0
 10
283.607
 20
16.9595
 30
0.0
 11
283.607
 21
15.9604
 31
0.0
  0
LINE
  8
0
 62
     0
 10
283.607
 20
15.9604
 30
0.0
 11
282.806
 21
15.9604
 31
0.0
  0
LINE
  8
0
 62
     0
 10
282.806
 20
15.9604
 30
0.0
 11
282.806
 21
12.8598
 31
0.0
  0
LINE
  8
0
 62
     0
 10
282.806
 20
12.8598
 30
0.0
 11
283.607
 21
12.8598
 31
0.0
  0
LINE
  8
0
 62
     0
 10
283.607
 20
12.8598
 30
0.0
 11
283.607
 21
7.05968
 31
0.0
  0
LINE
  8
0
 62
     0
 10
283.607
 20
7.05968
 30
0.0
 11
282.806
 21
7.05968
 31
0.0
  0
LINE
  8
0
 62
     0
 10
282.806
 20
7.05968
 30
0.0
 11
282.806
 21
3.96049
 31
0.0
  0
LINE
  8
0
 62
     0
 10
282.806
 20
3.96049
 30
0.0
 11
283.607
 21
3.96049
 31
0.0
  0
LINE
  8
0
 62
     0
 10
283.607
 20
3.96049
 30
0.0
 11
283.607
 21
2.96003
 31
0.0
  0
LINE
  8
0
 62
     0
 10
283.607
 20
2.96003
 30
0.0
 11
297.607
 21
2.96003
 31
0.0
  0
LINE
  8
0
 62
     0
 10
297.607
 20
2.96003
 30
0.0
 11
297.607
 21
3.96049
 31
0.0
  0
LINE
  8
0
 62
     0
 10
297.607
 20
3.96049
 30
0.0
 11
298.406
 21
3.96049
 31
0.0
  0
LINE
  8
0
 62
     0
 10
298.406
 20
3.96049
 30
0.0
 11
298.406
 21
7.05968
 31
0.0
  0
LINE
  8
0
 62
     0
 10
298.406
 20
7.05968
 30
0.0
 11
297.607
 21
7.05968
 31
0.0
  0
LINE
  8
0
 62
     0
 10
297.607
 20
7.05968
 30
0.0
 11
297.607
 21
12.8598
 31
0.0
  0
LINE
  8
0
 62
     0
 10
297.607
 20
12.8598
 30
0.0
 11
298.406
 21
12.8598
 31
0.0
  0
LINE
  8
0
 62
     0
 10
298.406
 20
12.8598
 30
0.0
 11
298.406
 21
15.9604
 31
0.0
  0
LINE
  8
0
 62
     0
 10
298.406
 20
15.9604
 30
0.0
 11
297.607
 21
15.9604
 31
0.0
  0
LINE
  8
0
 62
     0
 10
297.607
 20
15.9604
 30
0.0
 11
297.607
 21
16.9595
 31
0.0
  0
LINE
  8
0
 62
     0
 10
297.607
 20
16.9595
 30
0.0
 11
283.607
 21
16.9595
 31
0.0
  0
LINE
  8
0
 62
     0
 10
302.657
 20
16.9595
 30
0.0
 11
302.657
 21
15.9604
 31
0.0
  0
LINE
  8
0
 62
     0
 10
302.657
 20
15.9604
 30
0.0
 11
301.856
 21
15.9604
 31
0.0
  0
LINE
  8
0
 62
     0
 10
301.856
 20
15.9604
 30
0.0
 11
301.856
 21
12.8598
 31
0.0
  0
LINE
  8
0
 62
     0
 10
301.856
 20
12.8598
 30
0.0
 11
302.657
 21
12.8598
 31
0.0
  0
LINE
  8
0
 62
     0
 10
302.657
 20
12.8598
 30
0.0
 11
302.657
 21
7.05968
 31
0.0
  0
LINE
  8
0
 62
     0
 10
302.657
 20
7.05968
 30
0.0
 11
301.856
 21
7.05968
 31
0.0
  0
LINE
  8
0
 62
     0
 10
301.856
 20
7.05968
 30
0.0
 11
301.856
 21
3.96049
 31
0.0
  0
LINE
  8
0
 62
     0
 10
301.856
 20
3.96049
 30
0.0
 11
302.657
 21
3.96049
 31
0.0
  0
LINE
  8
0
 62
     0
 10
302.657
 20
3.96049
 30
0.0
 11
302.657
 21
2.96003
 31
0.0
  0
LINE
  8
0
 62
     0
 10
302.657
 20
2.96003
 30
0.0
 11
316.657
 21
2.96003
 31
0.0
  0
LINE
  8
0
 62
     0
 10
316.657
 20
2.96003
 30
0.0
 11
316.657
 21
3.96049
 31
0.0
  0
LINE
  8
0
 62
     0
 10
316.657
 20
3.96049
 30
0.0
 11
317.456
 21
3.96049
 31
0.0
  0
LINE
  8
0
 62
     0
 10
317.456
 20
3.96049
 30
0.0
 11
317.456
 21
7.05968
 31
0.0
  0
LINE
  8
0
 62
     0
 10
317.456
 20
7.05968
 30
0.0
 11
316.657
 21
7.05968
 31
0.0
  0
LINE
  8
0
 62
     0
 10
316.657
 20
7.05968
 30
0.0
 11
316.657
 21
12.8598
 31
0.0
  0
LINE
  8
0
 62
     0
 10
316.657
 20
12.8598
 30
0.0
 11
317.456
 21
12.8598
 31
0.0
  0
LINE
  8
0
 62
     0
 10
317.456
 20
12.8598
 30
0.0
 11
317.456
 21
15.9604
 31
0.0
  0
LINE
  8
0
 62
     0
 10
317.456
 20
15.9604
 30
0.0
 11
316.657
 21
15.9604
 31
0.0
  0
LINE
  8
0
 62
     0
 10
316.657
 20
15.9604
 30
0.0
 11
316.657
 21
16.9595
 31
0.0
  0
LINE
  8
0
 62
     0
 10
316.657
 20
16.9595
 30
0.0
 11
302.657
 21
16.9595
 31
0.0
  0
LINE
  8
0
 62
     0
 10
321.707
 20
16.9595
 30
0.0
 11
321.707
 21
15.9604
 31
0.0
  0
LINE
  8
0
 62
     0
 10
321.707
 20
15.9604
 30
0.0
 11
320.906
 21
15.9604
 31
0.0
  0
LINE
  8
0
 62
     0
 10
320.906
 20
15.9604
 30
0.0
 11
320.906
 21
12.8598
 31
0.0
  0
LINE
  8
0
 62
     0
 10
320.906
 20
12.8598
 30
0.0
 11
321.707
 21
12.8598
 31
0.0
  0
LINE
  8
0
 62
     0
 10
321.707
 20
12.8598
 30
0.0
 11
321.707
 21
7.05968
 31
0.0
  0
LINE
  8
0
 62
     0
 10
321.707
 20
7.05968
 30
0.0
 11
320.906
 21
7.05968
 31
0.0
  0
LINE
  8
0
 62
     0
 10
320.906
 20
7.05968
 30
0.0
 11
320.906
 21
3.96049
 31
0.0
  0
LINE
  8
0
 62
     0
 10
320.906
 20
3.96049
 30
0.0
 11
321.707
 21
3.96049
 31
0.0
  0
LINE
  8
0
 62
     0
 10
321.707
 20
3.96049
 30
0.0
 11
321.707
 21
2.96003
 31
0.0
  0
LINE
  8
0
 62
     0
 10
321.707
 20
2.96003
 30
0.0
 11
335.707
 21
2.96003
 31
0.0
  0
LINE
  8
0
 62
     0
 10
335.707
 20
2.96003
 30
0.0
 11
335.707
 21
3.96049
 31
0.0
  0
LINE
  8
0
 62
     0
 10
335.707
 20
3.96049
 30
0.0
 11
336.506
 21
3.96049
 31
0.0
  0
LINE
  8
0
 62
     0
 10
336.506
 20
3.96049
 30
0.0
 11
336.506
 21
7.05968
 31
0.0
  0
LINE
  8
0
 62
     0
 10
336.506
 20
7.05968
 30
0.0
 11
335.707
 21
7.05968
 31
0.0
  0
LINE
  8
0
 62
     0
 10
335.707
 20
7.05968
 30
0.0
 11
335.707
 21
12.8598
 31
0.0
  0
LINE
  8
0
 62
     0
 10
335.707
 20
12.8598
 30
0.0
 11
336.506
 21
12.8598
 31
0.0
  0
LINE
  8
0
 62
     0
 10
336.506
 20
12.8598
 30
0.0
 11
336.506
 21
15.9604
 31
0.0
  0
LINE
  8
0
 62
     0
 10
336.506
 20
15.9604
 30
0.0
 11
335.707
 21
15.9604
 31
0.0
  0
LINE
  8
0
 62
     0
 10
335.707
 20
15.9604
 30
0.0
 11
335.707
 21
16.9595
 31
0.0
  0
LINE
  8
0
 62
     0
 10
335.707
 20
16.9595
 30
0.0
 11
321.707
 21
16.9595
 31
0.0
  0
LINE
  8
0
 62
     0
 10
124.062
 20
21.722
 30
0.0
 11
124.062
 21
20.7216
 31
0.0
  0
LINE
  8
0
 62
     0
 10
124.062
 20
20.7216
 30
0.0
 11
123.263
 21
20.7216
 31
0.0
  0
LINE
  8
0
 62
     0
 10
123.263
 20
20.7216
 30
0.0
 11
123.263
 21
17.6223
 31
0.0
  0
LINE
  8
0
 62
     0
 10
123.263
 20
17.6223
 30
0.0
 11
124.062
 21
17.6223
 31
0.0
  0
LINE
  8
0
 62
     0
 10
124.062
 20
17.6223
 30
0.0
 11
124.062
 21
17.0215
 31
0.0
  0
LINE
  8
0
 62
     0
 10
124.062
 20
17.0215
 30
0.0
 11
84.4381
 21
17.0215
 31
0.0
  0
LINE
  8
0
 62
     0
 10
84.4381
 20
17.0215
 30
0.0
 11
84.4381
 21
20.2517
 31
0.0
  0
LINE
  8
0
 62
     0
 10
84.4381
 20
20.2517
 30
0.0
 11
77.687
 21
20.2517
 31
0.0
  0
LINE
  8
0
 62
     0
 10
77.687
 20
20.2517
 30
0.0
 11
77.687
 21
17.0215
 31
0.0
  0
LINE
  8
0
 62
     0
 10
77.687
 20
17.0215
 30
0.0
 11
76.8629
 21
17.0215
 31
0.0
  0
LINE
  8
0
 62
     0
 10
76.8629
 20
17.0215
 30
0.0
 11
76.8629
 21
14.2227
 31
0.0
  0
LINE
  8
0
 62
     0
 10
76.8629
 20
14.2227
 30
0.0
 11
77.687
 21
14.2227
 31
0.0
  0
LINE
  8
0
 62
     0
 10
77.687
 20
14.2227
 30
0.0
 11
77.687
 21
7.95267
 31
0.0
  0
LINE
  8
0
 62
     0
 10
77.687
 20
7.95267
 30
0.0
 11
79.412
 21
7.95267
 31
0.0
  0
LINE
  8
0
 62
     0
 10
79.412
 20
7.95267
 30
0.0
 11
79.412
 21
6.75238
 31
0.0
  0
LINE
  8
0
 62
     0
 10
79.412
 20
6.75238
 30
0.0
 11
82.7126
 21
6.75238
 31
0.0
  0
LINE
  8
0
 62
     0
 10
82.7126
 20
6.75238
 30
0.0
 11
82.7126
 21
7.95267
 31
0.0
  0
LINE
  8
0
 62
     0
 10
82.7126
 20
7.95267
 30
0.0
 11
84.4381
 21
7.95267
 31
0.0
  0
LINE
  8
0
 62
     0
 10
84.4381
 20
7.95267
 30
0.0
 11
84.4381
 21
12.4216
 31
0.0
  0
LINE
  8
0
 62
     0
 10
84.4381
 20
12.4216
 30
0.0
 11
124.062
 21
12.4216
 31
0.0
  0
LINE
  8
0
 62
     0
 10
124.062
 20
12.4216
 30
0.0
 11
124.062
 21
11.8222
 31
0.0
  0
LINE
  8
0
 62
     0
 10
124.062
 20
11.8222
 30
0.0
 11
123.263
 21
11.8222
 31
0.0
  0
LINE
  8
0
 62
     0
 10
123.263
 20
11.8222
 30
0.0
 11
123.263
 21
8.72162
 31
0.0
  0
LINE
  8
0
 62
     0
 10
123.263
 20
8.72162
 30
0.0
 11
124.062
 21
8.72162
 31
0.0
  0
LINE
  8
0
 62
     0
 10
124.062
 20
8.72162
 30
0.0
 11
124.062
 21
7.72252
 31
0.0
  0
LINE
  8
0
 62
     0
 10
124.062
 20
7.72252
 30
0.0
 11
138.063
 21
7.72252
 31
0.0
  0
LINE
  8
0
 62
     0
 10
138.063
 20
7.72252
 30
0.0
 11
138.063
 21
8.72162
 31
0.0
  0
LINE
  8
0
 62
     0
 10
138.063
 20
8.72162
 30
0.0
 11
138.862
 21
8.72162
 31
0.0
  0
LINE
  8
0
 62
     0
 10
138.862
 20
8.72162
 30
0.0
 11
138.862
 21
11.8222
 31
0.0
  0
LINE
  8
0
 62
     0
 10
138.862
 20
11.8222
 30
0.0
 11
138.063
 21
11.8222
 31
0.0
  0
LINE
  8
0
 62
     0
 10
138.063
 20
11.8222
 30
0.0
 11
138.063
 21
12.4216
 31
0.0
  0
LINE
  8
0
 62
     0
 10
138.063
 20
12.4216
 30
0.0
 11
177.687
 21
12.4216
 31
0.0
  0
LINE
  8
0
 62
     0
 10
177.687
 20
12.4216
 30
0.0
 11
177.687
 21
7.95267
 31
0.0
  0
LINE
  8
0
 62
     0
 10
177.687
 20
7.95267
 30
0.0
 11
179.412
 21
7.95267
 31
0.0
  0
LINE
  8
0
 62
     0
 10
179.412
 20
7.95267
 30
0.0
 11
179.412
 21
6.75238
 31
0.0
  0
LINE
  8
0
 62
     0
 10
179.412
 20
6.75238
 30
0.0
 11
182.713
 21
6.75238
 31
0.0
  0
LINE
  8
0
 62
     0
 10
182.713
 20
6.75238
 30
0.0
 11
182.713
 21
7.95267
 31
0.0
  0
LINE
  8
0
 62
     0
 10
182.713
 20
7.95267
 30
0.0
 11
184.438
 21
7.95267
 31
0.0
  0
LINE
  8
0
 62
     0
 10
184.438
 20
7.95267
 30
0.0
 11
184.438
 21
14.2227
 31
0.0
  0
LINE
  8
0
 62
     0
 10
184.438
 20
14.2227
 30
0.0
 11
185.262
 21
14.2227
 31
0.0
  0
LINE
  8
0
 62
     0
 10
185.262
 20
14.2227
 30
0.0
 11
185.262
 21
17.0215
 31
0.0
  0
LINE
  8
0
 62
     0
 10
185.262
 20
17.0215
 30
0.0
 11
184.438
 21
17.0215
 31
0.0
  0
LINE
  8
0
 62
     0
 10
184.438
 20
17.0215
 30
0.0
 11
184.438
 21
20.2517
 31
0.0
  0
LINE
  8
0
 62
     0
 10
184.438
 20
20.2517
 30
0.0
 11
177.687
 21
20.2517
 31
0.0
  0
LINE
  8
0
 62
     0
 10
177.687
 20
20.2517
 30
0.0
 11
177.687
 21
17.0215
 31
0.0
  0
LINE
  8
0
 62
     0
 10
177.687
 20
17.0215
 30
0.0
 11
138.063
 21
17.0215
 31
0.0
  0
LINE
  8
0
 62
     0
 10
138.063
 20
17.0215
 30
0.0
 11
138.063
 21
17.6223
 31
0.0
  0
LINE
  8
0
 62
     0
 10
138.063
 20
17.6223
 30
0.0
 11
138.862
 21
17.6223
 31
0.0
  0
LINE
  8
0
 62
     0
 10
138.862
 20
17.6223
 30
0.0
 11
138.862
 21
20.7216
 31
0.0
  0
LINE
  8
0
 62
     0
 10
138.862
 20
20.7216
 30
0.0
 11
138.063
 21
20.7216
 31
0.0
  0
LINE
  8
0
 62
     0
 10
138.063
 20
20.7216
 30
0.0
 11
138.063
 21
21.722
 31
0.0
  0
LINE
  8
0
 62
     0
 10
138.063
 20
21.722
 30
0.0
 11
124.062
 21
21.722
 31
0.0
  0
LINE
  8
0
 62
     0
 10
5.00091
 20
21.722
 30
0.0
 11
5.00091
 21
20.7216
 31
0.0
  0
LINE
  8
0
 62
     0
 10
5.00091
 20
20.7216
 30
0.0
 11
4.20028
 21
20.7216
 31
0.0
  0
LINE
  8
0
 62
     0
 10
4.20028
 20
20.7216
 30
0.0
 11
4.20028
 21
17.6223
 31
0.0
  0
LINE
  8
0
 62
     0
 10
4.20028
 20
17.6223
 30
0.0
 11
5.00091
 21
17.6223
 31
0.0
  0
LINE
  8
0
 62
     0
 10
5.00091
 20
17.6223
 30
0.0
 11
5.00091
 21
11.8222
 31
0.0
  0
LINE
  8
0
 62
     0
 10
5.00091
 20
11.8222
 30
0.0
 11
4.20028
 21
11.8222
 31
0.0
  0
LINE
  8
0
 62
     0
 10
4.20028
 20
11.8222
 30
0.0
 11
4.20028
 21
8.72162
 31
0.0
  0
LINE
  8
0
 62
     0
 10
4.20028
 20
8.72162
 30
0.0
 11
5.00091
 21
8.72162
 31
0.0
  0
LINE
  8
0
 62
     0
 10
5.00091
 20
8.72162
 30
0.0
 11
5.00091
 21
7.72252
 31
0.0
  0
LINE
  8
0
 62
     0
 10
5.00091
 20
7.72252
 30
0.0
 11
19.0004
 21
7.72252
 31
0.0
  0
LINE
  8
0
 62
     0
 10
19.0004
 20
7.72252
 30
0.0
 11
19.0004
 21
8.72162
 31
0.0
  0
LINE
  8
0
 62
     0
 10
19.0004
 20
8.72162
 30
0.0
 11
19.801
 21
8.72162
 31
0.0
  0
LINE
  8
0
 62
     0
 10
19.801
 20
8.72162
 30
0.0
 11
19.801
 21
11.8222
 31
0.0
  0
LINE
  8
0
 62
     0
 10
19.801
 20
11.8222
 30
0.0
 11
19.0004
 21
11.8222
 31
0.0
  0
LINE
  8
0
 62
     0
 10
19.0004
 20
11.8222
 30
0.0
 11
19.0004
 21
17.6223
 31
0.0
  0
LINE
  8
0
 62
     0
 10
19.0004
 20
17.6223
 30
0.0
 11
19.801
 21
17.6223
 31
0.0
  0
LINE
  8
0
 62
     0
 10
19.801
 20
17.6223
 30
0.0
 11
19.801
 21
20.7216
 31
0.0
  0
LINE
  8
0
 62
     0
 10
19.801
 20
20.7216
 30
0.0
 11
19.0004
 21
20.7216
 31
0.0
  0
LINE
  8
0
 62
     0
 10
19.0004
 20
20.7216
 30
0.0
 11
19.0004
 21
21.722
 31
0.0
  0
LINE
  8
0
 62
     0
 10
19.0004
 20
21.722
 30
0.0
 11
5.00091
 21
21.722
 31
0.0
  0
LINE
  8
0
 62
     0
 10
28.812
 20
21.722
 30
0.0
 11
28.812
 21
20.7216
 31
0.0
  0
LINE
  8
0
 62
     0
 10
28.812
 20
20.7216
 30
0.0
 11
28.0128
 21
20.7216
 31
0.0
  0
LINE
  8
0
 62
     0
 10
28.0128
 20
20.7216
 30
0.0
 11
28.0128
 21
17.6223
 31
0.0
  0
LINE
  8
0
 62
     0
 10
28.0128
 20
17.6223
 30
0.0
 11
28.812
 21
17.6223
 31
0.0
  0
LINE
  8
0
 62
     0
 10
28.812
 20
17.6223
 30
0.0
 11
28.812
 21
11.8222
 31
0.0
  0
LINE
  8
0
 62
     0
 10
28.812
 20
11.8222
 30
0.0
 11
28.0128
 21
11.8222
 31
0.0
  0
LINE
  8
0
 62
     0
 10
28.0128
 20
11.8222
 30
0.0
 11
28.0128
 21
8.72162
 31
0.0
  0
LINE
  8
0
 62
     0
 10
28.0128
 20
8.72162
 30
0.0
 11
28.812
 21
8.72162
 31
0.0
  0
LINE
  8
0
 62
     0
 10
28.812
 20
8.72162
 30
0.0
 11
28.812
 21
7.72252
 31
0.0
  0
LINE
  8
0
 62
     0
 10
28.812
 20
7.72252
 30
0.0
 11
42.8128
 21
7.72252
 31
0.0
  0
LINE
  8
0
 62
     0
 10
42.8128
 20
7.72252
 30
0.0
 11
42.8128
 21
8.72162
 31
0.0
  0
LINE
  8
0
 62
     0
 10
42.8128
 20
8.72162
 30
0.0
 11
43.6122
 21
8.72162
 31
0.0
  0
LINE
  8
0
 62
     0
 10
43.6122
 20
8.72162
 30
0.0
 11
43.6122
 21
11.8222
 31
0.0
  0
LINE
  8
0
 62
     0
 10
43.6122
 20
11.8222
 30
0.0
 11
42.8128
 21
11.8222
 31
0.0
  0
LINE
  8
0
 62
     0
 10
42.8128
 20
11.8222
 30
0.0
 11
42.8128
 21
17.6223
 31
0.0
  0
LINE
  8
0
 62
     0
 10
42.8128
 20
17.6223
 30
0.0
 11
43.6122
 21
17.6223
 31
0.0
  0
LINE
  8
0
 62
     0
 10
43.6122
 20
17.6223
 30
0.0
 11
43.6122
 21
20.7216
 31
0.0
  0
LINE
  8
0
 62
     0
 10
43.6122
 20
20.7216
 30
0.0
 11
42.8128
 21
20.7216
 31
0.0
  0
LINE
  8
0
 62
     0
 10
42.8128
 20
20.7216
 30
0.0
 11
42.8128
 21
21.722
 31
0.0
  0
LINE
  8
0
 62
     0
 10
42.8128
 20
21.722
 30
0.0
 11
28.812
 21
21.722
 31
0.0
  0
LINE
  8
0
 62
     0
 10
52.626
 20
21.722
 30
0.0
 11
52.626
 21
20.7216
 31
0.0
  0
LINE
  8
0
 62
     0
 10
52.626
 20
20.7216
 30
0.0
 11
51.8252
 21
20.7216
 31
0.0
  0
LINE
  8
0
 62
     0
 10
51.8252
 20
20.7216
 30
0.0
 11
51.8252
 21
17.6223
 31
0.0
  0
LINE
  8
0
 62
     0
 10
51.8252
 20
17.6223
 30
0.0
 11
52.626
 21
17.6223
 31
0.0
  0
LINE
  8
0
 62
     0
 10
52.626
 20
17.6223
 30
0.0
 11
52.626
 21
11.8222
 31
0.0
  0
LINE
  8
0
 62
     0
 10
52.626
 20
11.8222
 30
0.0
 11
51.8252
 21
11.8222
 31
0.0
  0
LINE
  8
0
 62
     0
 10
51.8252
 20
11.8222
 30
0.0
 11
51.8252
 21
8.72162
 31
0.0
  0
LINE
  8
0
 62
     0
 10
51.8252
 20
8.72162
 30
0.0
 11
52.626
 21
8.72162
 31
0.0
  0
LINE
  8
0
 62
     0
 10
52.626
 20
8.72162
 30
0.0
 11
52.626
 21
7.72252
 31
0.0
  0
LINE
  8
0
 62
     0
 10
52.626
 20
7.72252
 30
0.0
 11
66.6253
 21
7.72252
 31
0.0
  0
LINE
  8
0
 62
     0
 10
66.6253
 20
7.72252
 30
0.0
 11
66.6253
 21
8.72162
 31
0.0
  0
LINE
  8
0
 62
     0
 10
66.6253
 20
8.72162
 30
0.0
 11
67.4261
 21
8.72162
 31
0.0
  0
LINE
  8
0
 62
     0
 10
67.4261
 20
8.72162
 30
0.0
 11
67.4261
 21
11.8222
 31
0.0
  0
LINE
  8
0
 62
     0
 10
67.4261
 20
11.8222
 30
0.0
 11
66.6253
 21
11.8222
 31
0.0
  0
LINE
  8
0
 62
     0
 10
66.6253
 20
11.8222
 30
0.0
 11
66.6253
 21
17.6223
 31
0.0
  0
LINE
  8
0
 62
     0
 10
66.6253
 20
17.6223
 30
0.0
 11
67.4261
 21
17.6223
 31
0.0
  0
LINE
  8
0
 62
     0
 10
67.4261
 20
17.6223
 30
0.0
 11
67.4261
 21
20.7216
 31
0.0
  0
LINE
  8
0
 62
     0
 10
67.4261
 20
20.7216
 30
0.0
 11
66.6253
 21
20.7216
 31
0.0
  0
LINE
  8
0
 62
     0
 10
66.6253
 20
20.7216
 30
0.0
 11
66.6253
 21
21.722
 31
0.0
  0
LINE
  8
0
 62
     0
 10
66.6253
 20
21.722
 30
0.0
 11
52.626
 21
21.722
 31
0.0
  0
LINE
  8
0
 62
     0
 10
195.501
 20
21.722
 30
0.0
 11
195.501
 21
20.7216
 31
0.0
  0
LINE
  8
0
 62
     0
 10
195.501
 20
20.7216
 30
0.0
 11
194.7
 21
20.7216
 31
0.0
  0
LINE
  8
0
 62
     0
 10
194.7
 20
20.7216
 30
0.0
 11
194.7
 21
17.6223
 31
0.0
  0
LINE
  8
0
 62
     0
 10
194.7
 20
17.6223
 30
0.0
 11
195.501
 21
17.6223
 31
0.0
  0
LINE
  8
0
 62
     0
 10
195.501
 20
17.6223
 30
0.0
 11
195.501
 21
11.8222
 31
0.0
  0
LINE
  8
0
 62
     0
 10
195.501
 20
11.8222
 30
0.0
 11
194.7
 21
11.8222
 31
0.0
  0
LINE
  8
0
 62
     0
 10
194.7
 20
11.8222
 30
0.0
 11
194.7
 21
8.72162
 31
0.0
  0
LINE
  8
0
 62
     0
 10
194.7
 20
8.72162
 30
0.0
 11
195.501
 21
8.72162
 31
0.0
  0
LINE
  8
0
 62
     0
 10
195.501
 20
8.72162
 30
0.0
 11
195.501
 21
7.72252
 31
0.0
  0
LINE
  8
0
 62
     0
 10
195.501
 20
7.72252
 30
0.0
 11
209.5
 21
7.72252
 31
0.0
  0
LINE
  8
0
 62
     0
 10
209.5
 20
7.72252
 30
0.0
 11
209.5
 21
8.72162
 31
0.0
  0
LINE
  8
0
 62
     0
 10
209.5
 20
8.72162
 30
0.0
 11
210.301
 21
8.72162
 31
0.0
  0
LINE
  8
0
 62
     0
 10
210.301
 20
8.72162
 30
0.0
 11
210.301
 21
11.8222
 31
0.0
  0
LINE
  8
0
 62
     0
 10
210.301
 20
11.8222
 30
0.0
 11
209.5
 21
11.8222
 31
0.0
  0
LINE
  8
0
 62
     0
 10
209.5
 20
11.8222
 30
0.0
 11
209.5
 21
17.6223
 31
0.0
  0
LINE
  8
0
 62
     0
 10
209.5
 20
17.6223
 30
0.0
 11
210.301
 21
17.6223
 31
0.0
  0
LINE
  8
0
 62
     0
 10
210.301
 20
17.6223
 30
0.0
 11
210.301
 21
20.7216
 31
0.0
  0
LINE
  8
0
 62
     0
 10
210.301
 20
20.7216
 30
0.0
 11
209.5
 21
20.7216
 31
0.0
  0
LINE
  8
0
 62
     0
 10
209.5
 20
20.7216
 30
0.0
 11
209.5
 21
21.722
 31
0.0
  0
LINE
  8
0
 62
     0
 10
209.5
 20
21.722
 30
0.0
 11
195.501
 21
21.722
 31
0.0
  0
LINE
  8
0
 62
     0
 10
219.312
 20
21.722
 30
0.0
 11
219.312
 21
20.7216
 31
0.0
  0
LINE
  8
0
 62
     0
 10
219.312
 20
20.7216
 30
0.0
 11
218.513
 21
20.7216
 31
0.0
  0
LINE
  8
0
 62
     0
 10
218.513
 20
20.7216
 30
0.0
 11
218.513
 21
17.6223
 31
0.0
  0
LINE
  8
0
 62
     0
 10
218.513
 20
17.6223
 30
0.0
 11
219.312
 21
17.6223
 31
0.0
  0
LINE
  8
0
 62
     0
 10
219.312
 20
17.6223
 30
0.0
 11
219.312
 21
11.8222
 31
0.0
  0
LINE
  8
0
 62
     0
 10
219.312
 20
11.8222
 30
0.0
 11
218.513
 21
11.8222
 31
0.0
  0
LINE
  8
0
 62
     0
 10
218.513
 20
11.8222
 30
0.0
 11
218.513
 21
8.72162
 31
0.0
  0
LINE
  8
0
 62
     0
 10
218.513
 20
8.72162
 30
0.0
 11
219.312
 21
8.72162
 31
0.0
  0
LINE
  8
0
 62
     0
 10
219.312
 20
8.72162
 30
0.0
 11
219.312
 21
7.72252
 31
0.0
  0
LINE
  8
0
 62
     0
 10
219.312
 20
7.72252
 30
0.0
 11
233.313
 21
7.72252
 31
0.0
  0
LINE
  8
0
 62
     0
 10
233.313
 20
7.72252
 30
0.0
 11
233.313
 21
8.72162
 31
0.0
  0
LINE
  8
0
 62
     0
 10
233.313
 20
8.72162
 30
0.0
 11
234.112
 21
8.72162
 31
0.0
  0
LINE
  8
0
 62
     0
 10
234.112
 20
8.72162
 30
0.0
 11
234.112
 21
11.8222
 31
0.0
  0
LINE
  8
0
 62
     0
 10
234.112
 20
11.8222
 30
0.0
 11
233.313
 21
11.8222
 31
0.0
  0
LINE
  8
0
 62
     0
 10
233.313
 20
11.8222
 30
0.0
 11
233.313
 21
17.6223
 31
0.0
  0
LINE
  8
0
 62
     0
 10
233.313
 20
17.6223
 30
0.0
 11
234.112
 21
17.6223
 31
0.0
  0
LINE
  8
0
 62
     0
 10
234.112
 20
17.6223
 30
0.0
 11
234.112
 21
20.7216
 31
0.0
  0
LINE
  8
0
 62
     0
 10
234.112
 20
20.7216
 30
0.0
 11
233.313
 21
20.7216
 31
0.0
  0
LINE
  8
0
 62
     0
 10
233.313
 20
20.7216
 30
0.0
 11
233.313
 21
21.722
 31
0.0
  0
LINE
  8
0
 62
     0
 10
233.313
 20
21.722
 30
0.0
 11
219.312
 21
21.722
 31
0.0
  0
LINE
  8
0
 62
     0
 10
240.745
 20
21.722
 30
0.0
 11
240.745
 21
20.7216
 31
0.0
  0
LINE
  8
0
 62
     0
 10
240.745
 20
20.7216
 30
0.0
 11
239.944
 21
20.7216
 31
0.0
  0
LINE
  8
0
 62
     0
 10
239.944
 20
20.7216
 30
0.0
 11
239.944
 21
17.6223
 31
0.0
  0
LINE
  8
0
 62
     0
 10
239.944
 20
17.6223
 30
0.0
 11
240.745
 21
17.6223
 31
0.0
  0
LINE
  8
0
 62
     0
 10
240.745
 20
17.6223
 30
0.0
 11
240.745
 21
11.8222
 31
0.0
  0
LINE
  8
0
 62
     0
 10
240.745
 20
11.8222
 30
0.0
 11
239.944
 21
11.8222
 31
0.0
  0
LINE
  8
0
 62
     0
 10
239.944
 20
11.8222
 30
0.0
 11
239.944
 21
8.72162
 31
0.0
  0
LINE
  8
0
 62
     0
 10
239.944
 20
8.72162
 30
0.0
 11
240.745
 21
8.72162
 31
0.0
  0
LINE
  8
0
 62
     0
 10
240.745
 20
8.72162
 30
0.0
 11
240.745
 21
7.72252
 31
0.0
  0
LINE
  8
0
 62
     0
 10
240.745
 20
7.72252
 30
0.0
 11
254.744
 21
7.72252
 31
0.0
  0
LINE
  8
0
 62
     0
 10
254.744
 20
7.72252
 30
0.0
 11
254.744
 21
8.72162
 31
0.0
  0
LINE
  8
0
 62
     0
 10
254.744
 20
8.72162
 30
0.0
 11
255.545
 21
8.72162
 31
0.0
  0
LINE
  8
0
 62
     0
 10
255.545
 20
8.72162
 30
0.0
 11
255.545
 21
11.8222
 31
0.0
  0
LINE
  8
0
 62
     0
 10
255.545
 20
11.8222
 30
0.0
 11
254.744
 21
11.8222
 31
0.0
  0
LINE
  8
0
 62
     0
 10
254.744
 20
11.8222
 30
0.0
 11
254.744
 21
17.6223
 31
0.0
  0
LINE
  8
0
 62
     0
 10
254.744
 20
17.6223
 30
0.0
 11
255.545
 21
17.6223
 31
0.0
  0
LINE
  8
0
 62
     0
 10
255.545
 20
17.6223
 30
0.0
 11
255.545
 21
20.7216
 31
0.0
  0
LINE
  8
0
 62
     0
 10
255.545
 20
20.7216
 30
0.0
 11
254.744
 21
20.7216
 31
0.0
  0
LINE
  8
0
 62
     0
 10
254.744
 20
20.7216
 30
0.0
 11
254.744
 21
21.722
 31
0.0
  0
LINE
  8
0
 62
     0
 10
254.744
 20
21.722
 30
0.0
 11
240.745
 21
21.722
 31
0.0
  0
LINE
  8
0
 62
     0
 10
302.657
 20
36.0094
 30
0.0
 11
302.657
 21
35.0104
 31
0.0
  0
LINE
  8
0
 62
     0
 10
302.657
 20
35.0104
 30
0.0
 11
301.856
 21
35.0104
 31
0.0
  0
LINE
  8
0
 62
     0
 10
301.856
 20
35.0104
 30
0.0
 11
301.856
 21
31.9098
 31
0.0
  0
LINE
  8
0
 62
     0
 10
301.856
 20
31.9098
 30
0.0
 11
302.657
 21
31.9098
 31
0.0
  0
LINE
  8
0
 62
     0
 10
302.657
 20
31.9098
 30
0.0
 11
302.657
 21
26.1097
 31
0.0
  0
LINE
  8
0
 62
     0
 10
302.657
 20
26.1097
 30
0.0
 11
301.856
 21
26.1097
 31
0.0
  0
LINE
  8
0
 62
     0
 10
301.856
 20
26.1097
 30
0.0
 11
301.856
 21
23.0105
 31
0.0
  0
LINE
  8
0
 62
     0
 10
301.856
 20
23.0105
 30
0.0
 11
302.657
 21
23.0105
 31
0.0
  0
LINE
  8
0
 62
     0
 10
302.657
 20
23.0105
 30
0.0
 11
302.657
 21
22.01
 31
0.0
  0
LINE
  8
0
 62
     0
 10
302.657
 20
22.01
 30
0.0
 11
316.657
 21
22.01
 31
0.0
  0
LINE
  8
0
 62
     0
 10
316.657
 20
22.01
 30
0.0
 11
316.657
 21
23.0105
 31
0.0
  0
LINE
  8
0
 62
     0
 10
316.657
 20
23.0105
 30
0.0
 11
317.456
 21
23.0105
 31
0.0
  0
LINE
  8
0
 62
     0
 10
317.456
 20
23.0105
 30
0.0
 11
317.456
 21
26.1097
 31
0.0
  0
LINE
  8
0
 62
     0
 10
317.456
 20
26.1097
 30
0.0
 11
316.657
 21
26.1097
 31
0.0
  0
LINE
  8
0
 62
     0
 10
316.657
 20
26.1097
 30
0.0
 11
316.657
 21
31.9098
 31
0.0
  0
LINE
  8
0
 62
     0
 10
316.657
 20
31.9098
 30
0.0
 11
317.456
 21
31.9098
 31
0.0
  0
LINE
  8
0
 62
     0
 10
317.456
 20
31.9098
 30
0.0
 11
317.456
 21
35.0104
 31
0.0
  0
LINE
  8
0
 62
     0
 10
317.456
 20
35.0104
 30
0.0
 11
316.657
 21
35.0104
 31
0.0
  0
LINE
  8
0
 62
     0
 10
316.657
 20
35.0104
 30
0.0
 11
316.657
 21
36.0094
 31
0.0
  0
LINE
  8
0
 62
     0
 10
316.657
 20
36.0094
 30
0.0
 11
302.657
 21
36.0094
 31
0.0
  0
LINE
  8
0
 62
     0
 10
14.5259
 20
40.7719
 30
0.0
 11
14.5259
 21
39.7715
 31
0.0
  0
LINE
  8
0
 62
     0
 10
14.5259
 20
39.7715
 30
0.0
 11
13.7253
 21
39.7715
 31
0.0
  0
LINE
  8
0
 62
     0
 10
13.7253
 20
39.7715
 30
0.0
 11
13.7253
 21
36.6737
 31
0.0
  0
LINE
  8
0
 62
     0
 10
13.7253
 20
36.6737
 30
0.0
 11
14.5259
 21
36.6737
 31
0.0
  0
LINE
  8
0
 62
     0
 10
14.5259
 20
36.6737
 30
0.0
 11
14.5259
 21
36.0715
 31
0.0
  0
LINE
  8
0
 62
     0
 10
14.5259
 20
36.0715
 30
0.0
 11
13.0004
 21
36.0715
 31
0.0
  0
LINE
  8
0
 62
     0
 10
13.0004
 20
36.0715
 30
0.0
 11
13.0004
 21
39.3016
 31
0.0
  0
LINE
  8
0
 62
     0
 10
13.0004
 20
39.3016
 30
0.0
 11
6.2508
 21
39.3016
 31
0.0
  0
LINE
  8
0
 62
     0
 10
6.2508
 20
39.3016
 30
0.0
 11
6.2508
 21
36.0715
 31
0.0
  0
LINE
  8
0
 62
     0
 10
6.2508
 20
36.0715
 30
0.0
 11
5.42533
 21
36.0715
 31
0.0
  0
LINE
  8
0
 62
     0
 10
5.42533
 20
36.0715
 30
0.0
 11
5.42533
 21
33.2727
 31
0.0
  0
LINE
  8
0
 62
     0
 10
5.42533
 20
33.2727
 30
0.0
 11
6.2508
 21
33.2727
 31
0.0
  0
LINE
  8
0
 62
     0
 10
6.2508
 20
33.2727
 30
0.0
 11
6.2508
 21
27.0027
 31
0.0
  0
LINE
  8
0
 62
     0
 10
6.2508
 20
27.0027
 30
0.0
 11
7.97609
 21
27.0027
 31
0.0
  0
LINE
  8
0
 62
     0
 10
7.97609
 20
27.0027
 30
0.0
 11
7.97609
 21
25.8024
 31
0.0
  0
LINE
  8
0
 62
     0
 10
7.97609
 20
25.8024
 30
0.0
 11
11.2751
 21
25.8024
 31
0.0
  0
LINE
  8
0
 62
     0
 10
11.2751
 20
25.8024
 30
0.0
 11
11.2751
 21
27.0027
 31
0.0
  0
LINE
  8
0
 62
     0
 10
11.2751
 20
27.0027
 30
0.0
 11
13.0004
 21
27.0027
 31
0.0
  0
LINE
  8
0
 62
     0
 10
13.0004
 20
27.0027
 30
0.0
 11
13.0004
 21
31.473
 31
0.0
  0
LINE
  8
0
 62
     0
 10
13.0004
 20
31.473
 30
0.0
 11
14.5259
 21
31.473
 31
0.0
  0
LINE
  8
0
 62
     0
 10
14.5259
 20
31.473
 30
0.0
 11
14.5259
 21
30.8722
 31
0.0
  0
LINE
  8
0
 62
     0
 10
14.5259
 20
30.8722
 30
0.0
 11
13.7253
 21
30.8722
 31
0.0
  0
LINE
  8
0
 62
     0
 10
13.7253
 20
30.8722
 30
0.0
 11
13.7253
 21
27.7716
 31
0.0
  0
LINE
  8
0
 62
     0
 10
13.7253
 20
27.7716
 30
0.0
 11
14.5259
 21
27.7716
 31
0.0
  0
LINE
  8
0
 62
     0
 10
14.5259
 20
27.7716
 30
0.0
 11
14.5259
 21
26.7725
 31
0.0
  0
LINE
  8
0
 62
     0
 10
14.5259
 20
26.7725
 30
0.0
 11
28.5254
 21
26.7725
 31
0.0
  0
LINE
  8
0
 62
     0
 10
28.5254
 20
26.7725
 30
0.0
 11
28.5254
 21
27.7716
 31
0.0
  0
LINE
  8
0
 62
     0
 10
28.5254
 20
27.7716
 30
0.0
 11
29.326
 21
27.7716
 31
0.0
  0
LINE
  8
0
 62
     0
 10
29.326
 20
27.7716
 30
0.0
 11
29.326
 21
30.8722
 31
0.0
  0
LINE
  8
0
 62
     0
 10
29.326
 20
30.8722
 30
0.0
 11
28.5254
 21
30.8722
 31
0.0
  0
LINE
  8
0
 62
     0
 10
28.5254
 20
30.8722
 30
0.0
 11
28.5254
 21
31.473
 31
0.0
  0
LINE
  8
0
 62
     0
 10
28.5254
 20
31.473
 30
0.0
 11
30.0509
 21
31.473
 31
0.0
  0
LINE
  8
0
 62
     0
 10
30.0509
 20
31.473
 30
0.0
 11
30.0509
 21
27.0027
 31
0.0
  0
LINE
  8
0
 62
     0
 10
30.0509
 20
27.0027
 30
0.0
 11
31.7748
 21
27.0027
 31
0.0
  0
LINE
  8
0
 62
     0
 10
31.7748
 20
27.0027
 30
0.0
 11
31.7748
 21
25.8024
 31
0.0
  0
LINE
  8
0
 62
     0
 10
31.7748
 20
25.8024
 30
0.0
 11
35.0752
 21
25.8024
 31
0.0
  0
LINE
  8
0
 62
     0
 10
35.0752
 20
25.8024
 30
0.0
 11
35.0752
 21
27.0027
 31
0.0
  0
LINE
  8
0
 62
     0
 10
35.0752
 20
27.0027
 30
0.0
 11
36.8004
 21
27.0027
 31
0.0
  0
LINE
  8
0
 62
     0
 10
36.8004
 20
27.0027
 30
0.0
 11
36.8004
 21
33.2727
 31
0.0
  0
LINE
  8
0
 62
     0
 10
36.8004
 20
33.2727
 30
0.0
 11
37.6259
 21
33.2727
 31
0.0
  0
LINE
  8
0
 62
     0
 10
37.6259
 20
33.2727
 30
0.0
 11
37.6259
 21
36.0715
 31
0.0
  0
LINE
  8
0
 62
     0
 10
37.6259
 20
36.0715
 30
0.0
 11
36.8004
 21
36.0715
 31
0.0
  0
LINE
  8
0
 62
     0
 10
36.8004
 20
36.0715
 30
0.0
 11
36.8004
 21
39.3016
 31
0.0
  0
LINE
  8
0
 62
     0
 10
36.8004
 20
39.3016
 30
0.0
 11
30.0509
 21
39.3016
 31
0.0
  0
LINE
  8
0
 62
     0
 10
30.0509
 20
39.3016
 30
0.0
 11
30.0509
 21
36.0715
 31
0.0
  0
LINE
  8
0
 62
     0
 10
30.0509
 20
36.0715
 30
0.0
 11
28.5254
 21
36.0715
 31
0.0
  0
LINE
  8
0
 62
     0
 10
28.5254
 20
36.0715
 30
0.0
 11
28.5254
 21
36.6737
 31
0.0
  0
LINE
  8
0
 62
     0
 10
28.5254
 20
36.6737
 30
0.0
 11
29.326
 21
36.6737
 31
0.0
  0
LINE
  8
0
 62
     0
 10
29.326
 20
36.6737
 30
0.0
 11
29.326
 21
39.7715
 31
0.0
  0
LINE
  8
0
 62
     0
 10
29.326
 20
39.7715
 30
0.0
 11
28.5254
 21
39.7715
 31
0.0
  0
LINE
  8
0
 62
     0
 10
28.5254
 20
39.7715
 30
0.0
 11
28.5254
 21
40.7719
 31
0.0
  0
LINE
  8
0
 62
     0
 10
28.5254
 20
40.7719
 30
0.0
 11
14.5259
 21
40.7719
 31
0.0
  0
LINE
  8
0
 62
     0
 10
45.4822
 20
40.7719
 30
0.0
 11
45.4822
 21
39.7715
 31
0.0
  0
LINE
  8
0
 62
     0
 10
45.4822
 20
39.7715
 30
0.0
 11
44.6814
 21
39.7715
 31
0.0
  0
LINE
  8
0
 62
     0
 10
44.6814
 20
39.7715
 30
0.0
 11
44.6814
 21
36.6737
 31
0.0
  0
LINE
  8
0
 62
     0
 10
44.6814
 20
36.6737
 30
0.0
 11
45.4822
 21
36.6737
 31
0.0
  0
LINE
  8
0
 62
     0
 10
45.4822
 20
36.6737
 30
0.0
 11
45.4822
 21
30.8722
 31
0.0
  0
LINE
  8
0
 62
     0
 10
45.4822
 20
30.8722
 30
0.0
 11
44.6814
 21
30.8722
 31
0.0
  0
LINE
  8
0
 62
     0
 10
44.6814
 20
30.8722
 30
0.0
 11
44.6814
 21
27.7716
 31
0.0
  0
LINE
  8
0
 62
     0
 10
44.6814
 20
27.7716
 30
0.0
 11
45.4822
 21
27.7716
 31
0.0
  0
LINE
  8
0
 62
     0
 10
45.4822
 20
27.7716
 30
0.0
 11
45.4822
 21
26.7725
 31
0.0
  0
LINE
  8
0
 62
     0
 10
45.4822
 20
26.7725
 30
0.0
 11
59.4815
 21
26.7725
 31
0.0
  0
LINE
  8
0
 62
     0
 10
59.4815
 20
26.7725
 30
0.0
 11
59.4815
 21
27.7716
 31
0.0
  0
LINE
  8
0
 62
     0
 10
59.4815
 20
27.7716
 30
0.0
 11
60.2809
 21
27.7716
 31
0.0
  0
LINE
  8
0
 62
     0
 10
60.2809
 20
27.7716
 30
0.0
 11
60.2809
 21
30.8722
 31
0.0
  0
LINE
  8
0
 62
     0
 10
60.2809
 20
30.8722
 30
0.0
 11
59.4815
 21
30.8722
 31
0.0
  0
LINE
  8
0
 62
     0
 10
59.4815
 20
30.8722
 30
0.0
 11
59.4815
 21
36.6737
 31
0.0
  0
LINE
  8
0
 62
     0
 10
59.4815
 20
36.6737
 30
0.0
 11
60.2809
 21
36.6737
 31
0.0
  0
LINE
  8
0
 62
     0
 10
60.2809
 20
36.6737
 30
0.0
 11
60.2809
 21
39.7715
 31
0.0
  0
LINE
  8
0
 62
     0
 10
60.2809
 20
39.7715
 30
0.0
 11
59.4815
 21
39.7715
 31
0.0
  0
LINE
  8
0
 62
     0
 10
59.4815
 20
39.7715
 30
0.0
 11
59.4815
 21
40.7719
 31
0.0
  0
LINE
  8
0
 62
     0
 10
59.4815
 20
40.7719
 30
0.0
 11
45.4822
 21
40.7719
 31
0.0
  0
LINE
  8
0
 62
     0
 10
64.5322
 20
40.7719
 30
0.0
 11
64.5322
 21
39.7715
 31
0.0
  0
LINE
  8
0
 62
     0
 10
64.5322
 20
39.7715
 30
0.0
 11
63.7314
 21
39.7715
 31
0.0
  0
LINE
  8
0
 62
     0
 10
63.7314
 20
39.7715
 30
0.0
 11
63.7314
 21
36.6737
 31
0.0
  0
LINE
  8
0
 62
     0
 10
63.7314
 20
36.6737
 30
0.0
 11
64.5322
 21
36.6737
 31
0.0
  0
LINE
  8
0
 62
     0
 10
64.5322
 20
36.6737
 30
0.0
 11
64.5322
 21
30.8722
 31
0.0
  0
LINE
  8
0
 62
     0
 10
64.5322
 20
30.8722
 30
0.0
 11
63.7314
 21
30.8722
 31
0.0
  0
LINE
  8
0
 62
     0
 10
63.7314
 20
30.8722
 30
0.0
 11
63.7314
 21
27.7716
 31
0.0
  0
LINE
  8
0
 62
     0
 10
63.7314
 20
27.7716
 30
0.0
 11
64.5322
 21
27.7716
 31
0.0
  0
LINE
  8
0
 62
     0
 10
64.5322
 20
27.7716
 30
0.0
 11
64.5322
 21
26.7725
 31
0.0
  0
LINE
  8
0
 62
     0
 10
64.5322
 20
26.7725
 30
0.0
 11
78.5315
 21
26.7725
 31
0.0
  0
LINE
  8
0
 62
     0
 10
78.5315
 20
26.7725
 30
0.0
 11
78.5315
 21
27.7716
 31
0.0
  0
LINE
  8
0
 62
     0
 10
78.5315
 20
27.7716
 30
0.0
 11
79.3309
 21
27.7716
 31
0.0
  0
LINE
  8
0
 62
     0
 10
79.3309
 20
27.7716
 30
0.0
 11
79.3309
 21
30.8722
 31
0.0
  0
LINE
  8
0
 62
     0
 10
79.3309
 20
30.8722
 30
0.0
 11
78.5315
 21
30.8722
 31
0.0
  0
LINE
  8
0
 62
     0
 10
78.5315
 20
30.8722
 30
0.0
 11
78.5315
 21
36.6737
 31
0.0
  0
LINE
  8
0
 62
     0
 10
78.5315
 20
36.6737
 30
0.0
 11
79.3309
 21
36.6737
 31
0.0
  0
LINE
  8
0
 62
     0
 10
79.3309
 20
36.6737
 30
0.0
 11
79.3309
 21
39.7715
 31
0.0
  0
LINE
  8
0
 62
     0
 10
79.3309
 20
39.7715
 30
0.0
 11
78.5315
 21
39.7715
 31
0.0
  0
LINE
  8
0
 62
     0
 10
78.5315
 20
39.7715
 30
0.0
 11
78.5315
 21
40.7719
 31
0.0
  0
LINE
  8
0
 62
     0
 10
78.5315
 20
40.7719
 30
0.0
 11
64.5322
 21
40.7719
 31
0.0
  0
LINE
  8
0
 62
     0
 10
83.5822
 20
40.7719
 30
0.0
 11
83.5822
 21
39.7715
 31
0.0
  0
LINE
  8
0
 62
     0
 10
83.5822
 20
39.7715
 30
0.0
 11
82.7814
 21
39.7715
 31
0.0
  0
LINE
  8
0
 62
     0
 10
82.7814
 20
39.7715
 30
0.0
 11
82.7814
 21
36.6737
 31
0.0
  0
LINE
  8
0
 62
     0
 10
82.7814
 20
36.6737
 30
0.0
 11
83.5822
 21
36.6737
 31
0.0
  0
LINE
  8
0
 62
     0
 10
83.5822
 20
36.6737
 30
0.0
 11
83.5822
 21
30.8722
 31
0.0
  0
LINE
  8
0
 62
     0
 10
83.5822
 20
30.8722
 30
0.0
 11
82.7814
 21
30.8722
 31
0.0
  0
LINE
  8
0
 62
     0
 10
82.7814
 20
30.8722
 30
0.0
 11
82.7814
 21
27.7716
 31
0.0
  0
LINE
  8
0
 62
     0
 10
82.7814
 20
27.7716
 30
0.0
 11
83.5822
 21
27.7716
 31
0.0
  0
LINE
  8
0
 62
     0
 10
83.5822
 20
27.7716
 30
0.0
 11
83.5822
 21
26.7725
 31
0.0
  0
LINE
  8
0
 62
     0
 10
83.5822
 20
26.7725
 30
0.0
 11
97.5815
 21
26.7725
 31
0.0
  0
LINE
  8
0
 62
     0
 10
97.5815
 20
26.7725
 30
0.0
 11
97.5815
 21
27.7716
 31
0.0
  0
LINE
  8
0
 62
     0
 10
97.5815
 20
27.7716
 30
0.0
 11
98.3809
 21
27.7716
 31
0.0
  0
LINE
  8
0
 62
     0
 10
98.3809
 20
27.7716
 30
0.0
 11
98.3809
 21
30.8722
 31
0.0
  0
LINE
  8
0
 62
     0
 10
98.3809
 20
30.8722
 30
0.0
 11
97.5815
 21
30.8722
 31
0.0
  0
LINE
  8
0
 62
     0
 10
97.5815
 20
30.8722
 30
0.0
 11
97.5815
 21
36.6737
 31
0.0
  0
LINE
  8
0
 62
     0
 10
97.5815
 20
36.6737
 30
0.0
 11
98.3809
 21
36.6737
 31
0.0
  0
LINE
  8
0
 62
     0
 10
98.3809
 20
36.6737
 30
0.0
 11
98.3809
 21
39.7715
 31
0.0
  0
LINE
  8
0
 62
     0
 10
98.3809
 20
39.7715
 30
0.0
 11
97.5815
 21
39.7715
 31
0.0
  0
LINE
  8
0
 62
     0
 10
97.5815
 20
39.7715
 30
0.0
 11
97.5815
 21
40.7719
 31
0.0
  0
LINE
  8
0
 62
     0
 10
97.5815
 20
40.7719
 30
0.0
 11
83.5822
 21
40.7719
 31
0.0
  0
LINE
  8
0
 62
     0
 10
102.632
 20
40.7719
 30
0.0
 11
102.632
 21
39.7715
 31
0.0
  0
LINE
  8
0
 62
     0
 10
102.632
 20
39.7715
 30
0.0
 11
101.831
 21
39.7715
 31
0.0
  0
LINE
  8
0
 62
     0
 10
101.831
 20
39.7715
 30
0.0
 11
101.831
 21
36.6737
 31
0.0
  0
LINE
  8
0
 62
     0
 10
101.831
 20
36.6737
 30
0.0
 11
102.632
 21
36.6737
 31
0.0
  0
LINE
  8
0
 62
     0
 10
102.632
 20
36.6737
 30
0.0
 11
102.632
 21
30.8722
 31
0.0
  0
LINE
  8
0
 62
     0
 10
102.632
 20
30.8722
 30
0.0
 11
101.831
 21
30.8722
 31
0.0
  0
LINE
  8
0
 62
     0
 10
101.831
 20
30.8722
 30
0.0
 11
101.831
 21
27.7716
 31
0.0
  0
LINE
  8
0
 62
     0
 10
101.831
 20
27.7716
 30
0.0
 11
102.632
 21
27.7716
 31
0.0
  0
LINE
  8
0
 62
     0
 10
102.632
 20
27.7716
 30
0.0
 11
102.632
 21
26.7725
 31
0.0
  0
LINE
  8
0
 62
     0
 10
102.632
 20
26.7725
 30
0.0
 11
116.632
 21
26.7725
 31
0.0
  0
LINE
  8
0
 62
     0
 10
116.632
 20
26.7725
 30
0.0
 11
116.632
 21
27.7716
 31
0.0
  0
LINE
  8
0
 62
     0
 10
116.632
 20
27.7716
 30
0.0
 11
117.431
 21
27.7716
 31
0.0
  0
LINE
  8
0
 62
     0
 10
117.431
 20
27.7716
 30
0.0
 11
117.431
 21
30.8722
 31
0.0
  0
LINE
  8
0
 62
     0
 10
117.431
 20
30.8722
 30
0.0
 11
116.632
 21
30.8722
 31
0.0
  0
LINE
  8
0
 62
     0
 10
116.632
 20
30.8722
 30
0.0
 11
116.632
 21
36.6737
 31
0.0
  0
LINE
  8
0
 62
     0
 10
116.632
 20
36.6737
 30
0.0
 11
117.431
 21
36.6737
 31
0.0
  0
LINE
  8
0
 62
     0
 10
117.431
 20
36.6737
 30
0.0
 11
117.431
 21
39.7715
 31
0.0
  0
LINE
  8
0
 62
     0
 10
117.431
 20
39.7715
 30
0.0
 11
116.632
 21
39.7715
 31
0.0
  0
LINE
  8
0
 62
     0
 10
116.632
 20
39.7715
 30
0.0
 11
116.632
 21
40.7719
 31
0.0
  0
LINE
  8
0
 62
     0
 10
116.632
 20
40.7719
 30
0.0
 11
102.632
 21
40.7719
 31
0.0
  0
LINE
  8
0
 62
     0
 10
121.682
 20
40.7719
 30
0.0
 11
121.682
 21
39.7715
 31
0.0
  0
LINE
  8
0
 62
     0
 10
121.682
 20
39.7715
 30
0.0
 11
120.881
 21
39.7715
 31
0.0
  0
LINE
  8
0
 62
     0
 10
120.881
 20
39.7715
 30
0.0
 11
120.881
 21
36.6737
 31
0.0
  0
LINE
  8
0
 62
     0
 10
120.881
 20
36.6737
 30
0.0
 11
121.682
 21
36.6737
 31
0.0
  0
LINE
  8
0
 62
     0
 10
121.682
 20
36.6737
 30
0.0
 11
121.682
 21
30.8722
 31
0.0
  0
LINE
  8
0
 62
     0
 10
121.682
 20
30.8722
 30
0.0
 11
120.881
 21
30.8722
 31
0.0
  0
LINE
  8
0
 62
     0
 10
120.881
 20
30.8722
 30
0.0
 11
120.881
 21
27.7716
 31
0.0
  0
LINE
  8
0
 62
     0
 10
120.881
 20
27.7716
 30
0.0
 11
121.682
 21
27.7716
 31
0.0
  0
LINE
  8
0
 62
     0
 10
121.682
 20
27.7716
 30
0.0
 11
121.682
 21
26.7725
 31
0.0
  0
LINE
  8
0
 62
     0
 10
121.682
 20
26.7725
 30
0.0
 11
135.682
 21
26.7725
 31
0.0
  0
LINE
  8
0
 62
     0
 10
135.682
 20
26.7725
 30
0.0
 11
135.682
 21
27.7716
 31
0.0
  0
LINE
  8
0
 62
     0
 10
135.682
 20
27.7716
 30
0.0
 11
136.481
 21
27.7716
 31
0.0
  0
LINE
  8
0
 62
     0
 10
136.481
 20
27.7716
 30
0.0
 11
136.481
 21
30.8722
 31
0.0
  0
LINE
  8
0
 62
     0
 10
136.481
 20
30.8722
 30
0.0
 11
135.682
 21
30.8722
 31
0.0
  0
LINE
  8
0
 62
     0
 10
135.682
 20
30.8722
 30
0.0
 11
135.682
 21
36.6737
 31
0.0
  0
LINE
  8
0
 62
     0
 10
135.682
 20
36.6737
 30
0.0
 11
136.481
 21
36.6737
 31
0.0
  0
LINE
  8
0
 62
     0
 10
136.481
 20
36.6737
 30
0.0
 11
136.481
 21
39.7715
 31
0.0
  0
LINE
  8
0
 62
     0
 10
136.481
 20
39.7715
 30
0.0
 11
135.682
 21
39.7715
 31
0.0
  0
LINE
  8
0
 62
     0
 10
135.682
 20
39.7715
 30
0.0
 11
135.682
 21
40.7719
 31
0.0
  0
LINE
  8
0
 62
     0
 10
135.682
 20
40.7719
 30
0.0
 11
121.682
 21
40.7719
 31
0.0
  0
LINE
  8
0
 62
     0
 10
140.732
 20
40.7719
 30
0.0
 11
140.732
 21
39.7715
 31
0.0
  0
LINE
  8
0
 62
     0
 10
140.732
 20
39.7715
 30
0.0
 11
139.931
 21
39.7715
 31
0.0
  0
LINE
  8
0
 62
     0
 10
139.931
 20
39.7715
 30
0.0
 11
139.931
 21
36.6737
 31
0.0
  0
LINE
  8
0
 62
     0
 10
139.931
 20
36.6737
 30
0.0
 11
140.732
 21
36.6737
 31
0.0
  0
LINE
  8
0
 62
     0
 10
140.732
 20
36.6737
 30
0.0
 11
140.732
 21
30.8722
 31
0.0
  0
LINE
  8
0
 62
     0
 10
140.732
 20
30.8722
 30
0.0
 11
139.931
 21
30.8722
 31
0.0
  0
LINE
  8
0
 62
     0
 10
139.931
 20
30.8722
 30
0.0
 11
139.931
 21
27.7716
 31
0.0
  0
LINE
  8
0
 62
     0
 10
139.931
 20
27.7716
 30
0.0
 11
140.732
 21
27.7716
 31
0.0
  0
LINE
  8
0
 62
     0
 10
140.732
 20
27.7716
 30
0.0
 11
140.732
 21
26.7725
 31
0.0
  0
LINE
  8
0
 62
     0
 10
140.732
 20
26.7725
 30
0.0
 11
154.732
 21
26.7725
 31
0.0
  0
LINE
  8
0
 62
     0
 10
154.732
 20
26.7725
 30
0.0
 11
154.732
 21
27.7716
 31
0.0
  0
LINE
  8
0
 62
     0
 10
154.732
 20
27.7716
 30
0.0
 11
155.531
 21
27.7716
 31
0.0
  0
LINE
  8
0
 62
     0
 10
155.531
 20
27.7716
 30
0.0
 11
155.531
 21
30.8722
 31
0.0
  0
LINE
  8
0
 62
     0
 10
155.531
 20
30.8722
 30
0.0
 11
154.732
 21
30.8722
 31
0.0
  0
LINE
  8
0
 62
     0
 10
154.732
 20
30.8722
 30
0.0
 11
154.732
 21
36.6737
 31
0.0
  0
LINE
  8
0
 62
     0
 10
154.732
 20
36.6737
 30
0.0
 11
155.531
 21
36.6737
 31
0.0
  0
LINE
  8
0
 62
     0
 10
155.531
 20
36.6737
 30
0.0
 11
155.531
 21
39.7715
 31
0.0
  0
LINE
  8
0
 62
     0
 10
155.531
 20
39.7715
 30
0.0
 11
154.732
 21
39.7715
 31
0.0
  0
LINE
  8
0
 62
     0
 10
154.732
 20
39.7715
 30
0.0
 11
154.732
 21
40.7719
 31
0.0
  0
LINE
  8
0
 62
     0
 10
154.732
 20
40.7719
 30
0.0
 11
140.732
 21
40.7719
 31
0.0
  0
LINE
  8
0
 62
     0
 10
159.782
 20
40.7719
 30
0.0
 11
159.782
 21
39.7715
 31
0.0
  0
LINE
  8
0
 62
     0
 10
159.782
 20
39.7715
 30
0.0
 11
158.981
 21
39.7715
 31
0.0
  0
LINE
  8
0
 62
     0
 10
158.981
 20
39.7715
 30
0.0
 11
158.981
 21
36.6737
 31
0.0
  0
LINE
  8
0
 62
     0
 10
158.981
 20
36.6737
 30
0.0
 11
159.782
 21
36.6737
 31
0.0
  0
LINE
  8
0
 62
     0
 10
159.782
 20
36.6737
 30
0.0
 11
159.782
 21
30.8722
 31
0.0
  0
LINE
  8
0
 62
     0
 10
159.782
 20
30.8722
 30
0.0
 11
158.981
 21
30.8722
 31
0.0
  0
LINE
  8
0
 62
     0
 10
158.981
 20
30.8722
 30
0.0
 11
158.981
 21
27.7716
 31
0.0
  0
LINE
  8
0
 62
     0
 10
158.981
 20
27.7716
 30
0.0
 11
159.782
 21
27.7716
 31
0.0
  0
LINE
  8
0
 62
     0
 10
159.782
 20
27.7716
 30
0.0
 11
159.782
 21
26.7725
 31
0.0
  0
LINE
  8
0
 62
     0
 10
159.782
 20
26.7725
 30
0.0
 11
173.782
 21
26.7725
 31
0.0
  0
LINE
  8
0
 62
     0
 10
173.782
 20
26.7725
 30
0.0
 11
173.782
 21
27.7716
 31
0.0
  0
LINE
  8
0
 62
     0
 10
173.782
 20
27.7716
 30
0.0
 11
174.581
 21
27.7716
 31
0.0
  0
LINE
  8
0
 62
     0
 10
174.581
 20
27.7716
 30
0.0
 11
174.581
 21
30.8722
 31
0.0
  0
LINE
  8
0
 62
     0
 10
174.581
 20
30.8722
 30
0.0
 11
173.782
 21
30.8722
 31
0.0
  0
LINE
  8
0
 62
     0
 10
173.782
 20
30.8722
 30
0.0
 11
173.782
 21
36.6737
 31
0.0
  0
LINE
  8
0
 62
     0
 10
173.782
 20
36.6737
 30
0.0
 11
174.581
 21
36.6737
 31
0.0
  0
LINE
  8
0
 62
     0
 10
174.581
 20
36.6737
 30
0.0
 11
174.581
 21
39.7715
 31
0.0
  0
LINE
  8
0
 62
     0
 10
174.581
 20
39.7715
 30
0.0
 11
173.782
 21
39.7715
 31
0.0
  0
LINE
  8
0
 62
     0
 10
173.782
 20
39.7715
 30
0.0
 11
173.782
 21
40.7719
 31
0.0
  0
LINE
  8
0
 62
     0
 10
173.782
 20
40.7719
 30
0.0
 11
159.782
 21
40.7719
 31
0.0
  0
LINE
  8
0
 62
     0
 10
178.832
 20
40.7719
 30
0.0
 11
178.832
 21
39.7715
 31
0.0
  0
LINE
  8
0
 62
     0
 10
178.832
 20
39.7715
 30
0.0
 11
178.031
 21
39.7715
 31
0.0
  0
LINE
  8
0
 62
     0
 10
178.031
 20
39.7715
 30
0.0
 11
178.031
 21
36.6737
 31
0.0
  0
LINE
  8
0
 62
     0
 10
178.031
 20
36.6737
 30
0.0
 11
178.832
 21
36.6737
 31
0.0
  0
LINE
  8
0
 62
     0
 10
178.832
 20
36.6737
 30
0.0
 11
178.832
 21
30.8722
 31
0.0
  0
LINE
  8
0
 62
     0
 10
178.832
 20
30.8722
 30
0.0
 11
178.031
 21
30.8722
 31
0.0
  0
LINE
  8
0
 62
     0
 10
178.031
 20
30.8722
 30
0.0
 11
178.031
 21
27.7716
 31
0.0
  0
LINE
  8
0
 62
     0
 10
178.031
 20
27.7716
 30
0.0
 11
178.832
 21
27.7716
 31
0.0
  0
LINE
  8
0
 62
     0
 10
178.832
 20
27.7716
 30
0.0
 11
178.832
 21
26.7725
 31
0.0
  0
LINE
  8
0
 62
     0
 10
178.832
 20
26.7725
 30
0.0
 11
192.832
 21
26.7725
 31
0.0
  0
LINE
  8
0
 62
     0
 10
192.832
 20
26.7725
 30
0.0
 11
192.832
 21
27.7716
 31
0.0
  0
LINE
  8
0
 62
     0
 10
192.832
 20
27.7716
 30
0.0
 11
193.631
 21
27.7716
 31
0.0
  0
LINE
  8
0
 62
     0
 10
193.631
 20
27.7716
 30
0.0
 11
193.631
 21
30.8722
 31
0.0
  0
LINE
  8
0
 62
     0
 10
193.631
 20
30.8722
 30
0.0
 11
192.832
 21
30.8722
 31
0.0
  0
LINE
  8
0
 62
     0
 10
192.832
 20
30.8722
 30
0.0
 11
192.832
 21
36.6737
 31
0.0
  0
LINE
  8
0
 62
     0
 10
192.832
 20
36.6737
 30
0.0
 11
193.631
 21
36.6737
 31
0.0
  0
LINE
  8
0
 62
     0
 10
193.631
 20
36.6737
 30
0.0
 11
193.631
 21
39.7715
 31
0.0
  0
LINE
  8
0
 62
     0
 10
193.631
 20
39.7715
 30
0.0
 11
192.832
 21
39.7715
 31
0.0
  0
LINE
  8
0
 62
     0
 10
192.832
 20
39.7715
 30
0.0
 11
192.832
 21
40.7719
 31
0.0
  0
LINE
  8
0
 62
     0
 10
192.832
 20
40.7719
 30
0.0
 11
178.832
 21
40.7719
 31
0.0
  0
LINE
  8
0
 62
     0
 10
197.882
 20
40.7719
 30
0.0
 11
197.882
 21
39.7715
 31
0.0
  0
LINE
  8
0
 62
     0
 10
197.882
 20
39.7715
 30
0.0
 11
197.081
 21
39.7715
 31
0.0
  0
LINE
  8
0
 62
     0
 10
197.081
 20
39.7715
 30
0.0
 11
197.081
 21
36.6737
 31
0.0
  0
LINE
  8
0
 62
     0
 10
197.081
 20
36.6737
 30
0.0
 11
197.882
 21
36.6737
 31
0.0
  0
LINE
  8
0
 62
     0
 10
197.882
 20
36.6737
 30
0.0
 11
197.882
 21
30.8722
 31
0.0
  0
LINE
  8
0
 62
     0
 10
197.882
 20
30.8722
 30
0.0
 11
197.081
 21
30.8722
 31
0.0
  0
LINE
  8
0
 62
     0
 10
197.081
 20
30.8722
 30
0.0
 11
197.081
 21
27.7716
 31
0.0
  0
LINE
  8
0
 62
     0
 10
197.081
 20
27.7716
 30
0.0
 11
197.882
 21
27.7716
 31
0.0
  0
LINE
  8
0
 62
     0
 10
197.882
 20
27.7716
 30
0.0
 11
197.882
 21
26.7725
 31
0.0
  0
LINE
  8
0
 62
     0
 10
197.882
 20
26.7725
 30
0.0
 11
211.882
 21
26.7725
 31
0.0
  0
LINE
  8
0
 62
     0
 10
211.882
 20
26.7725
 30
0.0
 11
211.882
 21
27.7716
 31
0.0
  0
LINE
  8
0
 62
     0
 10
211.882
 20
27.7716
 30
0.0
 11
212.681
 21
27.7716
 31
0.0
  0
LINE
  8
0
 62
     0
 10
212.681
 20
27.7716
 30
0.0
 11
212.681
 21
30.8722
 31
0.0
  0
LINE
  8
0
 62
     0
 10
212.681
 20
30.8722
 30
0.0
 11
211.882
 21
30.8722
 31
0.0
  0
LINE
  8
0
 62
     0
 10
211.882
 20
30.8722
 30
0.0
 11
211.882
 21
36.6737
 31
0.0
  0
LINE
  8
0
 62
     0
 10
211.882
 20
36.6737
 30
0.0
 11
212.681
 21
36.6737
 31
0.0
  0
LINE
  8
0
 62
     0
 10
212.681
 20
36.6737
 30
0.0
 11
212.681
 21
39.7715
 31
0.0
  0
LINE
  8
0
 62
     0
 10
212.681
 20
39.7715
 30
0.0
 11
211.882
 21
39.7715
 31
0.0
  0
LINE
  8
0
 62
     0
 10
211.882
 20
39.7715
 30
0.0
 11
211.882
 21
40.7719
 31
0.0
  0
LINE
  8
0
 62
     0
 10
211.882
 20
40.7719
 30
0.0
 11
197.882
 21
40.7719
 31
0.0
  0
LINE
  8
0
 62
     0
 10
216.932
 20
40.7719
 30
0.0
 11
216.932
 21
39.7715
 31
0.0
  0
LINE
  8
0
 62
     0
 10
216.932
 20
39.7715
 30
0.0
 11
216.131
 21
39.7715
 31
0.0
  0
LINE
  8
0
 62
     0
 10
216.131
 20
39.7715
 30
0.0
 11
216.131
 21
36.6737
 31
0.0
  0
LINE
  8
0
 62
     0
 10
216.131
 20
36.6737
 30
0.0
 11
216.932
 21
36.6737
 31
0.0
  0
LINE
  8
0
 62
     0
 10
216.932
 20
36.6737
 30
0.0
 11
216.932
 21
30.8722
 31
0.0
  0
LINE
  8
0
 62
     0
 10
216.932
 20
30.8722
 30
0.0
 11
216.131
 21
30.8722
 31
0.0
  0
LINE
  8
0
 62
     0
 10
216.131
 20
30.8722
 30
0.0
 11
216.131
 21
27.7716
 31
0.0
  0
LINE
  8
0
 62
     0
 10
216.131
 20
27.7716
 30
0.0
 11
216.932
 21
27.7716
 31
0.0
  0
LINE
  8
0
 62
     0
 10
216.932
 20
27.7716
 30
0.0
 11
216.932
 21
26.7725
 31
0.0
  0
LINE
  8
0
 62
     0
 10
216.932
 20
26.7725
 30
0.0
 11
230.932
 21
26.7725
 31
0.0
  0
LINE
  8
0
 62
     0
 10
230.932
 20
26.7725
 30
0.0
 11
230.932
 21
27.7716
 31
0.0
  0
LINE
  8
0
 62
     0
 10
230.932
 20
27.7716
 30
0.0
 11
231.731
 21
27.7716
 31
0.0
  0
LINE
  8
0
 62
     0
 10
231.731
 20
27.7716
 30
0.0
 11
231.731
 21
30.8722
 31
0.0
  0
LINE
  8
0
 62
     0
 10
231.731
 20
30.8722
 30
0.0
 11
230.932
 21
30.8722
 31
0.0
  0
LINE
  8
0
 62
     0
 10
230.932
 20
30.8722
 30
0.0
 11
230.932
 21
36.6737
 31
0.0
  0
LINE
  8
0
 62
     0
 10
230.932
 20
36.6737
 30
0.0
 11
231.731
 21
36.6737
 31
0.0
  0
LINE
  8
0
 62
     0
 10
231.731
 20
36.6737
 30
0.0
 11
231.731
 21
39.7715
 31
0.0
  0
LINE
  8
0
 62
     0
 10
231.731
 20
39.7715
 30
0.0
 11
230.932
 21
39.7715
 31
0.0
  0
LINE
  8
0
 62
     0
 10
230.932
 20
39.7715
 30
0.0
 11
230.932
 21
40.7719
 31
0.0
  0
LINE
  8
0
 62
     0
 10
230.932
 20
40.7719
 30
0.0
 11
216.932
 21
40.7719
 31
0.0
  0
LINE
  8
0
 62
     0
 10
243.126
 20
40.7719
 30
0.0
 11
243.126
 21
39.7715
 31
0.0
  0
LINE
  8
0
 62
     0
 10
243.126
 20
39.7715
 30
0.0
 11
242.325
 21
39.7715
 31
0.0
  0
LINE
  8
0
 62
     0
 10
242.325
 20
39.7715
 30
0.0
 11
242.325
 21
36.6737
 31
0.0
  0
LINE
  8
0
 62
     0
 10
242.325
 20
36.6737
 30
0.0
 11
243.126
 21
36.6737
 31
0.0
  0
LINE
  8
0
 62
     0
 10
243.126
 20
36.6737
 30
0.0
 11
243.126
 21
30.8722
 31
0.0
  0
LINE
  8
0
 62
     0
 10
243.126
 20
30.8722
 30
0.0
 11
242.325
 21
30.8722
 31
0.0
  0
LINE
  8
0
 62
     0
 10
242.325
 20
30.8722
 30
0.0
 11
242.325
 21
27.7716
 31
0.0
  0
LINE
  8
0
 62
     0
 10
242.325
 20
27.7716
 30
0.0
 11
243.126
 21
27.7716
 31
0.0
  0
LINE
  8
0
 62
     0
 10
243.126
 20
27.7716
 30
0.0
 11
243.126
 21
26.7725
 31
0.0
  0
LINE
  8
0
 62
     0
 10
243.126
 20
26.7725
 30
0.0
 11
257.125
 21
26.7725
 31
0.0
  0
LINE
  8
0
 62
     0
 10
257.125
 20
26.7725
 30
0.0
 11
257.125
 21
27.7716
 31
0.0
  0
LINE
  8
0
 62
     0
 10
257.125
 20
27.7716
 30
0.0
 11
257.926
 21
27.7716
 31
0.0
  0
LINE
  8
0
 62
     0
 10
257.926
 20
27.7716
 30
0.0
 11
257.926
 21
30.8722
 31
0.0
  0
LINE
  8
0
 62
     0
 10
257.926
 20
30.8722
 30
0.0
 11
257.125
 21
30.8722
 31
0.0
  0
LINE
  8
0
 62
     0
 10
257.125
 20
30.8722
 30
0.0
 11
257.125
 21
36.6737
 31
0.0
  0
LINE
  8
0
 62
     0
 10
257.125
 20
36.6737
 30
0.0
 11
257.926
 21
36.6737
 31
0.0
  0
LINE
  8
0
 62
     0
 10
257.926
 20
36.6737
 30
0.0
 11
257.926
 21
39.7715
 31
0.0
  0
LINE
  8
0
 62
     0
 10
257.926
 20
39.7715
 30
0.0
 11
257.125
 21
39.7715
 31
0.0
  0
LINE
  8
0
 62
     0
 10
257.125
 20
39.7715
 30
0.0
 11
257.125
 21
40.7719
 31
0.0
  0
LINE
  8
0
 62
     0
 10
257.125
 20
40.7719
 30
0.0
 11
243.126
 21
40.7719
 31
0.0
  0
LINE
  8
0
 62
     0
 10
257.412
 20
59.8219
 30
0.0
 11
257.412
 21
58.8215
 31
0.0
  0
LINE
  8
0
 62
     0
 10
257.412
 20
58.8215
 30
0.0
 11
256.611
 21
58.8215
 31
0.0
  0
LINE
  8
0
 62
     0
 10
256.611
 20
58.8215
 30
0.0
 11
256.611
 21
55.7237
 31
0.0
  0
LINE
  8
0
 62
     0
 10
256.611
 20
55.7237
 30
0.0
 11
257.412
 21
55.7237
 31
0.0
  0
LINE
  8
0
 62
     0
 10
257.412
 20
55.7237
 30
0.0
 11
257.412
 21
55.1215
 31
0.0
  0
LINE
  8
0
 62
     0
 10
257.412
 20
55.1215
 30
0.0
 11
255.888
 21
55.1215
 31
0.0
  0
LINE
  8
0
 62
     0
 10
255.888
 20
55.1215
 30
0.0
 11
255.888
 21
58.3516
 31
0.0
  0
LINE
  8
0
 62
     0
 10
255.888
 20
58.3516
 30
0.0
 11
249.137
 21
58.3516
 31
0.0
  0
LINE
  8
0
 62
     0
 10
249.137
 20
58.3516
 30
0.0
 11
249.137
 21
55.1215
 31
0.0
  0
LINE
  8
0
 62
     0
 10
249.137
 20
55.1215
 30
0.0
 11
248.313
 21
55.1215
 31
0.0
  0
LINE
  8
0
 62
     0
 10
248.313
 20
55.1215
 30
0.0
 11
248.313
 21
52.3226
 31
0.0
  0
LINE
  8
0
 62
     0
 10
248.313
 20
52.3226
 30
0.0
 11
249.137
 21
52.3226
 31
0.0
  0
LINE
  8
0
 62
     0
 10
249.137
 20
52.3226
 30
0.0
 11
249.137
 21
46.0527
 31
0.0
  0
LINE
  8
0
 62
     0
 10
249.137
 20
46.0527
 30
0.0
 11
250.862
 21
46.0527
 31
0.0
  0
LINE
  8
0
 62
     0
 10
250.862
 20
46.0527
 30
0.0
 11
250.862
 21
44.8525
 31
0.0
  0
LINE
  8
0
 62
     0
 10
250.862
 20
44.8525
 30
0.0
 11
254.161
 21
44.8525
 31
0.0
  0
LINE
  8
0
 62
     0
 10
254.161
 20
44.8525
 30
0.0
 11
254.161
 21
46.0527
 31
0.0
  0
LINE
  8
0
 62
     0
 10
254.161
 20
46.0527
 30
0.0
 11
255.888
 21
46.0527
 31
0.0
  0
LINE
  8
0
 62
     0
 10
255.888
 20
46.0527
 30
0.0
 11
255.888
 21
50.5217
 31
0.0
  0
LINE
  8
0
 62
     0
 10
255.888
 20
50.5217
 30
0.0
 11
257.412
 21
50.5217
 31
0.0
  0
LINE
  8
0
 62
     0
 10
257.412
 20
50.5217
 30
0.0
 11
257.412
 21
49.9223
 31
0.0
  0
LINE
  8
0
 62
     0
 10
257.412
 20
49.9223
 30
0.0
 11
256.611
 21
49.9223
 31
0.0
  0
LINE
  8
0
 62
     0
 10
256.611
 20
49.9223
 30
0.0
 11
256.611
 21
46.8217
 31
0.0
  0
LINE
  8
0
 62
     0
 10
256.611
 20
46.8217
 30
0.0
 11
257.412
 21
46.8217
 31
0.0
  0
LINE
  8
0
 62
     0
 10
257.412
 20
46.8217
 30
0.0
 11
257.412
 21
45.8227
 31
0.0
  0
LINE
  8
0
 62
     0
 10
257.412
 20
45.8227
 30
0.0
 11
271.413
 21
45.8227
 31
0.0
  0
LINE
  8
0
 62
     0
 10
271.413
 20
45.8227
 30
0.0
 11
271.413
 21
46.8217
 31
0.0
  0
LINE
  8
0
 62
     0
 10
271.413
 20
46.8217
 30
0.0
 11
272.212
 21
46.8217
 31
0.0
  0
LINE
  8
0
 62
     0
 10
272.212
 20
46.8217
 30
0.0
 11
272.212
 21
49.9223
 31
0.0
  0
LINE
  8
0
 62
     0
 10
272.212
 20
49.9223
 30
0.0
 11
271.413
 21
49.9223
 31
0.0
  0
LINE
  8
0
 62
     0
 10
271.413
 20
49.9223
 30
0.0
 11
271.413
 21
50.5217
 31
0.0
  0
LINE
  8
0
 62
     0
 10
271.413
 20
50.5217
 30
0.0
 11
272.937
 21
50.5217
 31
0.0
  0
LINE
  8
0
 62
     0
 10
272.937
 20
50.5217
 30
0.0
 11
272.937
 21
46.0527
 31
0.0
  0
LINE
  8
0
 62
     0
 10
272.937
 20
46.0527
 30
0.0
 11
274.662
 21
46.0527
 31
0.0
  0
LINE
  8
0
 62
     0
 10
274.662
 20
46.0527
 30
0.0
 11
274.662
 21
44.8525
 31
0.0
  0
LINE
  8
0
 62
     0
 10
274.662
 20
44.8525
 30
0.0
 11
277.963
 21
44.8525
 31
0.0
  0
LINE
  8
0
 62
     0
 10
277.963
 20
44.8525
 30
0.0
 11
277.963
 21
46.0527
 31
0.0
  0
LINE
  8
0
 62
     0
 10
277.963
 20
46.0527
 30
0.0
 11
279.688
 21
46.0527
 31
0.0
  0
LINE
  8
0
 62
     0
 10
279.688
 20
46.0527
 30
0.0
 11
279.688
 21
52.3226
 31
0.0
  0
LINE
  8
0
 62
     0
 10
279.688
 20
52.3226
 30
0.0
 11
280.512
 21
52.3226
 31
0.0
  0
LINE
  8
0
 62
     0
 10
280.512
 20
52.3226
 30
0.0
 11
280.512
 21
55.1215
 31
0.0
  0
LINE
  8
0
 62
     0
 10
280.512
 20
55.1215
 30
0.0
 11
279.688
 21
55.1215
 31
0.0
  0
LINE
  8
0
 62
     0
 10
279.688
 20
55.1215
 30
0.0
 11
279.688
 21
58.3516
 31
0.0
  0
LINE
  8
0
 62
     0
 10
279.688
 20
58.3516
 30
0.0
 11
272.937
 21
58.3516
 31
0.0
  0
LINE
  8
0
 62
     0
 10
272.937
 20
58.3516
 30
0.0
 11
272.937
 21
55.1215
 31
0.0
  0
LINE
  8
0
 62
     0
 10
272.937
 20
55.1215
 30
0.0
 11
271.413
 21
55.1215
 31
0.0
  0
LINE
  8
0
 62
     0
 10
271.413
 20
55.1215
 30
0.0
 11
271.413
 21
55.7237
 31
0.0
  0
LINE
  8
0
 62
     0
 10
271.413
 20
55.7237
 30
0.0
 11
272.212
 21
55.7237
 31
0.0
  0
LINE
  8
0
 62
     0
 10
272.212
 20
55.7237
 30
0.0
 11
272.212
 21
58.8215
 31
0.0
  0
LINE
  8
0
 62
     0
 10
272.212
 20
58.8215
 30
0.0
 11
271.413
 21
58.8215
 31
0.0
  0
LINE
  8
0
 62
     0
 10
271.413
 20
58.8215
 30
0.0
 11
271.413
 21
59.8219
 31
0.0
  0
LINE
  8
0
 62
     0
 10
271.413
 20
59.8219
 30
0.0
 11
257.412
 21
59.8219
 31
0.0
  0
LINE
  8
0
 62
     0
 10
9.76203
 20
59.8219
 30
0.0
 11
9.76203
 21
58.8215
 31
0.0
  0
LINE
  8
0
 62
     0
 10
9.76203
 20
58.8215
 30
0.0
 11
8.96278
 21
58.8215
 31
0.0
  0
LINE
  8
0
 62
     0
 10
8.96278
 20
58.8215
 30
0.0
 11
8.96278
 21
55.7237
 31
0.0
  0
LINE
  8
0
 62
     0
 10
8.96278
 20
55.7237
 30
0.0
 11
9.76203
 21
55.7237
 31
0.0
  0
LINE
  8
0
 62
     0
 10
9.76203
 20
55.7237
 30
0.0
 11
9.76203
 21
49.9223
 31
0.0
  0
LINE
  8
0
 62
     0
 10
9.76203
 20
49.9223
 30
0.0
 11
8.96278
 21
49.9223
 31
0.0
  0
LINE
  8
0
 62
     0
 10
8.96278
 20
49.9223
 30
0.0
 11
8.96278
 21
46.8217
 31
0.0
  0
LINE
  8
0
 62
     0
 10
8.96278
 20
46.8217
 30
0.0
 11
9.76203
 21
46.8217
 31
0.0
  0
LINE
  8
0
 62
     0
 10
9.76203
 20
46.8217
 30
0.0
 11
9.76203
 21
45.8227
 31
0.0
  0
LINE
  8
0
 62
     0
 10
9.76203
 20
45.8227
 30
0.0
 11
23.7629
 21
45.8227
 31
0.0
  0
LINE
  8
0
 62
     0
 10
23.7629
 20
45.8227
 30
0.0
 11
23.7629
 21
46.8217
 31
0.0
  0
LINE
  8
0
 62
     0
 10
23.7629
 20
46.8217
 30
0.0
 11
24.5622
 21
46.8217
 31
0.0
  0
LINE
  8
0
 62
     0
 10
24.5622
 20
46.8217
 30
0.0
 11
24.5622
 21
49.9223
 31
0.0
  0
LINE
  8
0
 62
     0
 10
24.5622
 20
49.9223
 30
0.0
 11
23.7629
 21
49.9223
 31
0.0
  0
LINE
  8
0
 62
     0
 10
23.7629
 20
49.9223
 30
0.0
 11
23.7629
 21
55.7237
 31
0.0
  0
LINE
  8
0
 62
     0
 10
23.7629
 20
55.7237
 30
0.0
 11
24.5622
 21
55.7237
 31
0.0
  0
LINE
  8
0
 62
     0
 10
24.5622
 20
55.7237
 30
0.0
 11
24.5622
 21
58.8215
 31
0.0
  0
LINE
  8
0
 62
     0
 10
24.5622
 20
58.8215
 30
0.0
 11
23.7629
 21
58.8215
 31
0.0
  0
LINE
  8
0
 62
     0
 10
23.7629
 20
58.8215
 30
0.0
 11
23.7629
 21
59.8219
 31
0.0
  0
LINE
  8
0
 62
     0
 10
23.7629
 20
59.8219
 30
0.0
 11
9.76203
 21
59.8219
 31
0.0
  0
LINE
  8
0
 62
     0
 10
35.9572
 20
59.8219
 30
0.0
 11
35.9572
 21
58.8215
 31
0.0
  0
LINE
  8
0
 62
     0
 10
35.9572
 20
58.8215
 30
0.0
 11
35.1565
 21
58.8215
 31
0.0
  0
LINE
  8
0
 62
     0
 10
35.1565
 20
58.8215
 30
0.0
 11
35.1565
 21
55.7237
 31
0.0
  0
LINE
  8
0
 62
     0
 10
35.1565
 20
55.7237
 30
0.0
 11
35.9572
 21
55.7237
 31
0.0
  0
LINE
  8
0
 62
     0
 10
35.9572
 20
55.7237
 30
0.0
 11
35.9572
 21
49.9223
 31
0.0
  0
LINE
  8
0
 62
     0
 10
35.9572
 20
49.9223
 30
0.0
 11
35.1565
 21
49.9223
 31
0.0
  0
LINE
  8
0
 62
     0
 10
35.1565
 20
49.9223
 30
0.0
 11
35.1565
 21
46.8217
 31
0.0
  0
LINE
  8
0
 62
     0
 10
35.1565
 20
46.8217
 30
0.0
 11
35.9572
 21
46.8217
 31
0.0
  0
LINE
  8
0
 62
     0
 10
35.9572
 20
46.8217
 30
0.0
 11
35.9572
 21
45.8227
 31
0.0
  0
LINE
  8
0
 62
     0
 10
35.9572
 20
45.8227
 30
0.0
 11
49.9565
 21
45.8227
 31
0.0
  0
LINE
  8
0
 62
     0
 10
49.9565
 20
45.8227
 30
0.0
 11
49.9565
 21
46.8217
 31
0.0
  0
LINE
  8
0
 62
     0
 10
49.9565
 20
46.8217
 30
0.0
 11
50.7559
 21
46.8217
 31
0.0
  0
LINE
  8
0
 62
     0
 10
50.7559
 20
46.8217
 30
0.0
 11
50.7559
 21
49.9223
 31
0.0
  0
LINE
  8
0
 62
     0
 10
50.7559
 20
49.9223
 30
0.0
 11
49.9565
 21
49.9223
 31
0.0
  0
LINE
  8
0
 62
     0
 10
49.9565
 20
49.9223
 30
0.0
 11
49.9565
 21
55.7237
 31
0.0
  0
LINE
  8
0
 62
     0
 10
49.9565
 20
55.7237
 30
0.0
 11
50.7559
 21
55.7237
 31
0.0
  0
LINE
  8
0
 62
     0
 10
50.7559
 20
55.7237
 30
0.0
 11
50.7559
 21
58.8215
 31
0.0
  0
LINE
  8
0
 62
     0
 10
50.7559
 20
58.8215
 30
0.0
 11
49.9565
 21
58.8215
 31
0.0
  0
LINE
  8
0
 62
     0
 10
49.9565
 20
58.8215
 30
0.0
 11
49.9565
 21
59.8219
 31
0.0
  0
LINE
  8
0
 62
     0
 10
49.9565
 20
59.8219
 30
0.0
 11
35.9572
 21
59.8219
 31
0.0
  0
LINE
  8
0
 62
     0
 10
55.0072
 20
59.8219
 30
0.0
 11
55.0072
 21
58.8215
 31
0.0
  0
LINE
  8
0
 62
     0
 10
55.0072
 20
58.8215
 30
0.0
 11
54.2064
 21
58.8215
 31
0.0
  0
LINE
  8
0
 62
     0
 10
54.2064
 20
58.8215
 30
0.0
 11
54.2064
 21
55.7237
 31
0.0
  0
LINE
  8
0
 62
     0
 10
54.2064
 20
55.7237
 30
0.0
 11
55.0072
 21
55.7237
 31
0.0
  0
LINE
  8
0
 62
     0
 10
55.0072
 20
55.7237
 30
0.0
 11
55.0072
 21
49.9223
 31
0.0
  0
LINE
  8
0
 62
     0
 10
55.0072
 20
49.9223
 30
0.0
 11
54.2064
 21
49.9223
 31
0.0
  0
LINE
  8
0
 62
     0
 10
54.2064
 20
49.9223
 30
0.0
 11
54.2064
 21
46.8217
 31
0.0
  0
LINE
  8
0
 62
     0
 10
54.2064
 20
46.8217
 30
0.0
 11
55.0072
 21
46.8217
 31
0.0
  0
LINE
  8
0
 62
     0
 10
55.0072
 20
46.8217
 30
0.0
 11
55.0072
 21
45.8227
 31
0.0
  0
LINE
  8
0
 62
     0
 10
55.0072
 20
45.8227
 30
0.0
 11
69.0065
 21
45.8227
 31
0.0
  0
LINE
  8
0
 62
     0
 10
69.0065
 20
45.8227
 30
0.0
 11
69.0065
 21
46.8217
 31
0.0
  0
LINE
  8
0
 62
     0
 10
69.0065
 20
46.8217
 30
0.0
 11
69.8059
 21
46.8217
 31
0.0
  0
LINE
  8
0
 62
     0
 10
69.8059
 20
46.8217
 30
0.0
 11
69.8059
 21
49.9223
 31
0.0
  0
LINE
  8
0
 62
     0
 10
69.8059
 20
49.9223
 30
0.0
 11
69.0065
 21
49.9223
 31
0.0
  0
LINE
  8
0
 62
     0
 10
69.0065
 20
49.9223
 30
0.0
 11
69.0065
 21
55.7237
 31
0.0
  0
LINE
  8
0
 62
     0
 10
69.0065
 20
55.7237
 30
0.0
 11
69.8059
 21
55.7237
 31
0.0
  0
LINE
  8
0
 62
     0
 10
69.8059
 20
55.7237
 30
0.0
 11
69.8059
 21
58.8215
 31
0.0
  0
LINE
  8
0
 62
     0
 10
69.8059
 20
58.8215
 30
0.0
 11
69.0065
 21
58.8215
 31
0.0
  0
LINE
  8
0
 62
     0
 10
69.0065
 20
58.8215
 30
0.0
 11
69.0065
 21
59.8219
 31
0.0
  0
LINE
  8
0
 62
     0
 10
69.0065
 20
59.8219
 30
0.0
 11
55.0072
 21
59.8219
 31
0.0
  0
LINE
  8
0
 62
     0
 10
74.0572
 20
59.8219
 30
0.0
 11
74.0572
 21
58.8215
 31
0.0
  0
LINE
  8
0
 62
     0
 10
74.0572
 20
58.8215
 30
0.0
 11
73.2564
 21
58.8215
 31
0.0
  0
LINE
  8
0
 62
     0
 10
73.2564
 20
58.8215
 30
0.0
 11
73.2564
 21
55.7237
 31
0.0
  0
LINE
  8
0
 62
     0
 10
73.2564
 20
55.7237
 30
0.0
 11
74.0572
 21
55.7237
 31
0.0
  0
LINE
  8
0
 62
     0
 10
74.0572
 20
55.7237
 30
0.0
 11
74.0572
 21
49.9223
 31
0.0
  0
LINE
  8
0
 62
     0
 10
74.0572
 20
49.9223
 30
0.0
 11
73.2564
 21
49.9223
 31
0.0
  0
LINE
  8
0
 62
     0
 10
73.2564
 20
49.9223
 30
0.0
 11
73.2564
 21
46.8217
 31
0.0
  0
LINE
  8
0
 62
     0
 10
73.2564
 20
46.8217
 30
0.0
 11
74.0572
 21
46.8217
 31
0.0
  0
LINE
  8
0
 62
     0
 10
74.0572
 20
46.8217
 30
0.0
 11
74.0572
 21
45.8227
 31
0.0
  0
LINE
  8
0
 62
     0
 10
74.0572
 20
45.8227
 30
0.0
 11
88.0565
 21
45.8227
 31
0.0
  0
LINE
  8
0
 62
     0
 10
88.0565
 20
45.8227
 30
0.0
 11
88.0565
 21
46.8217
 31
0.0
  0
LINE
  8
0
 62
     0
 10
88.0565
 20
46.8217
 30
0.0
 11
88.8559
 21
46.8217
 31
0.0
  0
LINE
  8
0
 62
     0
 10
88.8559
 20
46.8217
 30
0.0
 11
88.8559
 21
49.9223
 31
0.0
  0
LINE
  8
0
 62
     0
 10
88.8559
 20
49.9223
 30
0.0
 11
88.0565
 21
49.9223
 31
0.0
  0
LINE
  8
0
 62
     0
 10
88.0565
 20
49.9223
 30
0.0
 11
88.0565
 21
55.7237
 31
0.0
  0
LINE
  8
0
 62
     0
 10
88.0565
 20
55.7237
 30
0.0
 11
88.8559
 21
55.7237
 31
0.0
  0
LINE
  8
0
 62
     0
 10
88.8559
 20
55.7237
 30
0.0
 11
88.8559
 21
58.8215
 31
0.0
  0
LINE
  8
0
 62
     0
 10
88.8559
 20
58.8215
 30
0.0
 11
88.0565
 21
58.8215
 31
0.0
  0
LINE
  8
0
 62
     0
 10
88.0565
 20
58.8215
 30
0.0
 11
88.0565
 21
59.8219
 31
0.0
  0
LINE
  8
0
 62
     0
 10
88.0565
 20
59.8219
 30
0.0
 11
74.0572
 21
59.8219
 31
0.0
  0
LINE
  8
0
 62
     0
 10
93.1072
 20
59.8219
 30
0.0
 11
93.1072
 21
58.8215
 31
0.0
  0
LINE
  8
0
 62
     0
 10
93.1072
 20
58.8215
 30
0.0
 11
92.3064
 21
58.8215
 31
0.0
  0
LINE
  8
0
 62
     0
 10
92.3064
 20
58.8215
 30
0.0
 11
92.3064
 21
55.7237
 31
0.0
  0
LINE
  8
0
 62
     0
 10
92.3064
 20
55.7237
 30
0.0
 11
93.1072
 21
55.7237
 31
0.0
  0
LINE
  8
0
 62
     0
 10
93.1072
 20
55.7237
 30
0.0
 11
93.1072
 21
49.9223
 31
0.0
  0
LINE
  8
0
 62
     0
 10
93.1072
 20
49.9223
 30
0.0
 11
92.3064
 21
49.9223
 31
0.0
  0
LINE
  8
0
 62
     0
 10
92.3064
 20
49.9223
 30
0.0
 11
92.3064
 21
46.8217
 31
0.0
  0
LINE
  8
0
 62
     0
 10
92.3064
 20
46.8217
 30
0.0
 11
93.1072
 21
46.8217
 31
0.0
  0
LINE
  8
0
 62
     0
 10
93.1072
 20
46.8217
 30
0.0
 11
93.1072
 21
45.8227
 31
0.0
  0
LINE
  8
0
 62
     0
 10
93.1072
 20
45.8227
 30
0.0
 11
107.107
 21
45.8227
 31
0.0
  0
LINE
  8
0
 62
     0
 10
107.107
 20
45.8227
 30
0.0
 11
107.107
 21
46.8217
 31
0.0
  0
LINE
  8
0
 62
     0
 10
107.107
 20
46.8217
 30
0.0
 11
107.906
 21
46.8217
 31
0.0
  0
LINE
  8
0
 62
     0
 10
107.906
 20
46.8217
 30
0.0
 11
107.906
 21
49.9223
 31
0.0
  0
LINE
  8
0
 62
     0
 10
107.906
 20
49.9223
 30
0.0
 11
107.107
 21
49.9223
 31
0.0
  0
LINE
  8
0
 62
     0
 10
107.107
 20
49.9223
 30
0.0
 11
107.107
 21
55.7237
 31
0.0
  0
LINE
  8
0
 62
     0
 10
107.107
 20
55.7237
 30
0.0
 11
107.906
 21
55.7237
 31
0.0
  0
LINE
  8
0
 62
     0
 10
107.906
 20
55.7237
 30
0.0
 11
107.906
 21
58.8215
 31
0.0
  0
LINE
  8
0
 62
     0
 10
107.906
 20
58.8215
 30
0.0
 11
107.107
 21
58.8215
 31
0.0
  0
LINE
  8
0
 62
     0
 10
107.107
 20
58.8215
 30
0.0
 11
107.107
 21
59.8219
 31
0.0
  0
LINE
  8
0
 62
     0
 10
107.107
 20
59.8219
 30
0.0
 11
93.1072
 21
59.8219
 31
0.0
  0
LINE
  8
0
 62
     0
 10
112.157
 20
59.8219
 30
0.0
 11
112.157
 21
58.8215
 31
0.0
  0
LINE
  8
0
 62
     0
 10
112.157
 20
58.8215
 30
0.0
 11
111.356
 21
58.8215
 31
0.0
  0
LINE
  8
0
 62
     0
 10
111.356
 20
58.8215
 30
0.0
 11
111.356
 21
55.7237
 31
0.0
  0
LINE
  8
0
 62
     0
 10
111.356
 20
55.7237
 30
0.0
 11
112.157
 21
55.7237
 31
0.0
  0
LINE
  8
0
 62
     0
 10
112.157
 20
55.7237
 30
0.0
 11
112.157
 21
49.9223
 31
0.0
  0
LINE
  8
0
 62
     0
 10
112.157
 20
49.9223
 30
0.0
 11
111.356
 21
49.9223
 31
0.0
  0
LINE
  8
0
 62
     0
 10
111.356
 20
49.9223
 30
0.0
 11
111.356
 21
46.8217
 31
0.0
  0
LINE
  8
0
 62
     0
 10
111.356
 20
46.8217
 30
0.0
 11
112.157
 21
46.8217
 31
0.0
  0
LINE
  8
0
 62
     0
 10
112.157
 20
46.8217
 30
0.0
 11
112.157
 21
45.8227
 31
0.0
  0
LINE
  8
0
 62
     0
 10
112.157
 20
45.8227
 30
0.0
 11
126.157
 21
45.8227
 31
0.0
  0
LINE
  8
0
 62
     0
 10
126.157
 20
45.8227
 30
0.0
 11
126.157
 21
46.8217
 31
0.0
  0
LINE
  8
0
 62
     0
 10
126.157
 20
46.8217
 30
0.0
 11
126.956
 21
46.8217
 31
0.0
  0
LINE
  8
0
 62
     0
 10
126.956
 20
46.8217
 30
0.0
 11
126.956
 21
49.9223
 31
0.0
  0
LINE
  8
0
 62
     0
 10
126.956
 20
49.9223
 30
0.0
 11
126.157
 21
49.9223
 31
0.0
  0
LINE
  8
0
 62
     0
 10
126.157
 20
49.9223
 30
0.0
 11
126.157
 21
55.7237
 31
0.0
  0
LINE
  8
0
 62
     0
 10
126.157
 20
55.7237
 30
0.0
 11
126.956
 21
55.7237
 31
0.0
  0
LINE
  8
0
 62
     0
 10
126.956
 20
55.7237
 30
0.0
 11
126.956
 21
58.8215
 31
0.0
  0
LINE
  8
0
 62
     0
 10
126.956
 20
58.8215
 30
0.0
 11
126.157
 21
58.8215
 31
0.0
  0
LINE
  8
0
 62
     0
 10
126.157
 20
58.8215
 30
0.0
 11
126.157
 21
59.8219
 31
0.0
  0
LINE
  8
0
 62
     0
 10
126.157
 20
59.8219
 30
0.0
 11
112.157
 21
59.8219
 31
0.0
  0
LINE
  8
0
 62
     0
 10
131.207
 20
59.8219
 30
0.0
 11
131.207
 21
58.8215
 31
0.0
  0
LINE
  8
0
 62
     0
 10
131.207
 20
58.8215
 30
0.0
 11
130.406
 21
58.8215
 31
0.0
  0
LINE
  8
0
 62
     0
 10
130.406
 20
58.8215
 30
0.0
 11
130.406
 21
55.7237
 31
0.0
  0
LINE
  8
0
 62
     0
 10
130.406
 20
55.7237
 30
0.0
 11
131.207
 21
55.7237
 31
0.0
  0
LINE
  8
0
 62
     0
 10
131.207
 20
55.7237
 30
0.0
 11
131.207
 21
49.9223
 31
0.0
  0
LINE
  8
0
 62
     0
 10
131.207
 20
49.9223
 30
0.0
 11
130.406
 21
49.9223
 31
0.0
  0
LINE
  8
0
 62
     0
 10
130.406
 20
49.9223
 30
0.0
 11
130.406
 21
46.8217
 31
0.0
  0
LINE
  8
0
 62
     0
 10
130.406
 20
46.8217
 30
0.0
 11
131.207
 21
46.8217
 31
0.0
  0
LINE
  8
0
 62
     0
 10
131.207
 20
46.8217
 30
0.0
 11
131.207
 21
45.8227
 31
0.0
  0
LINE
  8
0
 62
     0
 10
131.207
 20
45.8227
 30
0.0
 11
145.207
 21
45.8227
 31
0.0
  0
LINE
  8
0
 62
     0
 10
145.207
 20
45.8227
 30
0.0
 11
145.207
 21
46.8217
 31
0.0
  0
LINE
  8
0
 62
     0
 10
145.207
 20
46.8217
 30
0.0
 11
146.006
 21
46.8217
 31
0.0
  0
LINE
  8
0
 62
     0
 10
146.006
 20
46.8217
 30
0.0
 11
146.006
 21
49.9223
 31
0.0
  0
LINE
  8
0
 62
     0
 10
146.006
 20
49.9223
 30
0.0
 11
145.207
 21
49.9223
 31
0.0
  0
LINE
  8
0
 62
     0
 10
145.207
 20
49.9223
 30
0.0
 11
145.207
 21
55.7237
 31
0.0
  0
LINE
  8
0
 62
     0
 10
145.207
 20
55.7237
 30
0.0
 11
146.006
 21
55.7237
 31
0.0
  0
LINE
  8
0
 62
     0
 10
146.006
 20
55.7237
 30
0.0
 11
146.006
 21
58.8215
 31
0.0
  0
LINE
  8
0
 62
     0
 10
146.006
 20
58.8215
 30
0.0
 11
145.207
 21
58.8215
 31
0.0
  0
LINE
  8
0
 62
     0
 10
145.207
 20
58.8215
 30
0.0
 11
145.207
 21
59.8219
 31
0.0
  0
LINE
  8
0
 62
     0
 10
145.207
 20
59.8219
 30
0.0
 11
131.207
 21
59.8219
 31
0.0
  0
LINE
  8
0
 62
     0
 10
150.257
 20
59.8219
 30
0.0
 11
150.257
 21
58.8215
 31
0.0
  0
LINE
  8
0
 62
     0
 10
150.257
 20
58.8215
 30
0.0
 11
149.456
 21
58.8215
 31
0.0
  0
LINE
  8
0
 62
     0
 10
149.456
 20
58.8215
 30
0.0
 11
149.456
 21
55.7237
 31
0.0
  0
LINE
  8
0
 62
     0
 10
149.456
 20
55.7237
 30
0.0
 11
150.257
 21
55.7237
 31
0.0
  0
LINE
  8
0
 62
     0
 10
150.257
 20
55.7237
 30
0.0
 11
150.257
 21
49.9223
 31
0.0
  0
LINE
  8
0
 62
     0
 10
150.257
 20
49.9223
 30
0.0
 11
149.456
 21
49.9223
 31
0.0
  0
LINE
  8
0
 62
     0
 10
149.456
 20
49.9223
 30
0.0
 11
149.456
 21
46.8217
 31
0.0
  0
LINE
  8
0
 62
     0
 10
149.456
 20
46.8217
 30
0.0
 11
150.257
 21
46.8217
 31
0.0
  0
LINE
  8
0
 62
     0
 10
150.257
 20
46.8217
 30
0.0
 11
150.257
 21
45.8227
 31
0.0
  0
LINE
  8
0
 62
     0
 10
150.257
 20
45.8227
 30
0.0
 11
164.257
 21
45.8227
 31
0.0
  0
LINE
  8
0
 62
     0
 10
164.257
 20
45.8227
 30
0.0
 11
164.257
 21
46.8217
 31
0.0
  0
LINE
  8
0
 62
     0
 10
164.257
 20
46.8217
 30
0.0
 11
165.056
 21
46.8217
 31
0.0
  0
LINE
  8
0
 62
     0
 10
165.056
 20
46.8217
 30
0.0
 11
165.056
 21
49.9223
 31
0.0
  0
LINE
  8
0
 62
     0
 10
165.056
 20
49.9223
 30
0.0
 11
164.257
 21
49.9223
 31
0.0
  0
LINE
  8
0
 62
     0
 10
164.257
 20
49.9223
 30
0.0
 11
164.257
 21
55.7237
 31
0.0
  0
LINE
  8
0
 62
     0
 10
164.257
 20
55.7237
 30
0.0
 11
165.056
 21
55.7237
 31
0.0
  0
LINE
  8
0
 62
     0
 10
165.056
 20
55.7237
 30
0.0
 11
165.056
 21
58.8215
 31
0.0
  0
LINE
  8
0
 62
     0
 10
165.056
 20
58.8215
 30
0.0
 11
164.257
 21
58.8215
 31
0.0
  0
LINE
  8
0
 62
     0
 10
164.257
 20
58.8215
 30
0.0
 11
164.257
 21
59.8219
 31
0.0
  0
LINE
  8
0
 62
     0
 10
164.257
 20
59.8219
 30
0.0
 11
150.257
 21
59.8219
 31
0.0
  0
LINE
  8
0
 62
     0
 10
169.307
 20
59.8219
 30
0.0
 11
169.307
 21
58.8215
 31
0.0
  0
LINE
  8
0
 62
     0
 10
169.307
 20
58.8215
 30
0.0
 11
168.506
 21
58.8215
 31
0.0
  0
LINE
  8
0
 62
     0
 10
168.506
 20
58.8215
 30
0.0
 11
168.506
 21
55.7237
 31
0.0
  0
LINE
  8
0
 62
     0
 10
168.506
 20
55.7237
 30
0.0
 11
169.307
 21
55.7237
 31
0.0
  0
LINE
  8
0
 62
     0
 10
169.307
 20
55.7237
 30
0.0
 11
169.307
 21
49.9223
 31
0.0
  0
LINE
  8
0
 62
     0
 10
169.307
 20
49.9223
 30
0.0
 11
168.506
 21
49.9223
 31
0.0
  0
LINE
  8
0
 62
     0
 10
168.506
 20
49.9223
 30
0.0
 11
168.506
 21
46.8217
 31
0.0
  0
LINE
  8
0
 62
     0
 10
168.506
 20
46.8217
 30
0.0
 11
169.307
 21
46.8217
 31
0.0
  0
LINE
  8
0
 62
     0
 10
169.307
 20
46.8217
 30
0.0
 11
169.307
 21
45.8227
 31
0.0
  0
LINE
  8
0
 62
     0
 10
169.307
 20
45.8227
 30
0.0
 11
183.307
 21
45.8227
 31
0.0
  0
LINE
  8
0
 62
     0
 10
183.307
 20
45.8227
 30
0.0
 11
183.307
 21
46.8217
 31
0.0
  0
LINE
  8
0
 62
     0
 10
183.307
 20
46.8217
 30
0.0
 11
184.106
 21
46.8217
 31
0.0
  0
LINE
  8
0
 62
     0
 10
184.106
 20
46.8217
 30
0.0
 11
184.106
 21
49.9223
 31
0.0
  0
LINE
  8
0
 62
     0
 10
184.106
 20
49.9223
 30
0.0
 11
183.307
 21
49.9223
 31
0.0
  0
LINE
  8
0
 62
     0
 10
183.307
 20
49.9223
 30
0.0
 11
183.307
 21
55.7237
 31
0.0
  0
LINE
  8
0
 62
     0
 10
183.307
 20
55.7237
 30
0.0
 11
184.106
 21
55.7237
 31
0.0
  0
LINE
  8
0
 62
     0
 10
184.106
 20
55.7237
 30
0.0
 11
184.106
 21
58.8215
 31
0.0
  0
LINE
  8
0
 62
     0
 10
184.106
 20
58.8215
 30
0.0
 11
183.307
 21
58.8215
 31
0.0
  0
LINE
  8
0
 62
     0
 10
183.307
 20
58.8215
 30
0.0
 11
183.307
 21
59.8219
 31
0.0
  0
LINE
  8
0
 62
     0
 10
183.307
 20
59.8219
 30
0.0
 11
169.307
 21
59.8219
 31
0.0
  0
LINE
  8
0
 62
     0
 10
188.357
 20
59.8219
 30
0.0
 11
188.357
 21
58.8215
 31
0.0
  0
LINE
  8
0
 62
     0
 10
188.357
 20
58.8215
 30
0.0
 11
187.556
 21
58.8215
 31
0.0
  0
LINE
  8
0
 62
     0
 10
187.556
 20
58.8215
 30
0.0
 11
187.556
 21
55.7237
 31
0.0
  0
LINE
  8
0
 62
     0
 10
187.556
 20
55.7237
 30
0.0
 11
188.357
 21
55.7237
 31
0.0
  0
LINE
  8
0
 62
     0
 10
188.357
 20
55.7237
 30
0.0
 11
188.357
 21
49.9223
 31
0.0
  0
LINE
  8
0
 62
     0
 10
188.357
 20
49.9223
 30
0.0
 11
187.556
 21
49.9223
 31
0.0
  0
LINE
  8
0
 62
     0
 10
187.556
 20
49.9223
 30
0.0
 11
187.556
 21
46.8217
 31
0.0
  0
LINE
  8
0
 62
     0
 10
187.556
 20
46.8217
 30
0.0
 11
188.357
 21
46.8217
 31
0.0
  0
LINE
  8
0
 62
     0
 10
188.357
 20
46.8217
 30
0.0
 11
188.357
 21
45.8227
 31
0.0
  0
LINE
  8
0
 62
     0
 10
188.357
 20
45.8227
 30
0.0
 11
202.357
 21
45.8227
 31
0.0
  0
LINE
  8
0
 62
     0
 10
202.357
 20
45.8227
 30
0.0
 11
202.357
 21
46.8217
 31
0.0
  0
LINE
  8
0
 62
     0
 10
202.357
 20
46.8217
 30
0.0
 11
203.156
 21
46.8217
 31
0.0
  0
LINE
  8
0
 62
     0
 10
203.156
 20
46.8217
 30
0.0
 11
203.156
 21
49.9223
 31
0.0
  0
LINE
  8
0
 62
     0
 10
203.156
 20
49.9223
 30
0.0
 11
202.357
 21
49.9223
 31
0.0
  0
LINE
  8
0
 62
     0
 10
202.357
 20
49.9223
 30
0.0
 11
202.357
 21
55.7237
 31
0.0
  0
LINE
  8
0
 62
     0
 10
202.357
 20
55.7237
 30
0.0
 11
203.156
 21
55.7237
 31
0.0
  0
LINE
  8
0
 62
     0
 10
203.156
 20
55.7237
 30
0.0
 11
203.156
 21
58.8215
 31
0.0
  0
LINE
  8
0
 62
     0
 10
203.156
 20
58.8215
 30
0.0
 11
202.357
 21
58.8215
 31
0.0
  0
LINE
  8
0
 62
     0
 10
202.357
 20
58.8215
 30
0.0
 11
202.357
 21
59.8219
 31
0.0
  0
LINE
  8
0
 62
     0
 10
202.357
 20
59.8219
 30
0.0
 11
188.357
 21
59.8219
 31
0.0
  0
LINE
  8
0
 62
     0
 10
207.407
 20
59.8219
 30
0.0
 11
207.407
 21
58.8215
 31
0.0
  0
LINE
  8
0
 62
     0
 10
207.407
 20
58.8215
 30
0.0
 11
206.606
 21
58.8215
 31
0.0
  0
LINE
  8
0
 62
     0
 10
206.606
 20
58.8215
 30
0.0
 11
206.606
 21
55.7237
 31
0.0
  0
LINE
  8
0
 62
     0
 10
206.606
 20
55.7237
 30
0.0
 11
207.407
 21
55.7237
 31
0.0
  0
LINE
  8
0
 62
     0
 10
207.407
 20
55.7237
 30
0.0
 11
207.407
 21
49.9223
 31
0.0
  0
LINE
  8
0
 62
     0
 10
207.407
 20
49.9223
 30
0.0
 11
206.606
 21
49.9223
 31
0.0
  0
LINE
  8
0
 62
     0
 10
206.606
 20
49.9223
 30
0.0
 11
206.606
 21
46.8217
 31
0.0
  0
LINE
  8
0
 62
     0
 10
206.606
 20
46.8217
 30
0.0
 11
207.407
 21
46.8217
 31
0.0
  0
LINE
  8
0
 62
     0
 10
207.407
 20
46.8217
 30
0.0
 11
207.407
 21
45.8227
 31
0.0
  0
LINE
  8
0
 62
     0
 10
207.407
 20
45.8227
 30
0.0
 11
221.407
 21
45.8227
 31
0.0
  0
LINE
  8
0
 62
     0
 10
221.407
 20
45.8227
 30
0.0
 11
221.407
 21
46.8217
 31
0.0
  0
LINE
  8
0
 62
     0
 10
221.407
 20
46.8217
 30
0.0
 11
222.206
 21
46.8217
 31
0.0
  0
LINE
  8
0
 62
     0
 10
222.206
 20
46.8217
 30
0.0
 11
222.206
 21
49.9223
 31
0.0
  0
LINE
  8
0
 62
     0
 10
222.206
 20
49.9223
 30
0.0
 11
221.407
 21
49.9223
 31
0.0
  0
LINE
  8
0
 62
     0
 10
221.407
 20
49.9223
 30
0.0
 11
221.407
 21
55.7237
 31
0.0
  0
LINE
  8
0
 62
     0
 10
221.407
 20
55.7237
 30
0.0
 11
222.206
 21
55.7237
 31
0.0
  0
LINE
  8
0
 62
     0
 10
222.206
 20
55.7237
 30
0.0
 11
222.206
 21
58.8215
 31
0.0
  0
LINE
  8
0
 62
     0
 10
222.206
 20
58.8215
 30
0.0
 11
221.407
 21
58.8215
 31
0.0
  0
LINE
  8
0
 62
     0
 10
221.407
 20
58.8215
 30
0.0
 11
221.407
 21
59.8219
 31
0.0
  0
LINE
  8
0
 62
     0
 10
221.407
 20
59.8219
 30
0.0
 11
207.407
 21
59.8219
 31
0.0
  0
LINE
  8
0
 62
     0
 10
226.457
 20
59.8219
 30
0.0
 11
226.457
 21
58.8215
 31
0.0
  0
LINE
  8
0
 62
     0
 10
226.457
 20
58.8215
 30
0.0
 11
225.656
 21
58.8215
 31
0.0
  0
LINE
  8
0
 62
     0
 10
225.656
 20
58.8215
 30
0.0
 11
225.656
 21
55.7237
 31
0.0
  0
LINE
  8
0
 62
     0
 10
225.656
 20
55.7237
 30
0.0
 11
226.457
 21
55.7237
 31
0.0
  0
LINE
  8
0
 62
     0
 10
226.457
 20
55.7237
 30
0.0
 11
226.457
 21
49.9223
 31
0.0
  0
LINE
  8
0
 62
     0
 10
226.457
 20
49.9223
 30
0.0
 11
225.656
 21
49.9223
 31
0.0
  0
LINE
  8
0
 62
     0
 10
225.656
 20
49.9223
 30
0.0
 11
225.656
 21
46.8217
 31
0.0
  0
LINE
  8
0
 62
     0
 10
225.656
 20
46.8217
 30
0.0
 11
226.457
 21
46.8217
 31
0.0
  0
LINE
  8
0
 62
     0
 10
226.457
 20
46.8217
 30
0.0
 11
226.457
 21
45.8227
 31
0.0
  0
LINE
  8
0
 62
     0
 10
226.457
 20
45.8227
 30
0.0
 11
240.457
 21
45.8227
 31
0.0
  0
LINE
  8
0
 62
     0
 10
240.457
 20
45.8227
 30
0.0
 11
240.457
 21
46.8217
 31
0.0
  0
LINE
  8
0
 62
     0
 10
240.457
 20
46.8217
 30
0.0
 11
241.256
 21
46.8217
 31
0.0
  0
LINE
  8
0
 62
     0
 10
241.256
 20
46.8217
 30
0.0
 11
241.256
 21
49.9223
 31
0.0
  0
LINE
  8
0
 62
     0
 10
241.256
 20
49.9223
 30
0.0
 11
240.457
 21
49.9223
 31
0.0
  0
LINE
  8
0
 62
     0
 10
240.457
 20
49.9223
 30
0.0
 11
240.457
 21
55.7237
 31
0.0
  0
LINE
  8
0
 62
     0
 10
240.457
 20
55.7237
 30
0.0
 11
241.256
 21
55.7237
 31
0.0
  0
LINE
  8
0
 62
     0
 10
241.256
 20
55.7237
 30
0.0
 11
241.256
 21
58.8215
 31
0.0
  0
LINE
  8
0
 62
     0
 10
241.256
 20
58.8215
 30
0.0
 11
240.457
 21
58.8215
 31
0.0
  0
LINE
  8
0
 62
     0
 10
240.457
 20
58.8215
 30
0.0
 11
240.457
 21
59.8219
 31
0.0
  0
LINE
  8
0
 62
     0
 10
240.457
 20
59.8219
 30
0.0
 11
226.457
 21
59.8219
 31
0.0
  0
LINE
  8
0
 62
     0
 10
293.132
 20
59.8219
 30
0.0
 11
293.132
 21
58.8215
 31
0.0
  0
LINE
  8
0
 62
     0
 10
293.132
 20
58.8215
 30
0.0
 11
292.331
 21
58.8215
 31
0.0
  0
LINE
  8
0
 62
     0
 10
292.331
 20
58.8215
 30
0.0
 11
292.331
 21
55.7237
 31
0.0
  0
LINE
  8
0
 62
     0
 10
292.331
 20
55.7237
 30
0.0
 11
293.132
 21
55.7237
 31
0.0
  0
LINE
  8
0
 62
     0
 10
293.132
 20
55.7237
 30
0.0
 11
293.132
 21
49.9223
 31
0.0
  0
LINE
  8
0
 62
     0
 10
293.132
 20
49.9223
 30
0.0
 11
292.331
 21
49.9223
 31
0.0
  0
LINE
  8
0
 62
     0
 10
292.331
 20
49.9223
 30
0.0
 11
292.331
 21
46.8217
 31
0.0
  0
LINE
  8
0
 62
     0
 10
292.331
 20
46.8217
 30
0.0
 11
293.132
 21
46.8217
 31
0.0
  0
LINE
  8
0
 62
     0
 10
293.132
 20
46.8217
 30
0.0
 11
293.132
 21
45.8227
 31
0.0
  0
LINE
  8
0
 62
     0
 10
293.132
 20
45.8227
 30
0.0
 11
307.132
 21
45.8227
 31
0.0
  0
LINE
  8
0
 62
     0
 10
307.132
 20
45.8227
 30
0.0
 11
307.132
 21
46.8217
 31
0.0
  0
LINE
  8
0
 62
     0
 10
307.132
 20
46.8217
 30
0.0
 11
307.931
 21
46.8217
 31
0.0
  0
LINE
  8
0
 62
     0
 10
307.931
 20
46.8217
 30
0.0
 11
307.931
 21
49.9223
 31
0.0
  0
LINE
  8
0
 62
     0
 10
307.931
 20
49.9223
 30
0.0
 11
307.132
 21
49.9223
 31
0.0
  0
LINE
  8
0
 62
     0
 10
307.132
 20
49.9223
 30
0.0
 11
307.132
 21
55.7237
 31
0.0
  0
LINE
  8
0
 62
     0
 10
307.132
 20
55.7237
 30
0.0
 11
307.931
 21
55.7237
 31
0.0
  0
LINE
  8
0
 62
     0
 10
307.931
 20
55.7237
 30
0.0
 11
307.931
 21
58.8215
 31
0.0
  0
LINE
  8
0
 62
     0
 10
307.931
 20
58.8215
 30
0.0
 11
307.132
 21
58.8215
 31
0.0
  0
LINE
  8
0
 62
     0
 10
307.132
 20
58.8215
 30
0.0
 11
307.132
 21
59.8219
 31
0.0
  0
LINE
  8
0
 62
     0
 10
307.132
 20
59.8219
 30
0.0
 11
293.132
 21
59.8219
 31
0.0
  0
LINE
  8
0
 62
     0
 10
312.182
 20
59.8219
 30
0.0
 11
312.182
 21
58.8215
 31
0.0
  0
LINE
  8
0
 62
     0
 10
312.182
 20
58.8215
 30
0.0
 11
311.381
 21
58.8215
 31
0.0
  0
LINE
  8
0
 62
     0
 10
311.381
 20
58.8215
 30
0.0
 11
311.381
 21
55.7237
 31
0.0
  0
LINE
  8
0
 62
     0
 10
311.381
 20
55.7237
 30
0.0
 11
312.182
 21
55.7237
 31
0.0
  0
LINE
  8
0
 62
     0
 10
312.182
 20
55.7237
 30
0.0
 11
312.182
 21
49.9223
 31
0.0
  0
LINE
  8
0
 62
     0
 10
312.182
 20
49.9223
 30
0.0
 11
311.381
 21
49.9223
 31
0.0
  0
LINE
  8
0
 62
     0
 10
311.381
 20
49.9223
 30
0.0
 11
311.381
 21
46.8217
 31
0.0
  0
LINE
  8
0
 62
     0
 10
311.381
 20
46.8217
 30
0.0
 11
312.182
 21
46.8217
 31
0.0
  0
LINE
  8
0
 62
     0
 10
312.182
 20
46.8217
 30
0.0
 11
312.182
 21
45.8227
 31
0.0
  0
LINE
  8
0
 62
     0
 10
312.182
 20
45.8227
 30
0.0
 11
326.182
 21
45.8227
 31
0.0
  0
LINE
  8
0
 62
     0
 10
326.182
 20
45.8227
 30
0.0
 11
326.182
 21
46.8217
 31
0.0
  0
LINE
  8
0
 62
     0
 10
326.182
 20
46.8217
 30
0.0
 11
326.981
 21
46.8217
 31
0.0
  0
LINE
  8
0
 62
     0
 10
326.981
 20
46.8217
 30
0.0
 11
326.981
 21
49.9223
 31
0.0
  0
LINE
  8
0
 62
     0
 10
326.981
 20
49.9223
 30
0.0
 11
326.182
 21
49.9223
 31
0.0
  0
LINE
  8
0
 62
     0
 10
326.182
 20
49.9223
 30
0.0
 11
326.182
 21
55.7237
 31
0.0
  0
LINE
  8
0
 62
     0
 10
326.182
 20
55.7237
 30
0.0
 11
326.981
 21
55.7237
 31
0.0
  0
LINE
  8
0
 62
     0
 10
326.981
 20
55.7237
 30
0.0
 11
326.981
 21
58.8215
 31
0.0
  0
LINE
  8
0
 62
     0
 10
326.981
 20
58.8215
 30
0.0
 11
326.182
 21
58.8215
 31
0.0
  0
LINE
  8
0
 62
     0
 10
326.182
 20
58.8215
 30
0.0
 11
326.182
 21
59.8219
 31
0.0
  0
LINE
  8
0
 62
     0
 10
326.182
 20
59.8219
 30
0.0
 11
312.182
 21
59.8219
 31
0.0
  0
LINE
  8
0
 62
     0
 10
7.38216
 20
78.8719
 30
0.0
 11
7.38216
 21
77.8715
 31
0.0
  0
LINE
  8
0
 62
     0
 10
7.38216
 20
77.8715
 30
0.0
 11
6.58153
 21
77.8715
 31
0.0
  0
LINE
  8
0
 62
     0
 10
6.58153
 20
77.8715
 30
0.0
 11
6.58153
 21
74.7723
 31
0.0
  0
LINE
  8
0
 62
     0
 10
6.58153
 20
74.7723
 30
0.0
 11
7.38216
 21
74.7723
 31
0.0
  0
LINE
  8
0
 62
     0
 10
7.38216
 20
74.7723
 30
0.0
 11
7.38216
 21
68.9723
 31
0.0
  0
LINE
  8
0
 62
     0
 10
7.38216
 20
68.9723
 30
0.0
 11
6.58153
 21
68.9723
 31
0.0
  0
LINE
  8
0
 62
     0
 10
6.58153
 20
68.9723
 30
0.0
 11
6.58153
 21
65.8717
 31
0.0
  0
LINE
  8
0
 62
     0
 10
6.58153
 20
65.8717
 30
0.0
 11
7.38216
 21
65.8717
 31
0.0
  0
LINE
  8
0
 62
     0
 10
7.38216
 20
65.8717
 30
0.0
 11
7.38216
 21
64.8727
 31
0.0
  0
LINE
  8
0
 62
     0
 10
7.38216
 20
64.8727
 30
0.0
 11
21.3817
 21
64.8727
 31
0.0
  0
LINE
  8
0
 62
     0
 10
21.3817
 20
64.8727
 30
0.0
 11
21.3817
 21
65.8717
 31
0.0
  0
LINE
  8
0
 62
     0
 10
21.3817
 20
65.8717
 30
0.0
 11
22.1809
 21
65.8717
 31
0.0
  0
LINE
  8
0
 62
     0
 10
22.1809
 20
65.8717
 30
0.0
 11
22.1809
 21
68.9723
 31
0.0
  0
LINE
  8
0
 62
     0
 10
22.1809
 20
68.9723
 30
0.0
 11
21.3817
 21
68.9723
 31
0.0
  0
LINE
  8
0
 62
     0
 10
21.3817
 20
68.9723
 30
0.0
 11
21.3817
 21
74.7723
 31
0.0
  0
LINE
  8
0
 62
     0
 10
21.3817
 20
74.7723
 30
0.0
 11
22.1809
 21
74.7723
 31
0.0
  0
LINE
  8
0
 62
     0
 10
22.1809
 20
74.7723
 30
0.0
 11
22.1809
 21
77.8715
 31
0.0
  0
LINE
  8
0
 62
     0
 10
22.1809
 20
77.8715
 30
0.0
 11
21.3817
 21
77.8715
 31
0.0
  0
LINE
  8
0
 62
     0
 10
21.3817
 20
77.8715
 30
0.0
 11
21.3817
 21
78.8719
 31
0.0
  0
LINE
  8
0
 62
     0
 10
21.3817
 20
78.8719
 30
0.0
 11
7.38216
 21
78.8719
 31
0.0
  0
LINE
  8
0
 62
     0
 10
31.1947
 20
78.8719
 30
0.0
 11
31.1947
 21
77.8715
 31
0.0
  0
LINE
  8
0
 62
     0
 10
31.1947
 20
77.8715
 30
0.0
 11
30.394
 21
77.8715
 31
0.0
  0
LINE
  8
0
 62
     0
 10
30.394
 20
77.8715
 30
0.0
 11
30.394
 21
74.7723
 31
0.0
  0
LINE
  8
0
 62
     0
 10
30.394
 20
74.7723
 30
0.0
 11
31.1947
 21
74.7723
 31
0.0
  0
LINE
  8
0
 62
     0
 10
31.1947
 20
74.7723
 30
0.0
 11
31.1947
 21
68.9723
 31
0.0
  0
LINE
  8
0
 62
     0
 10
31.1947
 20
68.9723
 30
0.0
 11
30.394
 21
68.9723
 31
0.0
  0
LINE
  8
0
 62
     0
 10
30.394
 20
68.9723
 30
0.0
 11
30.394
 21
65.8717
 31
0.0
  0
LINE
  8
0
 62
     0
 10
30.394
 20
65.8717
 30
0.0
 11
31.1947
 21
65.8717
 31
0.0
  0
LINE
  8
0
 62
     0
 10
31.1947
 20
65.8717
 30
0.0
 11
31.1947
 21
64.8727
 31
0.0
  0
LINE
  8
0
 62
     0
 10
31.1947
 20
64.8727
 30
0.0
 11
45.194
 21
64.8727
 31
0.0
  0
LINE
  8
0
 62
     0
 10
45.194
 20
64.8727
 30
0.0
 11
45.194
 21
65.8717
 31
0.0
  0
LINE
  8
0
 62
     0
 10
45.194
 20
65.8717
 30
0.0
 11
45.9948
 21
65.8717
 31
0.0
  0
LINE
  8
0
 62
     0
 10
45.9948
 20
65.8717
 30
0.0
 11
45.9948
 21
68.9723
 31
0.0
  0
LINE
  8
0
 62
     0
 10
45.9948
 20
68.9723
 30
0.0
 11
45.194
 21
68.9723
 31
0.0
  0
LINE
  8
0
 62
     0
 10
45.194
 20
68.9723
 30
0.0
 11
45.194
 21
74.7723
 31
0.0
  0
LINE
  8
0
 62
     0
 10
45.194
 20
74.7723
 30
0.0
 11
45.9948
 21
74.7723
 31
0.0
  0
LINE
  8
0
 62
     0
 10
45.9948
 20
74.7723
 30
0.0
 11
45.9948
 21
77.8715
 31
0.0
  0
LINE
  8
0
 62
     0
 10
45.9948
 20
77.8715
 30
0.0
 11
45.194
 21
77.8715
 31
0.0
  0
LINE
  8
0
 62
     0
 10
45.194
 20
77.8715
 30
0.0
 11
45.194
 21
78.8719
 31
0.0
  0
LINE
  8
0
 62
     0
 10
45.194
 20
78.8719
 30
0.0
 11
31.1947
 21
78.8719
 31
0.0
  0
LINE
  8
0
 62
     0
 10
50.2447
 20
78.8719
 30
0.0
 11
50.2447
 21
77.8715
 31
0.0
  0
LINE
  8
0
 62
     0
 10
50.2447
 20
77.8715
 30
0.0
 11
49.4439
 21
77.8715
 31
0.0
  0
LINE
  8
0
 62
     0
 10
49.4439
 20
77.8715
 30
0.0
 11
49.4439
 21
74.7723
 31
0.0
  0
LINE
  8
0
 62
     0
 10
49.4439
 20
74.7723
 30
0.0
 11
50.2447
 21
74.7723
 31
0.0
  0
LINE
  8
0
 62
     0
 10
50.2447
 20
74.7723
 30
0.0
 11
50.2447
 21
68.9723
 31
0.0
  0
LINE
  8
0
 62
     0
 10
50.2447
 20
68.9723
 30
0.0
 11
49.4439
 21
68.9723
 31
0.0
  0
LINE
  8
0
 62
     0
 10
49.4439
 20
68.9723
 30
0.0
 11
49.4439
 21
65.8717
 31
0.0
  0
LINE
  8
0
 62
     0
 10
49.4439
 20
65.8717
 30
0.0
 11
50.2447
 21
65.8717
 31
0.0
  0
LINE
  8
0
 62
     0
 10
50.2447
 20
65.8717
 30
0.0
 11
50.2447
 21
64.8727
 31
0.0
  0
LINE
  8
0
 62
     0
 10
50.2447
 20
64.8727
 30
0.0
 11
64.244
 21
64.8727
 31
0.0
  0
LINE
  8
0
 62
     0
 10
64.244
 20
64.8727
 30
0.0
 11
64.244
 21
65.8717
 31
0.0
  0
LINE
  8
0
 62
     0
 10
64.244
 20
65.8717
 30
0.0
 11
65.0448
 21
65.8717
 31
0.0
  0
LINE
  8
0
 62
     0
 10
65.0448
 20
65.8717
 30
0.0
 11
65.0448
 21
68.9723
 31
0.0
  0
LINE
  8
0
 62
     0
 10
65.0448
 20
68.9723
 30
0.0
 11
64.244
 21
68.9723
 31
0.0
  0
LINE
  8
0
 62
     0
 10
64.244
 20
68.9723
 30
0.0
 11
64.244
 21
74.7723
 31
0.0
  0
LINE
  8
0
 62
     0
 10
64.244
 20
74.7723
 30
0.0
 11
65.0448
 21
74.7723
 31
0.0
  0
LINE
  8
0
 62
     0
 10
65.0448
 20
74.7723
 30
0.0
 11
65.0448
 21
77.8715
 31
0.0
  0
LINE
  8
0
 62
     0
 10
65.0448
 20
77.8715
 30
0.0
 11
64.244
 21
77.8715
 31
0.0
  0
LINE
  8
0
 62
     0
 10
64.244
 20
77.8715
 30
0.0
 11
64.244
 21
78.8719
 31
0.0
  0
LINE
  8
0
 62
     0
 10
64.244
 20
78.8719
 30
0.0
 11
50.2447
 21
78.8719
 31
0.0
  0
LINE
  8
0
 62
     0
 10
69.2947
 20
78.8719
 30
0.0
 11
69.2947
 21
77.8715
 31
0.0
  0
LINE
  8
0
 62
     0
 10
69.2947
 20
77.8715
 30
0.0
 11
68.4939
 21
77.8715
 31
0.0
  0
LINE
  8
0
 62
     0
 10
68.4939
 20
77.8715
 30
0.0
 11
68.4939
 21
74.7723
 31
0.0
  0
LINE
  8
0
 62
     0
 10
68.4939
 20
74.7723
 30
0.0
 11
69.2947
 21
74.7723
 31
0.0
  0
LINE
  8
0
 62
     0
 10
69.2947
 20
74.7723
 30
0.0
 11
69.2947
 21
68.9723
 31
0.0
  0
LINE
  8
0
 62
     0
 10
69.2947
 20
68.9723
 30
0.0
 11
68.4939
 21
68.9723
 31
0.0
  0
LINE
  8
0
 62
     0
 10
68.4939
 20
68.9723
 30
0.0
 11
68.4939
 21
65.8717
 31
0.0
  0
LINE
  8
0
 62
     0
 10
68.4939
 20
65.8717
 30
0.0
 11
69.2947
 21
65.8717
 31
0.0
  0
LINE
  8
0
 62
     0
 10
69.2947
 20
65.8717
 30
0.0
 11
69.2947
 21
64.8727
 31
0.0
  0
LINE
  8
0
 62
     0
 10
69.2947
 20
64.8727
 30
0.0
 11
83.294
 21
64.8727
 31
0.0
  0
LINE
  8
0
 62
     0
 10
83.294
 20
64.8727
 30
0.0
 11
83.294
 21
65.8717
 31
0.0
  0
LINE
  8
0
 62
     0
 10
83.294
 20
65.8717
 30
0.0
 11
84.0948
 21
65.8717
 31
0.0
  0
LINE
  8
0
 62
     0
 10
84.0948
 20
65.8717
 30
0.0
 11
84.0948
 21
68.9723
 31
0.0
  0
LINE
  8
0
 62
     0
 10
84.0948
 20
68.9723
 30
0.0
 11
83.294
 21
68.9723
 31
0.0
  0
LINE
  8
0
 62
     0
 10
83.294
 20
68.9723
 30
0.0
 11
83.294
 21
74.7723
 31
0.0
  0
LINE
  8
0
 62
     0
 10
83.294
 20
74.7723
 30
0.0
 11
84.0948
 21
74.7723
 31
0.0
  0
LINE
  8
0
 62
     0
 10
84.0948
 20
74.7723
 30
0.0
 11
84.0948
 21
77.8715
 31
0.0
  0
LINE
  8
0
 62
     0
 10
84.0948
 20
77.8715
 30
0.0
 11
83.294
 21
77.8715
 31
0.0
  0
LINE
  8
0
 62
     0
 10
83.294
 20
77.8715
 30
0.0
 11
83.294
 21
78.8719
 31
0.0
  0
LINE
  8
0
 62
     0
 10
83.294
 20
78.8719
 30
0.0
 11
69.2947
 21
78.8719
 31
0.0
  0
LINE
  8
0
 62
     0
 10
88.3447
 20
78.8719
 30
0.0
 11
88.3447
 21
77.8715
 31
0.0
  0
LINE
  8
0
 62
     0
 10
88.3447
 20
77.8715
 30
0.0
 11
87.5439
 21
77.8715
 31
0.0
  0
LINE
  8
0
 62
     0
 10
87.5439
 20
77.8715
 30
0.0
 11
87.5439
 21
74.7723
 31
0.0
  0
LINE
  8
0
 62
     0
 10
87.5439
 20
74.7723
 30
0.0
 11
88.3447
 21
74.7723
 31
0.0
  0
LINE
  8
0
 62
     0
 10
88.3447
 20
74.7723
 30
0.0
 11
88.3447
 21
68.9723
 31
0.0
  0
LINE
  8
0
 62
     0
 10
88.3447
 20
68.9723
 30
0.0
 11
87.5439
 21
68.9723
 31
0.0
  0
LINE
  8
0
 62
     0
 10
87.5439
 20
68.9723
 30
0.0
 11
87.5439
 21
65.8717
 31
0.0
  0
LINE
  8
0
 62
     0
 10
87.5439
 20
65.8717
 30
0.0
 11
88.3447
 21
65.8717
 31
0.0
  0
LINE
  8
0
 62
     0
 10
88.3447
 20
65.8717
 30
0.0
 11
88.3447
 21
64.8727
 31
0.0
  0
LINE
  8
0
 62
     0
 10
88.3447
 20
64.8727
 30
0.0
 11
102.344
 21
64.8727
 31
0.0
  0
LINE
  8
0
 62
     0
 10
102.344
 20
64.8727
 30
0.0
 11
102.344
 21
65.8717
 31
0.0
  0
LINE
  8
0
 62
     0
 10
102.344
 20
65.8717
 30
0.0
 11
103.145
 21
65.8717
 31
0.0
  0
LINE
  8
0
 62
     0
 10
103.145
 20
65.8717
 30
0.0
 11
103.145
 21
68.9723
 31
0.0
  0
LINE
  8
0
 62
     0
 10
103.145
 20
68.9723
 30
0.0
 11
102.344
 21
68.9723
 31
0.0
  0
LINE
  8
0
 62
     0
 10
102.344
 20
68.9723
 30
0.0
 11
102.344
 21
74.7723
 31
0.0
  0
LINE
  8
0
 62
     0
 10
102.344
 20
74.7723
 30
0.0
 11
103.145
 21
74.7723
 31
0.0
  0
LINE
  8
0
 62
     0
 10
103.145
 20
74.7723
 30
0.0
 11
103.145
 21
77.8715
 31
0.0
  0
LINE
  8
0
 62
     0
 10
103.145
 20
77.8715
 30
0.0
 11
102.344
 21
77.8715
 31
0.0
  0
LINE
  8
0
 62
     0
 10
102.344
 20
77.8715
 30
0.0
 11
102.344
 21
78.8719
 31
0.0
  0
LINE
  8
0
 62
     0
 10
102.344
 20
78.8719
 30
0.0
 11
88.3447
 21
78.8719
 31
0.0
  0
LINE
  8
0
 62
     0
 10
107.395
 20
78.8719
 30
0.0
 11
107.395
 21
77.8715
 31
0.0
  0
LINE
  8
0
 62
     0
 10
107.395
 20
77.8715
 30
0.0
 11
106.594
 21
77.8715
 31
0.0
  0
LINE
  8
0
 62
     0
 10
106.594
 20
77.8715
 30
0.0
 11
106.594
 21
74.7723
 31
0.0
  0
LINE
  8
0
 62
     0
 10
106.594
 20
74.7723
 30
0.0
 11
107.395
 21
74.7723
 31
0.0
  0
LINE
  8
0
 62
     0
 10
107.395
 20
74.7723
 30
0.0
 11
107.395
 21
68.9723
 31
0.0
  0
LINE
  8
0
 62
     0
 10
107.395
 20
68.9723
 30
0.0
 11
106.594
 21
68.9723
 31
0.0
  0
LINE
  8
0
 62
     0
 10
106.594
 20
68.9723
 30
0.0
 11
106.594
 21
65.8717
 31
0.0
  0
LINE
  8
0
 62
     0
 10
106.594
 20
65.8717
 30
0.0
 11
107.395
 21
65.8717
 31
0.0
  0
LINE
  8
0
 62
     0
 10
107.395
 20
65.8717
 30
0.0
 11
107.395
 21
64.8727
 31
0.0
  0
LINE
  8
0
 62
     0
 10
107.395
 20
64.8727
 30
0.0
 11
121.394
 21
64.8727
 31
0.0
  0
LINE
  8
0
 62
     0
 10
121.394
 20
64.8727
 30
0.0
 11
121.394
 21
65.8717
 31
0.0
  0
LINE
  8
0
 62
     0
 10
121.394
 20
65.8717
 30
0.0
 11
122.195
 21
65.8717
 31
0.0
  0
LINE
  8
0
 62
     0
 10
122.195
 20
65.8717
 30
0.0
 11
122.195
 21
68.9723
 31
0.0
  0
LINE
  8
0
 62
     0
 10
122.195
 20
68.9723
 30
0.0
 11
121.394
 21
68.9723
 31
0.0
  0
LINE
  8
0
 62
     0
 10
121.394
 20
68.9723
 30
0.0
 11
121.394
 21
74.7723
 31
0.0
  0
LINE
  8
0
 62
     0
 10
121.394
 20
74.7723
 30
0.0
 11
122.195
 21
74.7723
 31
0.0
  0
LINE
  8
0
 62
     0
 10
122.195
 20
74.7723
 30
0.0
 11
122.195
 21
77.8715
 31
0.0
  0
LINE
  8
0
 62
     0
 10
122.195
 20
77.8715
 30
0.0
 11
121.394
 21
77.8715
 31
0.0
  0
LINE
  8
0
 62
     0
 10
121.394
 20
77.8715
 30
0.0
 11
121.394
 21
78.8719
 31
0.0
  0
LINE
  8
0
 62
     0
 10
121.394
 20
78.8719
 30
0.0
 11
107.395
 21
78.8719
 31
0.0
  0
LINE
  8
0
 62
     0
 10
126.445
 20
78.8719
 30
0.0
 11
126.445
 21
77.8715
 31
0.0
  0
LINE
  8
0
 62
     0
 10
126.445
 20
77.8715
 30
0.0
 11
125.644
 21
77.8715
 31
0.0
  0
LINE
  8
0
 62
     0
 10
125.644
 20
77.8715
 30
0.0
 11
125.644
 21
74.7723
 31
0.0
  0
LINE
  8
0
 62
     0
 10
125.644
 20
74.7723
 30
0.0
 11
126.445
 21
74.7723
 31
0.0
  0
LINE
  8
0
 62
     0
 10
126.445
 20
74.7723
 30
0.0
 11
126.445
 21
68.9723
 31
0.0
  0
LINE
  8
0
 62
     0
 10
126.445
 20
68.9723
 30
0.0
 11
125.644
 21
68.9723
 31
0.0
  0
LINE
  8
0
 62
     0
 10
125.644
 20
68.9723
 30
0.0
 11
125.644
 21
65.8717
 31
0.0
  0
LINE
  8
0
 62
     0
 10
125.644
 20
65.8717
 30
0.0
 11
126.445
 21
65.8717
 31
0.0
  0
LINE
  8
0
 62
     0
 10
126.445
 20
65.8717
 30
0.0
 11
126.445
 21
64.8727
 31
0.0
  0
LINE
  8
0
 62
     0
 10
126.445
 20
64.8727
 30
0.0
 11
140.444
 21
64.8727
 31
0.0
  0
LINE
  8
0
 62
     0
 10
140.444
 20
64.8727
 30
0.0
 11
140.444
 21
65.8717
 31
0.0
  0
LINE
  8
0
 62
     0
 10
140.444
 20
65.8717
 30
0.0
 11
141.245
 21
65.8717
 31
0.0
  0
LINE
  8
0
 62
     0
 10
141.245
 20
65.8717
 30
0.0
 11
141.245
 21
68.9723
 31
0.0
  0
LINE
  8
0
 62
     0
 10
141.245
 20
68.9723
 30
0.0
 11
140.444
 21
68.9723
 31
0.0
  0
LINE
  8
0
 62
     0
 10
140.444
 20
68.9723
 30
0.0
 11
140.444
 21
74.7723
 31
0.0
  0
LINE
  8
0
 62
     0
 10
140.444
 20
74.7723
 30
0.0
 11
141.245
 21
74.7723
 31
0.0
  0
LINE
  8
0
 62
     0
 10
141.245
 20
74.7723
 30
0.0
 11
141.245
 21
77.8715
 31
0.0
  0
LINE
  8
0
 62
     0
 10
141.245
 20
77.8715
 30
0.0
 11
140.444
 21
77.8715
 31
0.0
  0
LINE
  8
0
 62
     0
 10
140.444
 20
77.8715
 30
0.0
 11
140.444
 21
78.8719
 31
0.0
  0
LINE
  8
0
 62
     0
 10
140.444
 20
78.8719
 30
0.0
 11
126.445
 21
78.8719
 31
0.0
  0
LINE
  8
0
 62
     0
 10
145.495
 20
78.8719
 30
0.0
 11
145.495
 21
77.8715
 31
0.0
  0
LINE
  8
0
 62
     0
 10
145.495
 20
77.8715
 30
0.0
 11
144.694
 21
77.8715
 31
0.0
  0
LINE
  8
0
 62
     0
 10
144.694
 20
77.8715
 30
0.0
 11
144.694
 21
74.7723
 31
0.0
  0
LINE
  8
0
 62
     0
 10
144.694
 20
74.7723
 30
0.0
 11
145.495
 21
74.7723
 31
0.0
  0
LINE
  8
0
 62
     0
 10
145.495
 20
74.7723
 30
0.0
 11
145.495
 21
68.9723
 31
0.0
  0
LINE
  8
0
 62
     0
 10
145.495
 20
68.9723
 30
0.0
 11
144.694
 21
68.9723
 31
0.0
  0
LINE
  8
0
 62
     0
 10
144.694
 20
68.9723
 30
0.0
 11
144.694
 21
65.8717
 31
0.0
  0
LINE
  8
0
 62
     0
 10
144.694
 20
65.8717
 30
0.0
 11
145.495
 21
65.8717
 31
0.0
  0
LINE
  8
0
 62
     0
 10
145.495
 20
65.8717
 30
0.0
 11
145.495
 21
64.8727
 31
0.0
  0
LINE
  8
0
 62
     0
 10
145.495
 20
64.8727
 30
0.0
 11
159.494
 21
64.8727
 31
0.0
  0
LINE
  8
0
 62
     0
 10
159.494
 20
64.8727
 30
0.0
 11
159.494
 21
65.8717
 31
0.0
  0
LINE
  8
0
 62
     0
 10
159.494
 20
65.8717
 30
0.0
 11
160.295
 21
65.8717
 31
0.0
  0
LINE
  8
0
 62
     0
 10
160.295
 20
65.8717
 30
0.0
 11
160.295
 21
68.9723
 31
0.0
  0
LINE
  8
0
 62
     0
 10
160.295
 20
68.9723
 30
0.0
 11
159.494
 21
68.9723
 31
0.0
  0
LINE
  8
0
 62
     0
 10
159.494
 20
68.9723
 30
0.0
 11
159.494
 21
74.7723
 31
0.0
  0
LINE
  8
0
 62
     0
 10
159.494
 20
74.7723
 30
0.0
 11
160.295
 21
74.7723
 31
0.0
  0
LINE
  8
0
 62
     0
 10
160.295
 20
74.7723
 30
0.0
 11
160.295
 21
77.8715
 31
0.0
  0
LINE
  8
0
 62
     0
 10
160.295
 20
77.8715
 30
0.0
 11
159.494
 21
77.8715
 31
0.0
  0
LINE
  8
0
 62
     0
 10
159.494
 20
77.8715
 30
0.0
 11
159.494
 21
78.8719
 31
0.0
  0
LINE
  8
0
 62
     0
 10
159.494
 20
78.8719
 30
0.0
 11
145.495
 21
78.8719
 31
0.0
  0
LINE
  8
0
 62
     0
 10
164.545
 20
78.8719
 30
0.0
 11
164.545
 21
77.8715
 31
0.0
  0
LINE
  8
0
 62
     0
 10
164.545
 20
77.8715
 30
0.0
 11
163.744
 21
77.8715
 31
0.0
  0
LINE
  8
0
 62
     0
 10
163.744
 20
77.8715
 30
0.0
 11
163.744
 21
74.7723
 31
0.0
  0
LINE
  8
0
 62
     0
 10
163.744
 20
74.7723
 30
0.0
 11
164.545
 21
74.7723
 31
0.0
  0
LINE
  8
0
 62
     0
 10
164.545
 20
74.7723
 30
0.0
 11
164.545
 21
68.9723
 31
0.0
  0
LINE
  8
0
 62
     0
 10
164.545
 20
68.9723
 30
0.0
 11
163.744
 21
68.9723
 31
0.0
  0
LINE
  8
0
 62
     0
 10
163.744
 20
68.9723
 30
0.0
 11
163.744
 21
65.8717
 31
0.0
  0
LINE
  8
0
 62
     0
 10
163.744
 20
65.8717
 30
0.0
 11
164.545
 21
65.8717
 31
0.0
  0
LINE
  8
0
 62
     0
 10
164.545
 20
65.8717
 30
0.0
 11
164.545
 21
64.8727
 31
0.0
  0
LINE
  8
0
 62
     0
 10
164.545
 20
64.8727
 30
0.0
 11
178.544
 21
64.8727
 31
0.0
  0
LINE
  8
0
 62
     0
 10
178.544
 20
64.8727
 30
0.0
 11
178.544
 21
65.8717
 31
0.0
  0
LINE
  8
0
 62
     0
 10
178.544
 20
65.8717
 30
0.0
 11
179.345
 21
65.8717
 31
0.0
  0
LINE
  8
0
 62
     0
 10
179.345
 20
65.8717
 30
0.0
 11
179.345
 21
68.9723
 31
0.0
  0
LINE
  8
0
 62
     0
 10
179.345
 20
68.9723
 30
0.0
 11
178.544
 21
68.9723
 31
0.0
  0
LINE
  8
0
 62
     0
 10
178.544
 20
68.9723
 30
0.0
 11
178.544
 21
74.7723
 31
0.0
  0
LINE
  8
0
 62
     0
 10
178.544
 20
74.7723
 30
0.0
 11
179.345
 21
74.7723
 31
0.0
  0
LINE
  8
0
 62
     0
 10
179.345
 20
74.7723
 30
0.0
 11
179.345
 21
77.8715
 31
0.0
  0
LINE
  8
0
 62
     0
 10
179.345
 20
77.8715
 30
0.0
 11
178.544
 21
77.8715
 31
0.0
  0
LINE
  8
0
 62
     0
 10
178.544
 20
77.8715
 30
0.0
 11
178.544
 21
78.8719
 31
0.0
  0
LINE
  8
0
 62
     0
 10
178.544
 20
78.8719
 30
0.0
 11
164.545
 21
78.8719
 31
0.0
  0
LINE
  8
0
 62
     0
 10
183.595
 20
78.8719
 30
0.0
 11
183.595
 21
77.8715
 31
0.0
  0
LINE
  8
0
 62
     0
 10
183.595
 20
77.8715
 30
0.0
 11
182.794
 21
77.8715
 31
0.0
  0
LINE
  8
0
 62
     0
 10
182.794
 20
77.8715
 30
0.0
 11
182.794
 21
74.7723
 31
0.0
  0
LINE
  8
0
 62
     0
 10
182.794
 20
74.7723
 30
0.0
 11
183.595
 21
74.7723
 31
0.0
  0
LINE
  8
0
 62
     0
 10
183.595
 20
74.7723
 30
0.0
 11
183.595
 21
68.9723
 31
0.0
  0
LINE
  8
0
 62
     0
 10
183.595
 20
68.9723
 30
0.0
 11
182.794
 21
68.9723
 31
0.0
  0
LINE
  8
0
 62
     0
 10
182.794
 20
68.9723
 30
0.0
 11
182.794
 21
65.8717
 31
0.0
  0
LINE
  8
0
 62
     0
 10
182.794
 20
65.8717
 30
0.0
 11
183.595
 21
65.8717
 31
0.0
  0
LINE
  8
0
 62
     0
 10
183.595
 20
65.8717
 30
0.0
 11
183.595
 21
64.8727
 31
0.0
  0
LINE
  8
0
 62
     0
 10
183.595
 20
64.8727
 30
0.0
 11
197.594
 21
64.8727
 31
0.0
  0
LINE
  8
0
 62
     0
 10
197.594
 20
64.8727
 30
0.0
 11
197.594
 21
65.8717
 31
0.0
  0
LINE
  8
0
 62
     0
 10
197.594
 20
65.8717
 30
0.0
 11
198.395
 21
65.8717
 31
0.0
  0
LINE
  8
0
 62
     0
 10
198.395
 20
65.8717
 30
0.0
 11
198.395
 21
68.9723
 31
0.0
  0
LINE
  8
0
 62
     0
 10
198.395
 20
68.9723
 30
0.0
 11
197.594
 21
68.9723
 31
0.0
  0
LINE
  8
0
 62
     0
 10
197.594
 20
68.9723
 30
0.0
 11
197.594
 21
74.7723
 31
0.0
  0
LINE
  8
0
 62
     0
 10
197.594
 20
74.7723
 30
0.0
 11
198.395
 21
74.7723
 31
0.0
  0
LINE
  8
0
 62
     0
 10
198.395
 20
74.7723
 30
0.0
 11
198.395
 21
77.8715
 31
0.0
  0
LINE
  8
0
 62
     0
 10
198.395
 20
77.8715
 30
0.0
 11
197.594
 21
77.8715
 31
0.0
  0
LINE
  8
0
 62
     0
 10
197.594
 20
77.8715
 30
0.0
 11
197.594
 21
78.8719
 31
0.0
  0
LINE
  8
0
 62
     0
 10
197.594
 20
78.8719
 30
0.0
 11
183.595
 21
78.8719
 31
0.0
  0
LINE
  8
0
 62
     0
 10
202.645
 20
78.8719
 30
0.0
 11
202.645
 21
77.8715
 31
0.0
  0
LINE
  8
0
 62
     0
 10
202.645
 20
77.8715
 30
0.0
 11
201.844
 21
77.8715
 31
0.0
  0
LINE
  8
0
 62
     0
 10
201.844
 20
77.8715
 30
0.0
 11
201.844
 21
74.7723
 31
0.0
  0
LINE
  8
0
 62
     0
 10
201.844
 20
74.7723
 30
0.0
 11
202.645
 21
74.7723
 31
0.0
  0
LINE
  8
0
 62
     0
 10
202.645
 20
74.7723
 30
0.0
 11
202.645
 21
68.9723
 31
0.0
  0
LINE
  8
0
 62
     0
 10
202.645
 20
68.9723
 30
0.0
 11
201.844
 21
68.9723
 31
0.0
  0
LINE
  8
0
 62
     0
 10
201.844
 20
68.9723
 30
0.0
 11
201.844
 21
65.8717
 31
0.0
  0
LINE
  8
0
 62
     0
 10
201.844
 20
65.8717
 30
0.0
 11
202.645
 21
65.8717
 31
0.0
  0
LINE
  8
0
 62
     0
 10
202.645
 20
65.8717
 30
0.0
 11
202.645
 21
64.8727
 31
0.0
  0
LINE
  8
0
 62
     0
 10
202.645
 20
64.8727
 30
0.0
 11
216.644
 21
64.8727
 31
0.0
  0
LINE
  8
0
 62
     0
 10
216.644
 20
64.8727
 30
0.0
 11
216.644
 21
65.8717
 31
0.0
  0
LINE
  8
0
 62
     0
 10
216.644
 20
65.8717
 30
0.0
 11
217.445
 21
65.8717
 31
0.0
  0
LINE
  8
0
 62
     0
 10
217.445
 20
65.8717
 30
0.0
 11
217.445
 21
68.9723
 31
0.0
  0
LINE
  8
0
 62
     0
 10
217.445
 20
68.9723
 30
0.0
 11
216.644
 21
68.9723
 31
0.0
  0
LINE
  8
0
 62
     0
 10
216.644
 20
68.9723
 30
0.0
 11
216.644
 21
74.7723
 31
0.0
  0
LINE
  8
0
 62
     0
 10
216.644
 20
74.7723
 30
0.0
 11
217.445
 21
74.7723
 31
0.0
  0
LINE
  8
0
 62
     0
 10
217.445
 20
74.7723
 30
0.0
 11
217.445
 21
77.8715
 31
0.0
  0
LINE
  8
0
 62
     0
 10
217.445
 20
77.8715
 30
0.0
 11
216.644
 21
77.8715
 31
0.0
  0
LINE
  8
0
 62
     0
 10
216.644
 20
77.8715
 30
0.0
 11
216.644
 21
78.8719
 31
0.0
  0
LINE
  8
0
 62
     0
 10
216.644
 20
78.8719
 30
0.0
 11
202.645
 21
78.8719
 31
0.0
  0
LINE
  8
0
 62
     0
 10
221.695
 20
78.8719
 30
0.0
 11
221.695
 21
77.8715
 31
0.0
  0
LINE
  8
0
 62
     0
 10
221.695
 20
77.8715
 30
0.0
 11
220.894
 21
77.8715
 31
0.0
  0
LINE
  8
0
 62
     0
 10
220.894
 20
77.8715
 30
0.0
 11
220.894
 21
74.7723
 31
0.0
  0
LINE
  8
0
 62
     0
 10
220.894
 20
74.7723
 30
0.0
 11
221.695
 21
74.7723
 31
0.0
  0
LINE
  8
0
 62
     0
 10
221.695
 20
74.7723
 30
0.0
 11
221.695
 21
68.9723
 31
0.0
  0
LINE
  8
0
 62
     0
 10
221.695
 20
68.9723
 30
0.0
 11
220.894
 21
68.9723
 31
0.0
  0
LINE
  8
0
 62
     0
 10
220.894
 20
68.9723
 30
0.0
 11
220.894
 21
65.8717
 31
0.0
  0
LINE
  8
0
 62
     0
 10
220.894
 20
65.8717
 30
0.0
 11
221.695
 21
65.8717
 31
0.0
  0
LINE
  8
0
 62
     0
 10
221.695
 20
65.8717
 30
0.0
 11
221.695
 21
64.8727
 31
0.0
  0
LINE
  8
0
 62
     0
 10
221.695
 20
64.8727
 30
0.0
 11
235.694
 21
64.8727
 31
0.0
  0
LINE
  8
0
 62
     0
 10
235.694
 20
64.8727
 30
0.0
 11
235.694
 21
65.8717
 31
0.0
  0
LINE
  8
0
 62
     0
 10
235.694
 20
65.8717
 30
0.0
 11
236.495
 21
65.8717
 31
0.0
  0
LINE
  8
0
 62
     0
 10
236.495
 20
65.8717
 30
0.0
 11
236.495
 21
68.9723
 31
0.0
  0
LINE
  8
0
 62
     0
 10
236.495
 20
68.9723
 30
0.0
 11
235.694
 21
68.9723
 31
0.0
  0
LINE
  8
0
 62
     0
 10
235.694
 20
68.9723
 30
0.0
 11
235.694
 21
74.7723
 31
0.0
  0
LINE
  8
0
 62
     0
 10
235.694
 20
74.7723
 30
0.0
 11
236.495
 21
74.7723
 31
0.0
  0
LINE
  8
0
 62
     0
 10
236.495
 20
74.7723
 30
0.0
 11
236.495
 21
77.8715
 31
0.0
  0
LINE
  8
0
 62
     0
 10
236.495
 20
77.8715
 30
0.0
 11
235.694
 21
77.8715
 31
0.0
  0
LINE
  8
0
 62
     0
 10
235.694
 20
77.8715
 30
0.0
 11
235.694
 21
78.8719
 31
0.0
  0
LINE
  8
0
 62
     0
 10
235.694
 20
78.8719
 30
0.0
 11
221.695
 21
78.8719
 31
0.0
  0
LINE
  8
0
 62
     0
 10
240.745
 20
78.8719
 30
0.0
 11
240.745
 21
77.8715
 31
0.0
  0
LINE
  8
0
 62
     0
 10
240.745
 20
77.8715
 30
0.0
 11
239.944
 21
77.8715
 31
0.0
  0
LINE
  8
0
 62
     0
 10
239.944
 20
77.8715
 30
0.0
 11
239.944
 21
74.7723
 31
0.0
  0
LINE
  8
0
 62
     0
 10
239.944
 20
74.7723
 30
0.0
 11
240.745
 21
74.7723
 31
0.0
  0
LINE
  8
0
 62
     0
 10
240.745
 20
74.7723
 30
0.0
 11
240.745
 21
68.9723
 31
0.0
  0
LINE
  8
0
 62
     0
 10
240.745
 20
68.9723
 30
0.0
 11
239.944
 21
68.9723
 31
0.0
  0
LINE
  8
0
 62
     0
 10
239.944
 20
68.9723
 30
0.0
 11
239.944
 21
65.8717
 31
0.0
  0
LINE
  8
0
 62
     0
 10
239.944
 20
65.8717
 30
0.0
 11
240.745
 21
65.8717
 31
0.0
  0
LINE
  8
0
 62
     0
 10
240.745
 20
65.8717
 30
0.0
 11
240.745
 21
64.8727
 31
0.0
  0
LINE
  8
0
 62
     0
 10
240.745
 20
64.8727
 30
0.0
 11
254.744
 21
64.8727
 31
0.0
  0
LINE
  8
0
 62
     0
 10
254.744
 20
64.8727
 30
0.0
 11
254.744
 21
65.8717
 31
0.0
  0
LINE
  8
0
 62
     0
 10
254.744
 20
65.8717
 30
0.0
 11
255.545
 21
65.8717
 31
0.0
  0
LINE
  8
0
 62
     0
 10
255.545
 20
65.8717
 30
0.0
 11
255.545
 21
68.9723
 31
0.0
  0
LINE
  8
0
 62
     0
 10
255.545
 20
68.9723
 30
0.0
 11
254.744
 21
68.9723
 31
0.0
  0
LINE
  8
0
 62
     0
 10
254.744
 20
68.9723
 30
0.0
 11
254.744
 21
74.7723
 31
0.0
  0
LINE
  8
0
 62
     0
 10
254.744
 20
74.7723
 30
0.0
 11
255.545
 21
74.7723
 31
0.0
  0
LINE
  8
0
 62
     0
 10
255.545
 20
74.7723
 30
0.0
 11
255.545
 21
77.8715
 31
0.0
  0
LINE
  8
0
 62
     0
 10
255.545
 20
77.8715
 30
0.0
 11
254.744
 21
77.8715
 31
0.0
  0
LINE
  8
0
 62
     0
 10
254.744
 20
77.8715
 30
0.0
 11
254.744
 21
78.8719
 31
0.0
  0
LINE
  8
0
 62
     0
 10
254.744
 20
78.8719
 30
0.0
 11
240.745
 21
78.8719
 31
0.0
  0
LINE
  8
0
 62
     0
 10
264.557
 20
78.8719
 30
0.0
 11
264.557
 21
77.8715
 31
0.0
  0
LINE
  8
0
 62
     0
 10
264.557
 20
77.8715
 30
0.0
 11
263.756
 21
77.8715
 31
0.0
  0
LINE
  8
0
 62
     0
 10
263.756
 20
77.8715
 30
0.0
 11
263.756
 21
74.7723
 31
0.0
  0
LINE
  8
0
 62
     0
 10
263.756
 20
74.7723
 30
0.0
 11
264.557
 21
74.7723
 31
0.0
  0
LINE
  8
0
 62
     0
 10
264.557
 20
74.7723
 30
0.0
 11
264.557
 21
68.9723
 31
0.0
  0
LINE
  8
0
 62
     0
 10
264.557
 20
68.9723
 30
0.0
 11
263.756
 21
68.9723
 31
0.0
  0
LINE
  8
0
 62
     0
 10
263.756
 20
68.9723
 30
0.0
 11
263.756
 21
65.8717
 31
0.0
  0
LINE
  8
0
 62
     0
 10
263.756
 20
65.8717
 30
0.0
 11
264.557
 21
65.8717
 31
0.0
  0
LINE
  8
0
 62
     0
 10
264.557
 20
65.8717
 30
0.0
 11
264.557
 21
64.8727
 31
0.0
  0
LINE
  8
0
 62
     0
 10
264.557
 20
64.8727
 30
0.0
 11
278.557
 21
64.8727
 31
0.0
  0
LINE
  8
0
 62
     0
 10
278.557
 20
64.8727
 30
0.0
 11
278.557
 21
65.8717
 31
0.0
  0
LINE
  8
0
 62
     0
 10
278.557
 20
65.8717
 30
0.0
 11
279.356
 21
65.8717
 31
0.0
  0
LINE
  8
0
 62
     0
 10
279.356
 20
65.8717
 30
0.0
 11
279.356
 21
68.9723
 31
0.0
  0
LINE
  8
0
 62
     0
 10
279.356
 20
68.9723
 30
0.0
 11
278.557
 21
68.9723
 31
0.0
  0
LINE
  8
0
 62
     0
 10
278.557
 20
68.9723
 30
0.0
 11
278.557
 21
74.7723
 31
0.0
  0
LINE
  8
0
 62
     0
 10
278.557
 20
74.7723
 30
0.0
 11
279.356
 21
74.7723
 31
0.0
  0
LINE
  8
0
 62
     0
 10
279.356
 20
74.7723
 30
0.0
 11
279.356
 21
77.8715
 31
0.0
  0
LINE
  8
0
 62
     0
 10
279.356
 20
77.8715
 30
0.0
 11
278.557
 21
77.8715
 31
0.0
  0
LINE
  8
0
 62
     0
 10
278.557
 20
77.8715
 30
0.0
 11
278.557
 21
78.8719
 31
0.0
  0
LINE
  8
0
 62
     0
 10
278.557
 20
78.8719
 30
0.0
 11
264.557
 21
78.8719
 31
0.0
  0
LINE
  8
0
 62
     0
 10
293.132
 20
78.8719
 30
0.0
 11
293.132
 21
77.8715
 31
0.0
  0
LINE
  8
0
 62
     0
 10
293.132
 20
77.8715
 30
0.0
 11
292.331
 21
77.8715
 31
0.0
  0
LINE
  8
0
 62
     0
 10
292.331
 20
77.8715
 30
0.0
 11
292.331
 21
74.7723
 31
0.0
  0
LINE
  8
0
 62
     0
 10
292.331
 20
74.7723
 30
0.0
 11
293.132
 21
74.7723
 31
0.0
  0
LINE
  8
0
 62
     0
 10
293.132
 20
74.7723
 30
0.0
 11
293.132
 21
68.9723
 31
0.0
  0
LINE
  8
0
 62
     0
 10
293.132
 20
68.9723
 30
0.0
 11
292.331
 21
68.9723
 31
0.0
  0
LINE
  8
0
 62
     0
 10
292.331
 20
68.9723
 30
0.0
 11
292.331
 21
65.8717
 31
0.0
  0
LINE
  8
0
 62
     0
 10
292.331
 20
65.8717
 30
0.0
 11
293.132
 21
65.8717
 31
0.0
  0
LINE
  8
0
 62
     0
 10
293.132
 20
65.8717
 30
0.0
 11
293.132
 21
64.8727
 31
0.0
  0
LINE
  8
0
 62
     0
 10
293.132
 20
64.8727
 30
0.0
 11
307.132
 21
64.8727
 31
0.0
  0
LINE
  8
0
 62
     0
 10
307.132
 20
64.8727
 30
0.0
 11
307.132
 21
65.8717
 31
0.0
  0
LINE
  8
0
 62
     0
 10
307.132
 20
65.8717
 30
0.0
 11
307.931
 21
65.8717
 31
0.0
  0
LINE
  8
0
 62
     0
 10
307.931
 20
65.8717
 30
0.0
 11
307.931
 21
68.9723
 31
0.0
  0
LINE
  8
0
 62
     0
 10
307.931
 20
68.9723
 30
0.0
 11
307.132
 21
68.9723
 31
0.0
  0
LINE
  8
0
 62
     0
 10
307.132
 20
68.9723
 30
0.0
 11
307.132
 21
74.7723
 31
0.0
  0
LINE
  8
0
 62
     0
 10
307.132
 20
74.7723
 30
0.0
 11
307.931
 21
74.7723
 31
0.0
  0
LINE
  8
0
 62
     0
 10
307.931
 20
74.7723
 30
0.0
 11
307.931
 21
77.8715
 31
0.0
  0
LINE
  8
0
 62
     0
 10
307.931
 20
77.8715
 30
0.0
 11
307.132
 21
77.8715
 31
0.0
  0
LINE
  8
0
 62
     0
 10
307.132
 20
77.8715
 30
0.0
 11
307.132
 21
78.8719
 31
0.0
  0
LINE
  8
0
 62
     0
 10
307.132
 20
78.8719
 30
0.0
 11
293.132
 21
78.8719
 31
0.0
  0
LINE
  8
0
 62
     0
 10
312.182
 20
78.8719
 30
0.0
 11
312.182
 21
77.8715
 31
0.0
  0
LINE
  8
0
 62
     0
 10
312.182
 20
77.8715
 30
0.0
 11
311.381
 21
77.8715
 31
0.0
  0
LINE
  8
0
 62
     0
 10
311.381
 20
77.8715
 30
0.0
 11
311.381
 21
74.7723
 31
0.0
  0
LINE
  8
0
 62
     0
 10
311.381
 20
74.7723
 30
0.0
 11
312.182
 21
74.7723
 31
0.0
  0
LINE
  8
0
 62
     0
 10
312.182
 20
74.7723
 30
0.0
 11
312.182
 21
68.9723
 31
0.0
  0
LINE
  8
0
 62
     0
 10
312.182
 20
68.9723
 30
0.0
 11
311.381
 21
68.9723
 31
0.0
  0
LINE
  8
0
 62
     0
 10
311.381
 20
68.9723
 30
0.0
 11
311.381
 21
65.8717
 31
0.0
  0
LINE
  8
0
 62
     0
 10
311.381
 20
65.8717
 30
0.0
 11
312.182
 21
65.8717
 31
0.0
  0
LINE
  8
0
 62
     0
 10
312.182
 20
65.8717
 30
0.0
 11
312.182
 21
64.8727
 31
0.0
  0
LINE
  8
0
 62
     0
 10
312.182
 20
64.8727
 30
0.0
 11
326.182
 21
64.8727
 31
0.0
  0
LINE
  8
0
 62
     0
 10
326.182
 20
64.8727
 30
0.0
 11
326.182
 21
65.8717
 31
0.0
  0
LINE
  8
0
 62
     0
 10
326.182
 20
65.8717
 30
0.0
 11
326.981
 21
65.8717
 31
0.0
  0
LINE
  8
0
 62
     0
 10
326.981
 20
65.8717
 30
0.0
 11
326.981
 21
68.9723
 31
0.0
  0
LINE
  8
0
 62
     0
 10
326.981
 20
68.9723
 30
0.0
 11
326.182
 21
68.9723
 31
0.0
  0
LINE
  8
0
 62
     0
 10
326.182
 20
68.9723
 30
0.0
 11
326.182
 21
74.7723
 31
0.0
  0
LINE
  8
0
 62
     0
 10
326.182
 20
74.7723
 30
0.0
 11
326.981
 21
74.7723
 31
0.0
  0
LINE
  8
0
 62
     0
 10
326.981
 20
74.7723
 30
0.0
 11
326.981
 21
77.8715
 31
0.0
  0
LINE
  8
0
 62
     0
 10
326.981
 20
77.8715
 30
0.0
 11
326.182
 21
77.8715
 31
0.0
  0
LINE
  8
0
 62
     0
 10
326.182
 20
77.8715
 30
0.0
 11
326.182
 21
78.8719
 31
0.0
  0
LINE
  8
0
 62
     0
 10
326.182
 20
78.8719
 30
0.0
 11
312.182
 21
78.8719
 31
0.0
  0
LINE
  8
0
 62
     0
 10
259.795
 20
97.9219
 30
0.0
 11
259.795
 21
96.9215
 31
0.0
  0
LINE
  8
0
 62
     0
 10
259.795
 20
96.9215
 30
0.0
 11
258.994
 21
96.9215
 31
0.0
  0
LINE
  8
0
 62
     0
 10
258.994
 20
96.9215
 30
0.0
 11
258.994
 21
93.8223
 31
0.0
  0
LINE
  8
0
 62
     0
 10
258.994
 20
93.8223
 30
0.0
 11
259.795
 21
93.8223
 31
0.0
  0
LINE
  8
0
 62
     0
 10
259.795
 20
93.8223
 30
0.0
 11
259.795
 21
93.2215
 31
0.0
  0
LINE
  8
0
 62
     0
 10
259.795
 20
93.2215
 30
0.0
 11
258.269
 21
93.2215
 31
0.0
  0
LINE
  8
0
 62
     0
 10
258.269
 20
93.2215
 30
0.0
 11
258.269
 21
96.4516
 31
0.0
  0
LINE
  8
0
 62
     0
 10
258.269
 20
96.4516
 30
0.0
 11
251.52
 21
96.4516
 31
0.0
  0
LINE
  8
0
 62
     0
 10
251.52
 20
96.4516
 30
0.0
 11
251.52
 21
93.2215
 31
0.0
  0
LINE
  8
0
 62
     0
 10
251.52
 20
93.2215
 30
0.0
 11
250.694
 21
93.2215
 31
0.0
  0
LINE
  8
0
 62
     0
 10
250.694
 20
93.2215
 30
0.0
 11
250.694
 21
90.4226
 31
0.0
  0
LINE
  8
0
 62
     0
 10
250.694
 20
90.4226
 30
0.0
 11
251.52
 21
90.4226
 31
0.0
  0
LINE
  8
0
 62
     0
 10
251.52
 20
90.4226
 30
0.0
 11
251.52
 21
84.1527
 31
0.0
  0
LINE
  8
0
 62
     0
 10
251.52
 20
84.1527
 30
0.0
 11
253.243
 21
84.1527
 31
0.0
  0
LINE
  8
0
 62
     0
 10
253.243
 20
84.1527
 30
0.0
 11
253.243
 21
82.9525
 31
0.0
  0
LINE
  8
0
 62
     0
 10
253.243
 20
82.9525
 30
0.0
 11
256.544
 21
82.9525
 31
0.0
  0
LINE
  8
0
 62
     0
 10
256.544
 20
82.9525
 30
0.0
 11
256.544
 21
84.1527
 31
0.0
  0
LINE
  8
0
 62
     0
 10
256.544
 20
84.1527
 30
0.0
 11
258.269
 21
84.1527
 31
0.0
  0
LINE
  8
0
 62
     0
 10
258.269
 20
84.1527
 30
0.0
 11
258.269
 21
88.6217
 31
0.0
  0
LINE
  8
0
 62
     0
 10
258.269
 20
88.6217
 30
0.0
 11
259.795
 21
88.6217
 31
0.0
  0
LINE
  8
0
 62
     0
 10
259.795
 20
88.6217
 30
0.0
 11
259.795
 21
88.0223
 31
0.0
  0
LINE
  8
0
 62
     0
 10
259.795
 20
88.0223
 30
0.0
 11
258.994
 21
88.0223
 31
0.0
  0
LINE
  8
0
 62
     0
 10
258.994
 20
88.0223
 30
0.0
 11
258.994
 21
84.9217
 31
0.0
  0
LINE
  8
0
 62
     0
 10
258.994
 20
84.9217
 30
0.0
 11
259.795
 21
84.9217
 31
0.0
  0
LINE
  8
0
 62
     0
 10
259.795
 20
84.9217
 30
0.0
 11
259.795
 21
83.9227
 31
0.0
  0
LINE
  8
0
 62
     0
 10
259.795
 20
83.9227
 30
0.0
 11
273.794
 21
83.9227
 31
0.0
  0
LINE
  8
0
 62
     0
 10
273.794
 20
83.9227
 30
0.0
 11
273.794
 21
84.9217
 31
0.0
  0
LINE
  8
0
 62
     0
 10
273.794
 20
84.9217
 30
0.0
 11
274.595
 21
84.9217
 31
0.0
  0
LINE
  8
0
 62
     0
 10
274.595
 20
84.9217
 30
0.0
 11
274.595
 21
88.0223
 31
0.0
  0
LINE
  8
0
 62
     0
 10
274.595
 20
88.0223
 30
0.0
 11
273.794
 21
88.0223
 31
0.0
  0
LINE
  8
0
 62
     0
 10
273.794
 20
88.0223
 30
0.0
 11
273.794
 21
88.6217
 31
0.0
  0
LINE
  8
0
 62
     0
 10
273.794
 20
88.6217
 30
0.0
 11
275.32
 21
88.6217
 31
0.0
  0
LINE
  8
0
 62
     0
 10
275.32
 20
88.6217
 30
0.0
 11
275.32
 21
84.1527
 31
0.0
  0
LINE
  8
0
 62
     0
 10
275.32
 20
84.1527
 30
0.0
 11
277.045
 21
84.1527
 31
0.0
  0
LINE
  8
0
 62
     0
 10
277.045
 20
84.1527
 30
0.0
 11
277.045
 21
82.9525
 31
0.0
  0
LINE
  8
0
 62
     0
 10
277.045
 20
82.9525
 30
0.0
 11
280.344
 21
82.9525
 31
0.0
  0
LINE
  8
0
 62
     0
 10
280.344
 20
82.9525
 30
0.0
 11
280.344
 21
84.1527
 31
0.0
  0
LINE
  8
0
 62
     0
 10
280.344
 20
84.1527
 30
0.0
 11
282.069
 21
84.1527
 31
0.0
  0
LINE
  8
0
 62
     0
 10
282.069
 20
84.1527
 30
0.0
 11
282.069
 21
90.4226
 31
0.0
  0
LINE
  8
0
 62
     0
 10
282.069
 20
90.4226
 30
0.0
 11
282.895
 21
90.4226
 31
0.0
  0
LINE
  8
0
 62
     0
 10
282.895
 20
90.4226
 30
0.0
 11
282.895
 21
93.2215
 31
0.0
  0
LINE
  8
0
 62
     0
 10
282.895
 20
93.2215
 30
0.0
 11
282.069
 21
93.2215
 31
0.0
  0
LINE
  8
0
 62
     0
 10
282.069
 20
93.2215
 30
0.0
 11
282.069
 21
96.4516
 31
0.0
  0
LINE
  8
0
 62
     0
 10
282.069
 20
96.4516
 30
0.0
 11
275.32
 21
96.4516
 31
0.0
  0
LINE
  8
0
 62
     0
 10
275.32
 20
96.4516
 30
0.0
 11
275.32
 21
93.2215
 31
0.0
  0
LINE
  8
0
 62
     0
 10
275.32
 20
93.2215
 30
0.0
 11
273.794
 21
93.2215
 31
0.0
  0
LINE
  8
0
 62
     0
 10
273.794
 20
93.2215
 30
0.0
 11
273.794
 21
93.8223
 31
0.0
  0
LINE
  8
0
 62
     0
 10
273.794
 20
93.8223
 30
0.0
 11
274.595
 21
93.8223
 31
0.0
  0
LINE
  8
0
 62
     0
 10
274.595
 20
93.8223
 30
0.0
 11
274.595
 21
96.9215
 31
0.0
  0
LINE
  8
0
 62
     0
 10
274.595
 20
96.9215
 30
0.0
 11
273.794
 21
96.9215
 31
0.0
  0
LINE
  8
0
 62
     0
 10
273.794
 20
96.9215
 30
0.0
 11
273.794
 21
97.9219
 31
0.0
  0
LINE
  8
0
 62
     0
 10
273.794
 20
97.9219
 30
0.0
 11
259.795
 21
97.9219
 31
0.0
  0
LINE
  8
0
 62
     0
 10
2.61965
 20
97.9219
 30
0.0
 11
2.61965
 21
96.9215
 31
0.0
  0
LINE
  8
0
 62
     0
 10
2.61965
 20
96.9215
 30
0.0
 11
1.81901
 21
96.9215
 31
0.0
  0
LINE
  8
0
 62
     0
 10
1.81901
 20
96.9215
 30
0.0
 11
1.81901
 21
93.8223
 31
0.0
  0
LINE
  8
0
 62
     0
 10
1.81901
 20
93.8223
 30
0.0
 11
2.61965
 21
93.8223
 31
0.0
  0
LINE
  8
0
 62
     0
 10
2.61965
 20
93.8223
 30
0.0
 11
2.61965
 21
88.0223
 31
0.0
  0
LINE
  8
0
 62
     0
 10
2.61965
 20
88.0223
 30
0.0
 11
1.81901
 21
88.0223
 31
0.0
  0
LINE
  8
0
 62
     0
 10
1.81901
 20
88.0223
 30
0.0
 11
1.81901
 21
84.9217
 31
0.0
  0
LINE
  8
0
 62
     0
 10
1.81901
 20
84.9217
 30
0.0
 11
2.61965
 21
84.9217
 31
0.0
  0
LINE
  8
0
 62
     0
 10
2.61965
 20
84.9217
 30
0.0
 11
2.61965
 21
83.9227
 31
0.0
  0
LINE
  8
0
 62
     0
 10
2.61965
 20
83.9227
 30
0.0
 11
16.6192
 21
83.9227
 31
0.0
  0
LINE
  8
0
 62
     0
 10
16.6192
 20
83.9227
 30
0.0
 11
16.6192
 21
84.9217
 31
0.0
  0
LINE
  8
0
 62
     0
 10
16.6192
 20
84.9217
 30
0.0
 11
17.4198
 21
84.9217
 31
0.0
  0
LINE
  8
0
 62
     0
 10
17.4198
 20
84.9217
 30
0.0
 11
17.4198
 21
88.0223
 31
0.0
  0
LINE
  8
0
 62
     0
 10
17.4198
 20
88.0223
 30
0.0
 11
16.6192
 21
88.0223
 31
0.0
  0
LINE
  8
0
 62
     0
 10
16.6192
 20
88.0223
 30
0.0
 11
16.6192
 21
93.8223
 31
0.0
  0
LINE
  8
0
 62
     0
 10
16.6192
 20
93.8223
 30
0.0
 11
17.4198
 21
93.8223
 31
0.0
  0
LINE
  8
0
 62
     0
 10
17.4198
 20
93.8223
 30
0.0
 11
17.4198
 21
96.9215
 31
0.0
  0
LINE
  8
0
 62
     0
 10
17.4198
 20
96.9215
 30
0.0
 11
16.6192
 21
96.9215
 31
0.0
  0
LINE
  8
0
 62
     0
 10
16.6192
 20
96.9215
 30
0.0
 11
16.6192
 21
97.9219
 31
0.0
  0
LINE
  8
0
 62
     0
 10
16.6192
 20
97.9219
 30
0.0
 11
2.61965
 21
97.9219
 31
0.0
  0
LINE
  8
0
 62
     0
 10
21.6697
 20
97.9219
 30
0.0
 11
21.6697
 21
96.9215
 31
0.0
  0
LINE
  8
0
 62
     0
 10
21.6697
 20
96.9215
 30
0.0
 11
20.869
 21
96.9215
 31
0.0
  0
LINE
  8
0
 62
     0
 10
20.869
 20
96.9215
 30
0.0
 11
20.869
 21
93.8223
 31
0.0
  0
LINE
  8
0
 62
     0
 10
20.869
 20
93.8223
 30
0.0
 11
21.6697
 21
93.8223
 31
0.0
  0
LINE
  8
0
 62
     0
 10
21.6697
 20
93.8223
 30
0.0
 11
21.6697
 21
88.0223
 31
0.0
  0
LINE
  8
0
 62
     0
 10
21.6697
 20
88.0223
 30
0.0
 11
20.869
 21
88.0223
 31
0.0
  0
LINE
  8
0
 62
     0
 10
20.869
 20
88.0223
 30
0.0
 11
20.869
 21
84.9217
 31
0.0
  0
LINE
  8
0
 62
     0
 10
20.869
 20
84.9217
 30
0.0
 11
21.6697
 21
84.9217
 31
0.0
  0
LINE
  8
0
 62
     0
 10
21.6697
 20
84.9217
 30
0.0
 11
21.6697
 21
83.9227
 31
0.0
  0
LINE
  8
0
 62
     0
 10
21.6697
 20
83.9227
 30
0.0
 11
35.669
 21
83.9227
 31
0.0
  0
LINE
  8
0
 62
     0
 10
35.669
 20
83.9227
 30
0.0
 11
35.669
 21
84.9217
 31
0.0
  0
LINE
  8
0
 62
     0
 10
35.669
 20
84.9217
 30
0.0
 11
36.4698
 21
84.9217
 31
0.0
  0
LINE
  8
0
 62
     0
 10
36.4698
 20
84.9217
 30
0.0
 11
36.4698
 21
88.0223
 31
0.0
  0
LINE
  8
0
 62
     0
 10
36.4698
 20
88.0223
 30
0.0
 11
35.669
 21
88.0223
 31
0.0
  0
LINE
  8
0
 62
     0
 10
35.669
 20
88.0223
 30
0.0
 11
35.669
 21
93.8223
 31
0.0
  0
LINE
  8
0
 62
     0
 10
35.669
 20
93.8223
 30
0.0
 11
36.4698
 21
93.8223
 31
0.0
  0
LINE
  8
0
 62
     0
 10
36.4698
 20
93.8223
 30
0.0
 11
36.4698
 21
96.9215
 31
0.0
  0
LINE
  8
0
 62
     0
 10
36.4698
 20
96.9215
 30
0.0
 11
35.669
 21
96.9215
 31
0.0
  0
LINE
  8
0
 62
     0
 10
35.669
 20
96.9215
 30
0.0
 11
35.669
 21
97.9219
 31
0.0
  0
LINE
  8
0
 62
     0
 10
35.669
 20
97.9219
 30
0.0
 11
21.6697
 21
97.9219
 31
0.0
  0
LINE
  8
0
 62
     0
 10
40.7197
 20
97.9219
 30
0.0
 11
40.7197
 21
96.9215
 31
0.0
  0
LINE
  8
0
 62
     0
 10
40.7197
 20
96.9215
 30
0.0
 11
39.9189
 21
96.9215
 31
0.0
  0
LINE
  8
0
 62
     0
 10
39.9189
 20
96.9215
 30
0.0
 11
39.9189
 21
93.8223
 31
0.0
  0
LINE
  8
0
 62
     0
 10
39.9189
 20
93.8223
 30
0.0
 11
40.7197
 21
93.8223
 31
0.0
  0
LINE
  8
0
 62
     0
 10
40.7197
 20
93.8223
 30
0.0
 11
40.7197
 21
88.0223
 31
0.0
  0
LINE
  8
0
 62
     0
 10
40.7197
 20
88.0223
 30
0.0
 11
39.9189
 21
88.0223
 31
0.0
  0
LINE
  8
0
 62
     0
 10
39.9189
 20
88.0223
 30
0.0
 11
39.9189
 21
84.9217
 31
0.0
  0
LINE
  8
0
 62
     0
 10
39.9189
 20
84.9217
 30
0.0
 11
40.7197
 21
84.9217
 31
0.0
  0
LINE
  8
0
 62
     0
 10
40.7197
 20
84.9217
 30
0.0
 11
40.7197
 21
83.9227
 31
0.0
  0
LINE
  8
0
 62
     0
 10
40.7197
 20
83.9227
 30
0.0
 11
54.719
 21
83.9227
 31
0.0
  0
LINE
  8
0
 62
     0
 10
54.719
 20
83.9227
 30
0.0
 11
54.719
 21
84.9217
 31
0.0
  0
LINE
  8
0
 62
     0
 10
54.719
 20
84.9217
 30
0.0
 11
55.5198
 21
84.9217
 31
0.0
  0
LINE
  8
0
 62
     0
 10
55.5198
 20
84.9217
 30
0.0
 11
55.5198
 21
88.0223
 31
0.0
  0
LINE
  8
0
 62
     0
 10
55.5198
 20
88.0223
 30
0.0
 11
54.719
 21
88.0223
 31
0.0
  0
LINE
  8
0
 62
     0
 10
54.719
 20
88.0223
 30
0.0
 11
54.719
 21
93.8223
 31
0.0
  0
LINE
  8
0
 62
     0
 10
54.719
 20
93.8223
 30
0.0
 11
55.5198
 21
93.8223
 31
0.0
  0
LINE
  8
0
 62
     0
 10
55.5198
 20
93.8223
 30
0.0
 11
55.5198
 21
96.9215
 31
0.0
  0
LINE
  8
0
 62
     0
 10
55.5198
 20
96.9215
 30
0.0
 11
54.719
 21
96.9215
 31
0.0
  0
LINE
  8
0
 62
     0
 10
54.719
 20
96.9215
 30
0.0
 11
54.719
 21
97.9219
 31
0.0
  0
LINE
  8
0
 62
     0
 10
54.719
 20
97.9219
 30
0.0
 11
40.7197
 21
97.9219
 31
0.0
  0
LINE
  8
0
 62
     0
 10
59.7697
 20
97.9219
 30
0.0
 11
59.7697
 21
96.9215
 31
0.0
  0
LINE
  8
0
 62
     0
 10
59.7697
 20
96.9215
 30
0.0
 11
58.9689
 21
96.9215
 31
0.0
  0
LINE
  8
0
 62
     0
 10
58.9689
 20
96.9215
 30
0.0
 11
58.9689
 21
93.8223
 31
0.0
  0
LINE
  8
0
 62
     0
 10
58.9689
 20
93.8223
 30
0.0
 11
59.7697
 21
93.8223
 31
0.0
  0
LINE
  8
0
 62
     0
 10
59.7697
 20
93.8223
 30
0.0
 11
59.7697
 21
88.0223
 31
0.0
  0
LINE
  8
0
 62
     0
 10
59.7697
 20
88.0223
 30
0.0
 11
58.9689
 21
88.0223
 31
0.0
  0
LINE
  8
0
 62
     0
 10
58.9689
 20
88.0223
 30
0.0
 11
58.9689
 21
84.9217
 31
0.0
  0
LINE
  8
0
 62
     0
 10
58.9689
 20
84.9217
 30
0.0
 11
59.7697
 21
84.9217
 31
0.0
  0
LINE
  8
0
 62
     0
 10
59.7697
 20
84.9217
 30
0.0
 11
59.7697
 21
83.9227
 31
0.0
  0
LINE
  8
0
 62
     0
 10
59.7697
 20
83.9227
 30
0.0
 11
73.769
 21
83.9227
 31
0.0
  0
LINE
  8
0
 62
     0
 10
73.769
 20
83.9227
 30
0.0
 11
73.769
 21
84.9217
 31
0.0
  0
LINE
  8
0
 62
     0
 10
73.769
 20
84.9217
 30
0.0
 11
74.5698
 21
84.9217
 31
0.0
  0
LINE
  8
0
 62
     0
 10
74.5698
 20
84.9217
 30
0.0
 11
74.5698
 21
88.0223
 31
0.0
  0
LINE
  8
0
 62
     0
 10
74.5698
 20
88.0223
 30
0.0
 11
73.769
 21
88.0223
 31
0.0
  0
LINE
  8
0
 62
     0
 10
73.769
 20
88.0223
 30
0.0
 11
73.769
 21
93.8223
 31
0.0
  0
LINE
  8
0
 62
     0
 10
73.769
 20
93.8223
 30
0.0
 11
74.5698
 21
93.8223
 31
0.0
  0
LINE
  8
0
 62
     0
 10
74.5698
 20
93.8223
 30
0.0
 11
74.5698
 21
96.9215
 31
0.0
  0
LINE
  8
0
 62
     0
 10
74.5698
 20
96.9215
 30
0.0
 11
73.769
 21
96.9215
 31
0.0
  0
LINE
  8
0
 62
     0
 10
73.769
 20
96.9215
 30
0.0
 11
73.769
 21
97.9219
 31
0.0
  0
LINE
  8
0
 62
     0
 10
73.769
 20
97.9219
 30
0.0
 11
59.7697
 21
97.9219
 31
0.0
  0
LINE
  8
0
 62
     0
 10
78.8197
 20
97.9219
 30
0.0
 11
78.8197
 21
96.9215
 31
0.0
  0
LINE
  8
0
 62
     0
 10
78.8197
 20
96.9215
 30
0.0
 11
78.0189
 21
96.9215
 31
0.0
  0
LINE
  8
0
 62
     0
 10
78.0189
 20
96.9215
 30
0.0
 11
78.0189
 21
93.8223
 31
0.0
  0
LINE
  8
0
 62
     0
 10
78.0189
 20
93.8223
 30
0.0
 11
78.8197
 21
93.8223
 31
0.0
  0
LINE
  8
0
 62
     0
 10
78.8197
 20
93.8223
 30
0.0
 11
78.8197
 21
88.0223
 31
0.0
  0
LINE
  8
0
 62
     0
 10
78.8197
 20
88.0223
 30
0.0
 11
78.0189
 21
88.0223
 31
0.0
  0
LINE
  8
0
 62
     0
 10
78.0189
 20
88.0223
 30
0.0
 11
78.0189
 21
84.9217
 31
0.0
  0
LINE
  8
0
 62
     0
 10
78.0189
 20
84.9217
 30
0.0
 11
78.8197
 21
84.9217
 31
0.0
  0
LINE
  8
0
 62
     0
 10
78.8197
 20
84.9217
 30
0.0
 11
78.8197
 21
83.9227
 31
0.0
  0
LINE
  8
0
 62
     0
 10
78.8197
 20
83.9227
 30
0.0
 11
92.819
 21
83.9227
 31
0.0
  0
LINE
  8
0
 62
     0
 10
92.819
 20
83.9227
 30
0.0
 11
92.819
 21
84.9217
 31
0.0
  0
LINE
  8
0
 62
     0
 10
92.819
 20
84.9217
 30
0.0
 11
93.6184
 21
84.9217
 31
0.0
  0
LINE
  8
0
 62
     0
 10
93.6184
 20
84.9217
 30
0.0
 11
93.6184
 21
88.0223
 31
0.0
  0
LINE
  8
0
 62
     0
 10
93.6184
 20
88.0223
 30
0.0
 11
92.819
 21
88.0223
 31
0.0
  0
LINE
  8
0
 62
     0
 10
92.819
 20
88.0223
 30
0.0
 11
92.819
 21
93.8223
 31
0.0
  0
LINE
  8
0
 62
     0
 10
92.819
 20
93.8223
 30
0.0
 11
93.6184
 21
93.8223
 31
0.0
  0
LINE
  8
0
 62
     0
 10
93.6184
 20
93.8223
 30
0.0
 11
93.6184
 21
96.9215
 31
0.0
  0
LINE
  8
0
 62
     0
 10
93.6184
 20
96.9215
 30
0.0
 11
92.819
 21
96.9215
 31
0.0
  0
LINE
  8
0
 62
     0
 10
92.819
 20
96.9215
 30
0.0
 11
92.819
 21
97.9219
 31
0.0
  0
LINE
  8
0
 62
     0
 10
92.819
 20
97.9219
 30
0.0
 11
78.8197
 21
97.9219
 31
0.0
  0
LINE
  8
0
 62
     0
 10
97.8683
 20
97.9219
 30
0.0
 11
97.8683
 21
96.9215
 31
0.0
  0
LINE
  8
0
 62
     0
 10
97.8683
 20
96.9215
 30
0.0
 11
97.0689
 21
96.9215
 31
0.0
  0
LINE
  8
0
 62
     0
 10
97.0689
 20
96.9215
 30
0.0
 11
97.0689
 21
93.8223
 31
0.0
  0
LINE
  8
0
 62
     0
 10
97.0689
 20
93.8223
 30
0.0
 11
97.8683
 21
93.8223
 31
0.0
  0
LINE
  8
0
 62
     0
 10
97.8683
 20
93.8223
 30
0.0
 11
97.8683
 21
88.0223
 31
0.0
  0
LINE
  8
0
 62
     0
 10
97.8683
 20
88.0223
 30
0.0
 11
97.0689
 21
88.0223
 31
0.0
  0
LINE
  8
0
 62
     0
 10
97.0689
 20
88.0223
 30
0.0
 11
97.0689
 21
84.9217
 31
0.0
  0
LINE
  8
0
 62
     0
 10
97.0689
 20
84.9217
 30
0.0
 11
97.8683
 21
84.9217
 31
0.0
  0
LINE
  8
0
 62
     0
 10
97.8683
 20
84.9217
 30
0.0
 11
97.8683
 21
83.9227
 31
0.0
  0
LINE
  8
0
 62
     0
 10
97.8683
 20
83.9227
 30
0.0
 11
111.869
 21
83.9227
 31
0.0
  0
LINE
  8
0
 62
     0
 10
111.869
 20
83.9227
 30
0.0
 11
111.869
 21
84.9217
 31
0.0
  0
LINE
  8
0
 62
     0
 10
111.869
 20
84.9217
 30
0.0
 11
112.668
 21
84.9217
 31
0.0
  0
LINE
  8
0
 62
     0
 10
112.668
 20
84.9217
 30
0.0
 11
112.668
 21
88.0223
 31
0.0
  0
LINE
  8
0
 62
     0
 10
112.668
 20
88.0223
 30
0.0
 11
111.869
 21
88.0223
 31
0.0
  0
LINE
  8
0
 62
     0
 10
111.869
 20
88.0223
 30
0.0
 11
111.869
 21
93.8223
 31
0.0
  0
LINE
  8
0
 62
     0
 10
111.869
 20
93.8223
 30
0.0
 11
112.668
 21
93.8223
 31
0.0
  0
LINE
  8
0
 62
     0
 10
112.668
 20
93.8223
 30
0.0
 11
112.668
 21
96.9215
 31
0.0
  0
LINE
  8
0
 62
     0
 10
112.668
 20
96.9215
 30
0.0
 11
111.869
 21
96.9215
 31
0.0
  0
LINE
  8
0
 62
     0
 10
111.869
 20
96.9215
 30
0.0
 11
111.869
 21
97.9219
 31
0.0
  0
LINE
  8
0
 62
     0
 10
111.869
 20
97.9219
 30
0.0
 11
97.8683
 21
97.9219
 31
0.0
  0
LINE
  8
0
 62
     0
 10
116.918
 20
97.9219
 30
0.0
 11
116.918
 21
96.9215
 31
0.0
  0
LINE
  8
0
 62
     0
 10
116.918
 20
96.9215
 30
0.0
 11
116.119
 21
96.9215
 31
0.0
  0
LINE
  8
0
 62
     0
 10
116.119
 20
96.9215
 30
0.0
 11
116.119
 21
93.8223
 31
0.0
  0
LINE
  8
0
 62
     0
 10
116.119
 20
93.8223
 30
0.0
 11
116.918
 21
93.8223
 31
0.0
  0
LINE
  8
0
 62
     0
 10
116.918
 20
93.8223
 30
0.0
 11
116.918
 21
88.0223
 31
0.0
  0
LINE
  8
0
 62
     0
 10
116.918
 20
88.0223
 30
0.0
 11
116.119
 21
88.0223
 31
0.0
  0
LINE
  8
0
 62
     0
 10
116.119
 20
88.0223
 30
0.0
 11
116.119
 21
84.9217
 31
0.0
  0
LINE
  8
0
 62
     0
 10
116.119
 20
84.9217
 30
0.0
 11
116.918
 21
84.9217
 31
0.0
  0
LINE
  8
0
 62
     0
 10
116.918
 20
84.9217
 30
0.0
 11
116.918
 21
83.9227
 31
0.0
  0
LINE
  8
0
 62
     0
 10
116.918
 20
83.9227
 30
0.0
 11
130.919
 21
83.9227
 31
0.0
  0
LINE
  8
0
 62
     0
 10
130.919
 20
83.9227
 30
0.0
 11
130.919
 21
84.9217
 31
0.0
  0
LINE
  8
0
 62
     0
 10
130.919
 20
84.9217
 30
0.0
 11
131.72
 21
84.9217
 31
0.0
  0
LINE
  8
0
 62
     0
 10
131.72
 20
84.9217
 30
0.0
 11
131.72
 21
88.0223
 31
0.0
  0
LINE
  8
0
 62
     0
 10
131.72
 20
88.0223
 30
0.0
 11
130.919
 21
88.0223
 31
0.0
  0
LINE
  8
0
 62
     0
 10
130.919
 20
88.0223
 30
0.0
 11
130.919
 21
93.8223
 31
0.0
  0
LINE
  8
0
 62
     0
 10
130.919
 20
93.8223
 30
0.0
 11
131.72
 21
93.8223
 31
0.0
  0
LINE
  8
0
 62
     0
 10
131.72
 20
93.8223
 30
0.0
 11
131.72
 21
96.9215
 31
0.0
  0
LINE
  8
0
 62
     0
 10
131.72
 20
96.9215
 30
0.0
 11
130.919
 21
96.9215
 31
0.0
  0
LINE
  8
0
 62
     0
 10
130.919
 20
96.9215
 30
0.0
 11
130.919
 21
97.9219
 31
0.0
  0
LINE
  8
0
 62
     0
 10
130.919
 20
97.9219
 30
0.0
 11
116.918
 21
97.9219
 31
0.0
  0
LINE
  8
0
 62
     0
 10
135.97
 20
97.9219
 30
0.0
 11
135.97
 21
96.9215
 31
0.0
  0
LINE
  8
0
 62
     0
 10
135.97
 20
96.9215
 30
0.0
 11
135.169
 21
96.9215
 31
0.0
  0
LINE
  8
0
 62
     0
 10
135.169
 20
96.9215
 30
0.0
 11
135.169
 21
93.8223
 31
0.0
  0
LINE
  8
0
 62
     0
 10
135.169
 20
93.8223
 30
0.0
 11
135.97
 21
93.8223
 31
0.0
  0
LINE
  8
0
 62
     0
 10
135.97
 20
93.8223
 30
0.0
 11
135.97
 21
88.0223
 31
0.0
  0
LINE
  8
0
 62
     0
 10
135.97
 20
88.0223
 30
0.0
 11
135.169
 21
88.0223
 31
0.0
  0
LINE
  8
0
 62
     0
 10
135.169
 20
88.0223
 30
0.0
 11
135.169
 21
84.9217
 31
0.0
  0
LINE
  8
0
 62
     0
 10
135.169
 20
84.9217
 30
0.0
 11
135.97
 21
84.9217
 31
0.0
  0
LINE
  8
0
 62
     0
 10
135.97
 20
84.9217
 30
0.0
 11
135.97
 21
83.9227
 31
0.0
  0
LINE
  8
0
 62
     0
 10
135.97
 20
83.9227
 30
0.0
 11
149.969
 21
83.9227
 31
0.0
  0
LINE
  8
0
 62
     0
 10
149.969
 20
83.9227
 30
0.0
 11
149.969
 21
84.9217
 31
0.0
  0
LINE
  8
0
 62
     0
 10
149.969
 20
84.9217
 30
0.0
 11
150.77
 21
84.9217
 31
0.0
  0
LINE
  8
0
 62
     0
 10
150.77
 20
84.9217
 30
0.0
 11
150.77
 21
88.0223
 31
0.0
  0
LINE
  8
0
 62
     0
 10
150.77
 20
88.0223
 30
0.0
 11
149.969
 21
88.0223
 31
0.0
  0
LINE
  8
0
 62
     0
 10
149.969
 20
88.0223
 30
0.0
 11
149.969
 21
93.8223
 31
0.0
  0
LINE
  8
0
 62
     0
 10
149.969
 20
93.8223
 30
0.0
 11
150.77
 21
93.8223
 31
0.0
  0
LINE
  8
0
 62
     0
 10
150.77
 20
93.8223
 30
0.0
 11
150.77
 21
96.9215
 31
0.0
  0
LINE
  8
0
 62
     0
 10
150.77
 20
96.9215
 30
0.0
 11
149.969
 21
96.9215
 31
0.0
  0
LINE
  8
0
 62
     0
 10
149.969
 20
96.9215
 30
0.0
 11
149.969
 21
97.9219
 31
0.0
  0
LINE
  8
0
 62
     0
 10
149.969
 20
97.9219
 30
0.0
 11
135.97
 21
97.9219
 31
0.0
  0
LINE
  8
0
 62
     0
 10
155.02
 20
97.9219
 30
0.0
 11
155.02
 21
96.9215
 31
0.0
  0
LINE
  8
0
 62
     0
 10
155.02
 20
96.9215
 30
0.0
 11
154.219
 21
96.9215
 31
0.0
  0
LINE
  8
0
 62
     0
 10
154.219
 20
96.9215
 30
0.0
 11
154.219
 21
93.8223
 31
0.0
  0
LINE
  8
0
 62
     0
 10
154.219
 20
93.8223
 30
0.0
 11
155.02
 21
93.8223
 31
0.0
  0
LINE
  8
0
 62
     0
 10
155.02
 20
93.8223
 30
0.0
 11
155.02
 21
88.0223
 31
0.0
  0
LINE
  8
0
 62
     0
 10
155.02
 20
88.0223
 30
0.0
 11
154.219
 21
88.0223
 31
0.0
  0
LINE
  8
0
 62
     0
 10
154.219
 20
88.0223
 30
0.0
 11
154.219
 21
84.9217
 31
0.0
  0
LINE
  8
0
 62
     0
 10
154.219
 20
84.9217
 30
0.0
 11
155.02
 21
84.9217
 31
0.0
  0
LINE
  8
0
 62
     0
 10
155.02
 20
84.9217
 30
0.0
 11
155.02
 21
83.9227
 31
0.0
  0
LINE
  8
0
 62
     0
 10
155.02
 20
83.9227
 30
0.0
 11
169.019
 21
83.9227
 31
0.0
  0
LINE
  8
0
 62
     0
 10
169.019
 20
83.9227
 30
0.0
 11
169.019
 21
84.9217
 31
0.0
  0
LINE
  8
0
 62
     0
 10
169.019
 20
84.9217
 30
0.0
 11
169.82
 21
84.9217
 31
0.0
  0
LINE
  8
0
 62
     0
 10
169.82
 20
84.9217
 30
0.0
 11
169.82
 21
88.0223
 31
0.0
  0
LINE
  8
0
 62
     0
 10
169.82
 20
88.0223
 30
0.0
 11
169.019
 21
88.0223
 31
0.0
  0
LINE
  8
0
 62
     0
 10
169.019
 20
88.0223
 30
0.0
 11
169.019
 21
93.8223
 31
0.0
  0
LINE
  8
0
 62
     0
 10
169.019
 20
93.8223
 30
0.0
 11
169.82
 21
93.8223
 31
0.0
  0
LINE
  8
0
 62
     0
 10
169.82
 20
93.8223
 30
0.0
 11
169.82
 21
96.9215
 31
0.0
  0
LINE
  8
0
 62
     0
 10
169.82
 20
96.9215
 30
0.0
 11
169.019
 21
96.9215
 31
0.0
  0
LINE
  8
0
 62
     0
 10
169.019
 20
96.9215
 30
0.0
 11
169.019
 21
97.9219
 31
0.0
  0
LINE
  8
0
 62
     0
 10
169.019
 20
97.9219
 30
0.0
 11
155.02
 21
97.9219
 31
0.0
  0
LINE
  8
0
 62
     0
 10
174.07
 20
97.9219
 30
0.0
 11
174.07
 21
96.9215
 31
0.0
  0
LINE
  8
0
 62
     0
 10
174.07
 20
96.9215
 30
0.0
 11
173.269
 21
96.9215
 31
0.0
  0
LINE
  8
0
 62
     0
 10
173.269
 20
96.9215
 30
0.0
 11
173.269
 21
93.8223
 31
0.0
  0
LINE
  8
0
 62
     0
 10
173.269
 20
93.8223
 30
0.0
 11
174.07
 21
93.8223
 31
0.0
  0
LINE
  8
0
 62
     0
 10
174.07
 20
93.8223
 30
0.0
 11
174.07
 21
88.0223
 31
0.0
  0
LINE
  8
0
 62
     0
 10
174.07
 20
88.0223
 30
0.0
 11
173.269
 21
88.0223
 31
0.0
  0
LINE
  8
0
 62
     0
 10
173.269
 20
88.0223
 30
0.0
 11
173.269
 21
84.9217
 31
0.0
  0
LINE
  8
0
 62
     0
 10
173.269
 20
84.9217
 30
0.0
 11
174.07
 21
84.9217
 31
0.0
  0
LINE
  8
0
 62
     0
 10
174.07
 20
84.9217
 30
0.0
 11
174.07
 21
83.9227
 31
0.0
  0
LINE
  8
0
 62
     0
 10
174.07
 20
83.9227
 30
0.0
 11
188.069
 21
83.9227
 31
0.0
  0
LINE
  8
0
 62
     0
 10
188.069
 20
83.9227
 30
0.0
 11
188.069
 21
84.9217
 31
0.0
  0
LINE
  8
0
 62
     0
 10
188.069
 20
84.9217
 30
0.0
 11
188.87
 21
84.9217
 31
0.0
  0
LINE
  8
0
 62
     0
 10
188.87
 20
84.9217
 30
0.0
 11
188.87
 21
88.0223
 31
0.0
  0
LINE
  8
0
 62
     0
 10
188.87
 20
88.0223
 30
0.0
 11
188.069
 21
88.0223
 31
0.0
  0
LINE
  8
0
 62
     0
 10
188.069
 20
88.0223
 30
0.0
 11
188.069
 21
93.8223
 31
0.0
  0
LINE
  8
0
 62
     0
 10
188.069
 20
93.8223
 30
0.0
 11
188.87
 21
93.8223
 31
0.0
  0
LINE
  8
0
 62
     0
 10
188.87
 20
93.8223
 30
0.0
 11
188.87
 21
96.9215
 31
0.0
  0
LINE
  8
0
 62
     0
 10
188.87
 20
96.9215
 30
0.0
 11
188.069
 21
96.9215
 31
0.0
  0
LINE
  8
0
 62
     0
 10
188.069
 20
96.9215
 30
0.0
 11
188.069
 21
97.9219
 31
0.0
  0
LINE
  8
0
 62
     0
 10
188.069
 20
97.9219
 30
0.0
 11
174.07
 21
97.9219
 31
0.0
  0
LINE
  8
0
 62
     0
 10
193.12
 20
97.9219
 30
0.0
 11
193.12
 21
96.9215
 31
0.0
  0
LINE
  8
0
 62
     0
 10
193.12
 20
96.9215
 30
0.0
 11
192.319
 21
96.9215
 31
0.0
  0
LINE
  8
0
 62
     0
 10
192.319
 20
96.9215
 30
0.0
 11
192.319
 21
93.8223
 31
0.0
  0
LINE
  8
0
 62
     0
 10
192.319
 20
93.8223
 30
0.0
 11
193.12
 21
93.8223
 31
0.0
  0
LINE
  8
0
 62
     0
 10
193.12
 20
93.8223
 30
0.0
 11
193.12
 21
88.0223
 31
0.0
  0
LINE
  8
0
 62
     0
 10
193.12
 20
88.0223
 30
0.0
 11
192.319
 21
88.0223
 31
0.0
  0
LINE
  8
0
 62
     0
 10
192.319
 20
88.0223
 30
0.0
 11
192.319
 21
84.9217
 31
0.0
  0
LINE
  8
0
 62
     0
 10
192.319
 20
84.9217
 30
0.0
 11
193.12
 21
84.9217
 31
0.0
  0
LINE
  8
0
 62
     0
 10
193.12
 20
84.9217
 30
0.0
 11
193.12
 21
83.9227
 31
0.0
  0
LINE
  8
0
 62
     0
 10
193.12
 20
83.9227
 30
0.0
 11
207.119
 21
83.9227
 31
0.0
  0
LINE
  8
0
 62
     0
 10
207.119
 20
83.9227
 30
0.0
 11
207.119
 21
84.9217
 31
0.0
  0
LINE
  8
0
 62
     0
 10
207.119
 20
84.9217
 30
0.0
 11
207.92
 21
84.9217
 31
0.0
  0
LINE
  8
0
 62
     0
 10
207.92
 20
84.9217
 30
0.0
 11
207.92
 21
88.0223
 31
0.0
  0
LINE
  8
0
 62
     0
 10
207.92
 20
88.0223
 30
0.0
 11
207.119
 21
88.0223
 31
0.0
  0
LINE
  8
0
 62
     0
 10
207.119
 20
88.0223
 30
0.0
 11
207.119
 21
93.8223
 31
0.0
  0
LINE
  8
0
 62
     0
 10
207.119
 20
93.8223
 30
0.0
 11
207.92
 21
93.8223
 31
0.0
  0
LINE
  8
0
 62
     0
 10
207.92
 20
93.8223
 30
0.0
 11
207.92
 21
96.9215
 31
0.0
  0
LINE
  8
0
 62
     0
 10
207.92
 20
96.9215
 30
0.0
 11
207.119
 21
96.9215
 31
0.0
  0
LINE
  8
0
 62
     0
 10
207.119
 20
96.9215
 30
0.0
 11
207.119
 21
97.9219
 31
0.0
  0
LINE
  8
0
 62
     0
 10
207.119
 20
97.9219
 30
0.0
 11
193.12
 21
97.9219
 31
0.0
  0
LINE
  8
0
 62
     0
 10
212.17
 20
97.9219
 30
0.0
 11
212.17
 21
96.9215
 31
0.0
  0
LINE
  8
0
 62
     0
 10
212.17
 20
96.9215
 30
0.0
 11
211.369
 21
96.9215
 31
0.0
  0
LINE
  8
0
 62
     0
 10
211.369
 20
96.9215
 30
0.0
 11
211.369
 21
93.8223
 31
0.0
  0
LINE
  8
0
 62
     0
 10
211.369
 20
93.8223
 30
0.0
 11
212.17
 21
93.8223
 31
0.0
  0
LINE
  8
0
 62
     0
 10
212.17
 20
93.8223
 30
0.0
 11
212.17
 21
88.0223
 31
0.0
  0
LINE
  8
0
 62
     0
 10
212.17
 20
88.0223
 30
0.0
 11
211.369
 21
88.0223
 31
0.0
  0
LINE
  8
0
 62
     0
 10
211.369
 20
88.0223
 30
0.0
 11
211.369
 21
84.9217
 31
0.0
  0
LINE
  8
0
 62
     0
 10
211.369
 20
84.9217
 30
0.0
 11
212.17
 21
84.9217
 31
0.0
  0
LINE
  8
0
 62
     0
 10
212.17
 20
84.9217
 30
0.0
 11
212.17
 21
83.9227
 31
0.0
  0
LINE
  8
0
 62
     0
 10
212.17
 20
83.9227
 30
0.0
 11
226.169
 21
83.9227
 31
0.0
  0
LINE
  8
0
 62
     0
 10
226.169
 20
83.9227
 30
0.0
 11
226.169
 21
84.9217
 31
0.0
  0
LINE
  8
0
 62
     0
 10
226.169
 20
84.9217
 30
0.0
 11
226.97
 21
84.9217
 31
0.0
  0
LINE
  8
0
 62
     0
 10
226.97
 20
84.9217
 30
0.0
 11
226.97
 21
88.0223
 31
0.0
  0
LINE
  8
0
 62
     0
 10
226.97
 20
88.0223
 30
0.0
 11
226.169
 21
88.0223
 31
0.0
  0
LINE
  8
0
 62
     0
 10
226.169
 20
88.0223
 30
0.0
 11
226.169
 21
93.8223
 31
0.0
  0
LINE
  8
0
 62
     0
 10
226.169
 20
93.8223
 30
0.0
 11
226.97
 21
93.8223
 31
0.0
  0
LINE
  8
0
 62
     0
 10
226.97
 20
93.8223
 30
0.0
 11
226.97
 21
96.9215
 31
0.0
  0
LINE
  8
0
 62
     0
 10
226.97
 20
96.9215
 30
0.0
 11
226.169
 21
96.9215
 31
0.0
  0
LINE
  8
0
 62
     0
 10
226.169
 20
96.9215
 30
0.0
 11
226.169
 21
97.9219
 31
0.0
  0
LINE
  8
0
 62
     0
 10
226.169
 20
97.9219
 30
0.0
 11
212.17
 21
97.9219
 31
0.0
  0
LINE
  8
0
 62
     0
 10
231.22
 20
97.9219
 30
0.0
 11
231.22
 21
96.9215
 31
0.0
  0
LINE
  8
0
 62
     0
 10
231.22
 20
96.9215
 30
0.0
 11
230.419
 21
96.9215
 31
0.0
  0
LINE
  8
0
 62
     0
 10
230.419
 20
96.9215
 30
0.0
 11
230.419
 21
93.8223
 31
0.0
  0
LINE
  8
0
 62
     0
 10
230.419
 20
93.8223
 30
0.0
 11
231.22
 21
93.8223
 31
0.0
  0
LINE
  8
0
 62
     0
 10
231.22
 20
93.8223
 30
0.0
 11
231.22
 21
88.0223
 31
0.0
  0
LINE
  8
0
 62
     0
 10
231.22
 20
88.0223
 30
0.0
 11
230.419
 21
88.0223
 31
0.0
  0
LINE
  8
0
 62
     0
 10
230.419
 20
88.0223
 30
0.0
 11
230.419
 21
84.9217
 31
0.0
  0
LINE
  8
0
 62
     0
 10
230.419
 20
84.9217
 30
0.0
 11
231.22
 21
84.9217
 31
0.0
  0
LINE
  8
0
 62
     0
 10
231.22
 20
84.9217
 30
0.0
 11
231.22
 21
83.9227
 31
0.0
  0
LINE
  8
0
 62
     0
 10
231.22
 20
83.9227
 30
0.0
 11
245.219
 21
83.9227
 31
0.0
  0
LINE
  8
0
 62
     0
 10
245.219
 20
83.9227
 30
0.0
 11
245.219
 21
84.9217
 31
0.0
  0
LINE
  8
0
 62
     0
 10
245.219
 20
84.9217
 30
0.0
 11
246.02
 21
84.9217
 31
0.0
  0
LINE
  8
0
 62
     0
 10
246.02
 20
84.9217
 30
0.0
 11
246.02
 21
88.0223
 31
0.0
  0
LINE
  8
0
 62
     0
 10
246.02
 20
88.0223
 30
0.0
 11
245.219
 21
88.0223
 31
0.0
  0
LINE
  8
0
 62
     0
 10
245.219
 20
88.0223
 30
0.0
 11
245.219
 21
93.8223
 31
0.0
  0
LINE
  8
0
 62
     0
 10
245.219
 20
93.8223
 30
0.0
 11
246.02
 21
93.8223
 31
0.0
  0
LINE
  8
0
 62
     0
 10
246.02
 20
93.8223
 30
0.0
 11
246.02
 21
96.9215
 31
0.0
  0
LINE
  8
0
 62
     0
 10
246.02
 20
96.9215
 30
0.0
 11
245.219
 21
96.9215
 31
0.0
  0
LINE
  8
0
 62
     0
 10
245.219
 20
96.9215
 30
0.0
 11
245.219
 21
97.9219
 31
0.0
  0
LINE
  8
0
 62
     0
 10
245.219
 20
97.9219
 30
0.0
 11
231.22
 21
97.9219
 31
0.0
  0
LINE
  8
0
 62
     0
 10
293.132
 20
97.9219
 30
0.0
 11
293.132
 21
96.9215
 31
0.0
  0
LINE
  8
0
 62
     0
 10
293.132
 20
96.9215
 30
0.0
 11
292.331
 21
96.9215
 31
0.0
  0
LINE
  8
0
 62
     0
 10
292.331
 20
96.9215
 30
0.0
 11
292.331
 21
93.8223
 31
0.0
  0
LINE
  8
0
 62
     0
 10
292.331
 20
93.8223
 30
0.0
 11
293.132
 21
93.8223
 31
0.0
  0
LINE
  8
0
 62
     0
 10
293.132
 20
93.8223
 30
0.0
 11
293.132
 21
88.0223
 31
0.0
  0
LINE
  8
0
 62
     0
 10
293.132
 20
88.0223
 30
0.0
 11
292.331
 21
88.0223
 31
0.0
  0
LINE
  8
0
 62
     0
 10
292.331
 20
88.0223
 30
0.0
 11
292.331
 21
84.9217
 31
0.0
  0
LINE
  8
0
 62
     0
 10
292.331
 20
84.9217
 30
0.0
 11
293.132
 21
84.9217
 31
0.0
  0
LINE
  8
0
 62
     0
 10
293.132
 20
84.9217
 30
0.0
 11
293.132
 21
83.9227
 31
0.0
  0
LINE
  8
0
 62
     0
 10
293.132
 20
83.9227
 30
0.0
 11
307.132
 21
83.9227
 31
0.0
  0
LINE
  8
0
 62
     0
 10
307.132
 20
83.9227
 30
0.0
 11
307.132
 21
84.9217
 31
0.0
  0
LINE
  8
0
 62
     0
 10
307.132
 20
84.9217
 30
0.0
 11
307.931
 21
84.9217
 31
0.0
  0
LINE
  8
0
 62
     0
 10
307.931
 20
84.9217
 30
0.0
 11
307.931
 21
88.0223
 31
0.0
  0
LINE
  8
0
 62
     0
 10
307.931
 20
88.0223
 30
0.0
 11
307.132
 21
88.0223
 31
0.0
  0
LINE
  8
0
 62
     0
 10
307.132
 20
88.0223
 30
0.0
 11
307.132
 21
93.8223
 31
0.0
  0
LINE
  8
0
 62
     0
 10
307.132
 20
93.8223
 30
0.0
 11
307.931
 21
93.8223
 31
0.0
  0
LINE
  8
0
 62
     0
 10
307.931
 20
93.8223
 30
0.0
 11
307.931
 21
96.9215
 31
0.0
  0
LINE
  8
0
 62
     0
 10
307.931
 20
96.9215
 30
0.0
 11
307.132
 21
96.9215
 31
0.0
  0
LINE
  8
0
 62
     0
 10
307.132
 20
96.9215
 30
0.0
 11
307.132
 21
97.9219
 31
0.0
  0
LINE
  8
0
 62
     0
 10
307.132
 20
97.9219
 30
0.0
 11
293.132
 21
97.9219
 31
0.0
  0
LINE
  8
0
 62
     0
 10
312.182
 20
97.9219
 30
0.0
 11
312.182
 21
96.9215
 31
0.0
  0
LINE
  8
0
 62
     0
 10
312.182
 20
96.9215
 30
0.0
 11
311.381
 21
96.9215
 31
0.0
  0
LINE
  8
0
 62
     0
 10
311.381
 20
96.9215
 30
0.0
 11
311.381
 21
93.8223
 31
0.0
  0
LINE
  8
0
 62
     0
 10
311.381
 20
93.8223
 30
0.0
 11
312.182
 21
93.8223
 31
0.0
  0
LINE
  8
0
 62
     0
 10
312.182
 20
93.8223
 30
0.0
 11
312.182
 21
88.0223
 31
0.0
  0
LINE
  8
0
 62
     0
 10
312.182
 20
88.0223
 30
0.0
 11
311.381
 21
88.0223
 31
0.0
  0
LINE
  8
0
 62
     0
 10
311.381
 20
88.0223
 30
0.0
 11
311.381
 21
84.9217
 31
0.0
  0
LINE
  8
0
 62
     0
 10
311.381
 20
84.9217
 30
0.0
 11
312.182
 21
84.9217
 31
0.0
  0
LINE
  8
0
 62
     0
 10
312.182
 20
84.9217
 30
0.0
 11
312.182
 21
83.9227
 31
0.0
  0
LINE
  8
0
 62
     0
 10
312.182
 20
83.9227
 30
0.0
 11
326.182
 21
83.9227
 31
0.0
  0
LINE
  8
0
 62
     0
 10
326.182
 20
83.9227
 30
0.0
 11
326.182
 21
84.9217
 31
0.0
  0
LINE
  8
0
 62
     0
 10
326.182
 20
84.9217
 30
0.0
 11
326.981
 21
84.9217
 31
0.0
  0
LINE
  8
0
 62
     0
 10
326.981
 20
84.9217
 30
0.0
 11
326.981
 21
88.0223
 31
0.0
  0
LINE
  8
0
 62
     0
 10
326.981
 20
88.0223
 30
0.0
 11
326.182
 21
88.0223
 31
0.0
  0
LINE
  8
0
 62
     0
 10
326.182
 20
88.0223
 30
0.0
 11
326.182
 21
93.8223
 31
0.0
  0
LINE
  8
0
 62
     0
 10
326.182
 20
93.8223
 30
0.0
 11
326.981
 21
93.8223
 31
0.0
  0
LINE
  8
0
 62
     0
 10
326.981
 20
93.8223
 30
0.0
 11
326.981
 21
96.9215
 31
0.0
  0
LINE
  8
0
 62
     0
 10
326.981
 20
96.9215
 30
0.0
 11
326.182
 21
96.9215
 31
0.0
  0
LINE
  8
0
 62
     0
 10
326.182
 20
96.9215
 30
0.0
 11
326.182
 21
97.9219
 31
0.0
  0
LINE
  8
0
 62
     0
 10
326.182
 20
97.9219
 30
0.0
 11
312.182
 21
97.9219
 31
0.0
  0
ENDSEC
  0
EOF
